<svg width="790" height="548" fill="none" xmlns="http://www.w3.org/2000/svg"><circle cx="178.5" cy="36.5" r="2.5" fill="#8A70B5"/><circle cx="274.5" cy="140.5" r="2.5" transform="rotate(-90 274.5 140.5)" fill="#8A70B5"/><circle cx="186.5" cy="36.5" r="2.5" fill="#8A70B5"/><circle cx="274.5" cy="132.5" r="2.5" transform="rotate(-90 274.5 132.5)" fill="#8A70B5"/><circle cx="194.5" cy="36.5" r="2.5" fill="#8A70B5"/><circle cx="274.5" cy="124.5" r="2.5" transform="rotate(-90 274.5 124.5)" fill="#8A70B5"/><circle cx="202.5" cy="36.5" r="2.5" fill="#8A70B5"/><circle cx="274.5" cy="116.5" r="2.5" transform="rotate(-90 274.5 116.5)" fill="#8A70B5"/><circle cx="210.5" cy="36.5" r="2.5" fill="#8A70B5"/><circle cx="274.5" cy="108.5" r="2.5" transform="rotate(-90 274.5 108.5)" fill="#8A70B5"/><circle cx="218.5" cy="36.5" r="2.5" fill="#8A70B5"/><circle cx="274.5" cy="100.5" r="2.5" transform="rotate(-90 274.5 100.5)" fill="#8A70B5"/><circle cx="226.5" cy="36.5" r="2.5" fill="#8A70B5"/><circle cx="274.5" cy="92.5" r="2.5" transform="rotate(-90 274.5 92.5)" fill="#8A70B5"/><circle cx="234.5" cy="36.5" r="2.5" fill="#8A70B5"/><circle cx="274.5" cy="84.5" r="2.5" transform="rotate(-90 274.5 84.5)" fill="#8A70B5"/><circle cx="242.5" cy="36.5" r="2.5" fill="#8A70B5"/><circle cx="274.5" cy="76.5" r="2.5" transform="rotate(-90 274.5 76.5)" fill="#8A70B5"/><circle cx="250.5" cy="36.5" r="2.5" fill="#8A70B5"/><circle cx="274.5" cy="68.5" r="2.5" transform="rotate(-90 274.5 68.5)" fill="#8A70B5"/><circle cx="258.5" cy="36.5" r="2.5" fill="#8A70B5"/><circle cx="274.5" cy="60.5" r="2.5" transform="rotate(-90 274.5 60.5)" fill="#8A70B5"/><circle cx="266.5" cy="36.5" r="2.5" fill="#8A70B5"/><circle cx="274.5" cy="52.5" r="2.5" transform="rotate(-90 274.5 52.5)" fill="#8A70B5"/><circle cx="274.5" cy="36.5" r="2.5" fill="#8A70B5"/><circle cx="274.5" cy="44.5" r="2.5" transform="rotate(-90 274.5 44.5)" fill="#8A70B5"/><path d="M119.68 49h-18.44v-3.6l9.76-9.96c2.373-2.373 3.56-4.427 3.56-6.16 0-1.333-.4-2.387-1.2-3.16-.8-.773-1.84-1.16-3.12-1.16-2.347 0-4.08 1.16-5.2 3.48l-3.88-2.28c.853-1.84 2.08-3.24 3.68-4.2 1.6-.987 3.387-1.48 5.36-1.48 2.48 0 4.587.773 6.32 2.32 1.76 1.573 2.64 3.68 2.64 6.32 0 2.827-1.587 5.867-4.76 9.12l-6.32 6.32h11.6V49zm11.306-18.6h.52c2.933 0 5.307.893 7.12 2.68 1.84 1.76 2.76 4.053 2.76 6.88 0 2.8-.92 5.107-2.76 6.92-1.84 1.76-4.213 2.64-7.12 2.64-2.933 0-5.32-.88-7.16-2.64-1.84-1.813-2.76-4.12-2.76-6.92 0-2.133.56-4.013 1.68-5.64l8.88-13.32h5.24l-6.4 9.4zm.52 14.76c1.547 0 2.813-.467 3.8-1.4.987-.96 1.48-2.227 1.48-3.8s-.493-2.827-1.48-3.76c-.987-.96-2.253-1.44-3.8-1.44-1.6 0-2.893.48-3.88 1.44-.96.933-1.44 2.187-1.44 3.76s.48 2.84 1.44 3.8c.987.933 2.28 1.4 3.88 1.4zm22.866-22.84c1.253 1.253 1.88 2.773 1.88 4.56 0 1.787-.627 3.307-1.88 4.56-1.227 1.227-2.773 1.84-4.64 1.84-1.893 0-3.453-.613-4.68-1.84-1.253-1.253-1.88-2.773-1.88-4.56 0-1.76.627-3.267 1.88-4.52 1.253-1.253 2.813-1.88 4.68-1.88 1.867 0 3.413.613 4.64 1.84zm-4.68 7.44c.853 0 1.547-.267 2.08-.8.533-.56.8-1.253.8-2.08 0-.827-.267-1.52-.8-2.08s-1.227-.84-2.08-.84c-.827 0-1.507.28-2.04.84-.533.56-.8 1.253-.8 2.08 0 .8.267 1.48.8 2.04.56.56 1.24.84 2.04.84zm-2 16.4l-2.16-1.28 18.44-20.52 2.16 1.24-18.44 20.56zm14.84 3.32c-1.893 0-3.453-.613-4.68-1.84-1.253-1.253-1.88-2.773-1.88-4.56 0-1.76.627-3.267 1.88-4.52 1.253-1.253 2.813-1.88 4.68-1.88 1.84 0 3.387.627 4.64 1.88 1.253 1.253 1.88 2.76 1.88 4.52 0 1.787-.627 3.307-1.88 4.56-1.227 1.227-2.773 1.84-4.64 1.84zm-.04-3.52c.853 0 1.547-.267 2.08-.8.533-.56.8-1.253.8-2.08 0-.827-.267-1.52-.8-2.08s-1.227-.84-2.08-.84c-.827 0-1.507.28-2.04.84-.533.56-.8 1.253-.8 2.08 0 .8.267 1.48.8 2.04.56.56 1.24.84 2.04.84z" fill="#fff"/><path d="M100.21 66.46l2.76-.96h1.2V76h-1.38v-9l-2.235.66-.345-1.2zm12.157.27l-2.28 3.075c.82.15 1.48.5 1.98 1.05s.75 1.23.75 2.04c0 1.03-.35 1.835-1.05 2.415-.71.59-1.56.885-2.55.885-.82 0-1.535-.185-2.145-.555a3.072 3.072 0 01-1.305-1.575l1.17-.69c.31.97 1.07 1.455 2.28 1.455.66 0 1.19-.17 1.59-.51.41-.35.615-.825.615-1.425 0-.6-.205-1.075-.615-1.425-.4-.35-.93-.525-1.59-.525h-.36l-.555-.855 2.43-3.285h-4.665V65.5h6.3v1.23zm2.154 7.725h1.5l-.975 3.645h-1.125l.6-3.645zm9.61.255c-.7.99-1.695 1.485-2.985 1.485-1.29 0-2.285-.495-2.985-1.485-.71-1-1.065-2.32-1.065-3.96 0-1.64.355-2.96 1.065-3.96.7-.99 1.695-1.485 2.985-1.485 1.29 0 2.285.495 2.985 1.485.71 1 1.065 2.32 1.065 3.96 0 1.64-.355 2.96-1.065 3.96zm-5.64-3.96c0 1.3.23 2.305.69 3.015.46.71 1.115 1.065 1.965 1.065.85 0 1.505-.355 1.965-1.065.47-.71.705-1.715.705-3.015s-.235-2.305-.705-3.015c-.46-.72-1.115-1.08-1.965-1.08-.85 0-1.505.355-1.965 1.065-.46.71-.69 1.72-.69 3.03zm14.047-4.02l-2.28 3.075c.82.15 1.48.5 1.98 1.05s.75 1.23.75 2.04c0 1.03-.35 1.835-1.05 2.415-.71.59-1.56.885-2.55.885-.82 0-1.535-.185-2.145-.555a3.072 3.072 0 01-1.305-1.575l1.17-.69c.31.97 1.07 1.455 2.28 1.455.66 0 1.19-.17 1.59-.51.41-.35.615-.825.615-1.425 0-.6-.205-1.075-.615-1.425-.4-.35-.93-.525-1.59-.525h-.36l-.555-.855 2.43-3.285h-4.665V65.5h6.3v1.23zm13.847 1.575c.85 0 1.53.275 2.04.825.52.55.78 1.285.78 2.205V76H147.9v-4.62c0-.57-.15-1.015-.45-1.335-.29-.33-.69-.495-1.2-.495-.58 0-1.035.195-1.365.585-.32.38-.48.945-.48 1.695V76H143.1v-4.62c0-.57-.145-1.015-.435-1.335-.28-.33-.665-.495-1.155-.495-.57 0-1.035.2-1.395.6-.35.39-.525.95-.525 1.68V76h-1.305v-7.5h1.305v1.005c.51-.8 1.255-1.2 2.235-1.2 1.01 0 1.745.425 2.205 1.275.52-.85 1.305-1.275 2.355-1.275zM152.319 76h-1.305V65.05h1.305V76zm5.726-7.695c.88 0 1.585.28 2.115.84.53.55.795 1.3.795 2.25V76h-1.305v-4.53c0-.6-.165-1.07-.495-1.41-.33-.34-.785-.51-1.365-.51-.67 0-1.2.21-1.59.63-.39.41-.585 1.025-.585 1.845V76h-1.305v-7.5h1.305v1.08c.52-.85 1.33-1.275 2.43-1.275zm5.557 7.86a.94.94 0 01-.69-.285.94.94 0 01-.285-.69c0-.27.095-.5.285-.69a.94.94 0 01.69-.285c.28 0 .51.095.69.285.19.19.285.42.285.69 0 .27-.095.5-.285.69a.909.909 0 01-.69.285zm6.573-3.69V65.5h1.395v6.915c0 .75.22 1.34.66 1.77.45.43 1.08.645 1.89.645.81 0 1.435-.215 1.875-.645.45-.43.675-1.02.675-1.77V65.5h1.38v6.975c0 1.14-.365 2.045-1.095 2.715-.73.67-1.675 1.005-2.835 1.005-1.17 0-2.12-.335-2.85-1.005-.73-.67-1.095-1.575-1.095-2.715zm13.398 3.72c-.98 0-1.82-.225-2.52-.675a3.659 3.659 0 01-1.455-1.905l1.2-.69c.4 1.27 1.335 1.905 2.805 1.905.71 0 1.255-.145 1.635-.435.39-.29.585-.685.585-1.185 0-.49-.19-.865-.57-1.125-.34-.23-.975-.495-1.905-.795l-1.005-.33c-.22-.09-.51-.22-.87-.39-.35-.18-.605-.36-.765-.54-.44-.48-.66-1.065-.66-1.755 0-.92.32-1.64.96-2.16.64-.54 1.42-.81 2.34-.81.82 0 1.54.205 2.16.615.62.41 1.085.97 1.395 1.68l-1.17.675c-.45-1.08-1.245-1.62-2.385-1.62-.57 0-1.03.14-1.38.42-.35.28-.525.66-.525 1.14 0 .46.165.81.495 1.05.34.25.91.5 1.71.75l.615.195c.34.13.525.2.555.21.32.12.67.285 1.05.495.27.15.54.38.81.69.35.35.525.875.525 1.575 0 .92-.335 1.655-1.005 2.205-.68.54-1.555.81-2.625.81zm5.208-10.695h4.095c1.42 0 2.605.51 3.555 1.53.95 1.01 1.425 2.25 1.425 3.72 0 1.46-.475 2.705-1.425 3.735-.95 1.01-2.135 1.515-3.555 1.515h-4.095V65.5zm1.395 9.18h2.7c1.07 0 1.945-.375 2.625-1.125.68-.76 1.02-1.695 1.02-2.805s-.34-2.045-1.02-2.805c-.68-.75-1.555-1.125-2.625-1.125h-2.7v7.86z" fill="#B299DA"/><circle r="2.5" transform="matrix(1 0 0 -1 80.5 505.5)" fill="#B069B0"/><circle r="2.5" transform="matrix(0 1 1 0 176.5 401.5)" fill="#B069B0"/><circle r="2.5" transform="matrix(1 0 0 -1 88.5 505.5)" fill="#B069B0"/><circle r="2.5" transform="matrix(0 1 1 0 176.5 409.5)" fill="#B069B0"/><circle r="2.5" transform="matrix(1 0 0 -1 96.5 505.5)" fill="#B069B0"/><circle r="2.5" transform="matrix(0 1 1 0 176.5 417.5)" fill="#B069B0"/><circle r="2.5" transform="matrix(1 0 0 -1 104.5 505.5)" fill="#B069B0"/><circle r="2.5" transform="matrix(0 1 1 0 176.5 425.5)" fill="#B069B0"/><circle r="2.5" transform="matrix(1 0 0 -1 112.5 505.5)" fill="#B069B0"/><circle r="2.5" transform="matrix(0 1 1 0 176.5 433.5)" fill="#B069B0"/><circle r="2.5" transform="matrix(1 0 0 -1 120.5 505.5)" fill="#B069B0"/><circle r="2.5" transform="matrix(0 1 1 0 176.5 441.5)" fill="#B069B0"/><circle r="2.5" transform="matrix(1 0 0 -1 128.5 505.5)" fill="#B069B0"/><circle r="2.5" transform="matrix(0 1 1 0 176.5 449.5)" fill="#B069B0"/><circle r="2.5" transform="matrix(1 0 0 -1 136.5 505.5)" fill="#B069B0"/><circle r="2.5" transform="matrix(0 1 1 0 176.5 457.5)" fill="#B069B0"/><circle r="2.5" transform="matrix(1 0 0 -1 144.5 505.5)" fill="#B069B0"/><circle r="2.5" transform="matrix(0 1 1 0 176.5 465.5)" fill="#B069B0"/><circle r="2.5" transform="matrix(1 0 0 -1 152.5 505.5)" fill="#B069B0"/><circle r="2.5" transform="matrix(0 1 1 0 176.5 473.5)" fill="#B069B0"/><circle r="2.5" transform="matrix(1 0 0 -1 160.5 505.5)" fill="#B069B0"/><circle r="2.5" transform="matrix(0 1 1 0 176.5 481.5)" fill="#B069B0"/><circle r="2.5" transform="matrix(1 0 0 -1 168.5 505.5)" fill="#B069B0"/><circle r="2.5" transform="matrix(0 1 1 0 176.5 489.5)" fill="#B069B0"/><circle r="2.5" transform="matrix(1 0 0 -1 176.5 505.5)" fill="#B069B0"/><circle r="2.5" transform="matrix(0 1 1 0 176.5 497.5)" fill="#B069B0"/><path d="M19.04 491.92l-5.68 7.52c2.08.48 3.733 1.44 4.96 2.88 1.253 1.413 1.88 3.147 1.88 5.2 0 2.8-.947 5-2.84 6.6-1.867 1.6-4.187 2.4-6.96 2.4-2.187 0-4.12-.493-5.8-1.48-1.68-1.013-2.88-2.453-3.6-4.32l3.92-2.28c.827 2.4 2.653 3.6 5.48 3.6 1.6 0 2.867-.4 3.8-1.2.933-.827 1.4-1.933 1.4-3.32 0-1.387-.467-2.48-1.4-3.28-.933-.8-2.2-1.2-3.8-1.2H9.36l-1.84-2.76 6.04-7.96H1.84V488h17.2v3.92zM40.89 516H22.45v-3.6l9.76-9.96c2.374-2.373 3.56-4.427 3.56-6.16 0-1.333-.4-2.387-1.2-3.16-.8-.773-1.84-1.16-3.12-1.16-2.346 0-4.08 1.16-5.2 3.48l-3.88-2.28c.854-1.84 2.08-3.24 3.68-4.2 1.6-.987 3.388-1.48 5.36-1.48 2.48 0 4.588.773 6.32 2.32 1.76 1.573 2.64 3.68 2.64 6.32 0 2.827-1.586 5.867-4.76 9.12l-6.32 6.32h11.6V516zm14.302-26.68c1.254 1.253 1.88 2.773 1.88 4.56 0 1.787-.627 3.307-1.88 4.56-1.227 1.227-2.773 1.84-4.64 1.84-1.893 0-3.453-.613-4.68-1.84-1.253-1.253-1.88-2.773-1.88-4.56 0-1.76.627-3.267 1.88-4.52 1.254-1.253 2.813-1.88 4.68-1.88 1.867 0 3.413.613 4.64 1.84zm-4.68 7.44c.853 0 1.547-.267 2.08-.8.534-.56.8-1.253.8-2.08 0-.827-.267-1.52-.8-2.08s-1.227-.84-2.08-.84c-.827 0-1.507.28-2.04.84-.533.56-.8 1.253-.8 2.08 0 .8.267 1.48.8 2.04.56.56 1.24.84 2.04.84zm-2 16.4l-2.16-1.28 18.44-20.52 2.16 1.24-18.44 20.56zm14.84 3.32c-1.893 0-3.453-.613-4.68-1.84-1.253-1.253-1.88-2.773-1.88-4.56 0-1.76.627-3.267 1.88-4.52 1.254-1.253 2.814-1.88 4.68-1.88 1.84 0 3.387.627 4.64 1.88 1.254 1.253 1.88 2.76 1.88 4.52 0 1.787-.626 3.307-1.88 4.56-1.227 1.227-2.773 1.84-4.64 1.84zm-.04-3.52c.853 0 1.547-.267 2.08-.8.534-.56.8-1.253.8-2.08 0-.827-.266-1.52-.8-2.08-.533-.56-1.227-.84-2.08-.84-.826 0-1.506.28-2.04.84-.533.56-.8 1.253-.8 2.08 0 .8.267 1.48.8 2.04.56.56 1.24.84 2.04.84z" fill="#fff"/><path d="M.21 533.46l2.76-.96h1.2V543H2.79v-9l-2.235.66-.345-1.2zm12.247 6.24h1.275v1.305h-1.275V543h-1.395v-1.995H5.707V539.7l3.765-7.2h1.5l-3.765 7.2h3.855v-2.97h1.395v2.97zm3.03 1.755h1.5l-.974 3.645h-1.125l.6-3.645zm2.625-7.635v-1.32h6.555v1.245L20.842 543h-1.455l3.795-9.18h-5.07zm19.923 1.485c.85 0 1.53.275 2.04.825.52.55.78 1.285.78 2.205V543H39.55v-4.62c0-.57-.15-1.015-.45-1.335-.29-.33-.69-.495-1.2-.495-.58 0-1.035.195-1.365.585-.32.38-.48.945-.48 1.695V543H34.75v-4.62c0-.57-.145-1.015-.435-1.335-.28-.33-.665-.495-1.155-.495-.57 0-1.035.2-1.395.6-.35.39-.525.95-.525 1.68V543h-1.305v-7.5h1.305v1.005c.51-.8 1.255-1.2 2.235-1.2 1.01 0 1.745.425 2.205 1.275.52-.85 1.305-1.275 2.355-1.275zM43.97 543h-1.305v-10.95h1.305V543zm5.726-7.695c.88 0 1.585.28 2.115.84.53.55.795 1.3.795 2.25V543H51.3v-4.53c0-.6-.165-1.07-.495-1.41-.33-.34-.785-.51-1.365-.51-.67 0-1.2.21-1.59.63-.39.41-.585 1.025-.585 1.845V543H45.96v-7.5h1.305v1.08c.52-.85 1.33-1.275 2.43-1.275zm5.556 7.86a.94.94 0 01-.69-.285.94.94 0 01-.284-.69c0-.27.095-.5.285-.69a.94.94 0 01.69-.285c.28 0 .51.095.69.285.19.19.285.42.285.69 0 .27-.096.5-.285.69a.909.909 0 01-.69.285zm6.573-3.69V532.5h1.395v6.915c0 .75.22 1.34.66 1.77.45.43 1.08.645 1.89.645.81 0 1.435-.215 1.875-.645.45-.43.675-1.02.675-1.77V532.5h1.38v6.975c0 1.14-.365 2.045-1.095 2.715-.73.67-1.675 1.005-2.835 1.005-1.17 0-2.12-.335-2.85-1.005-.73-.67-1.095-1.575-1.095-2.715zm13.398 3.72c-.98 0-1.82-.225-2.52-.675a3.659 3.659 0 01-1.455-1.905l1.2-.69c.4 1.27 1.335 1.905 2.805 1.905.71 0 1.255-.145 1.635-.435.39-.29.585-.685.585-1.185 0-.49-.19-.865-.57-1.125-.34-.23-.975-.495-1.905-.795l-1.005-.33c-.22-.09-.51-.22-.87-.39-.35-.18-.605-.36-.765-.54-.44-.48-.66-1.065-.66-1.755 0-.92.32-1.64.96-2.16.64-.54 1.42-.81 2.34-.81.82 0 1.54.205 2.16.615.62.41 1.085.97 1.395 1.68l-1.17.675c-.45-1.08-1.245-1.62-2.385-1.62-.57 0-1.03.14-1.38.42-.35.28-.525.66-.525 1.14 0 .46.165.81.495 1.05.34.25.91.5 1.71.75l.615.195c.34.13.525.2.555.21.32.12.67.285 1.05.495.27.15.54.38.81.69.35.35.525.875.525 1.575 0 .92-.335 1.655-1.005 2.205-.68.54-1.555.81-2.625.81zm5.209-10.695h4.095c1.42 0 2.605.51 3.555 1.53.95 1.01 1.425 2.25 1.425 3.72 0 1.46-.475 2.705-1.425 3.735-.95 1.01-2.135 1.515-3.555 1.515h-4.095v-10.5zm1.395 9.18h2.7c1.07 0 1.945-.375 2.625-1.125.68-.76 1.02-1.695 1.02-2.805s-.34-2.045-1.02-2.805c-.68-.75-1.555-1.125-2.625-1.125h-2.7v7.86z" fill="#B299DA"/><circle cx="704.5" cy="487.5" r="2.5" transform="rotate(-180 704.5 487.5)" fill="#5F399C"/><circle cx="608.5" cy="383.5" r="2.5" transform="rotate(90 608.5 383.5)" fill="#5F399C"/><circle cx="696.5" cy="487.5" r="2.5" transform="rotate(-180 696.5 487.5)" fill="#5F399C"/><circle cx="608.5" cy="391.5" r="2.5" transform="rotate(90 608.5 391.5)" fill="#5F399C"/><circle cx="688.5" cy="487.5" r="2.5" transform="rotate(-180 688.5 487.5)" fill="#5F399C"/><circle cx="608.5" cy="399.5" r="2.5" transform="rotate(90 608.5 399.5)" fill="#5F399C"/><circle cx="680.5" cy="487.5" r="2.5" transform="rotate(-180 680.5 487.5)" fill="#5F399C"/><circle cx="608.5" cy="407.5" r="2.5" transform="rotate(90 608.5 407.5)" fill="#5F399C"/><circle cx="672.5" cy="487.5" r="2.5" transform="rotate(-180 672.5 487.5)" fill="#5F399C"/><circle cx="608.5" cy="415.5" r="2.5" transform="rotate(90 608.5 415.5)" fill="#5F399C"/><circle cx="664.5" cy="487.5" r="2.5" transform="rotate(-180 664.5 487.5)" fill="#5F399C"/><circle cx="608.5" cy="423.5" r="2.5" transform="rotate(90 608.5 423.5)" fill="#5F399C"/><circle cx="656.5" cy="487.5" r="2.5" transform="rotate(-180 656.5 487.5)" fill="#5F399C"/><circle cx="608.5" cy="431.5" r="2.5" transform="rotate(90 608.5 431.5)" fill="#5F399C"/><circle cx="648.5" cy="487.5" r="2.5" transform="rotate(-180 648.5 487.5)" fill="#5F399C"/><circle cx="608.5" cy="439.5" r="2.5" transform="rotate(90 608.5 439.5)" fill="#5F399C"/><circle cx="640.5" cy="487.5" r="2.5" transform="rotate(-180 640.5 487.5)" fill="#5F399C"/><circle cx="608.5" cy="447.5" r="2.5" transform="rotate(90 608.5 447.5)" fill="#5F399C"/><circle cx="632.5" cy="487.5" r="2.5" transform="rotate(-180 632.5 487.5)" fill="#5F399C"/><circle cx="608.5" cy="455.5" r="2.5" transform="rotate(90 608.5 455.5)" fill="#5F399C"/><circle cx="624.5" cy="487.5" r="2.5" transform="rotate(-180 624.5 487.5)" fill="#5F399C"/><circle cx="608.5" cy="463.5" r="2.5" transform="rotate(90 608.5 463.5)" fill="#5F399C"/><circle cx="616.5" cy="487.5" r="2.5" transform="rotate(-180 616.5 487.5)" fill="#5F399C"/><circle cx="608.5" cy="471.5" r="2.5" transform="rotate(90 608.5 471.5)" fill="#5F399C"/><circle cx="608.5" cy="487.5" r="2.5" transform="rotate(-180 608.5 487.5)" fill="#5F399C"/><circle cx="608.5" cy="479.5" r="2.5" transform="rotate(90 608.5 479.5)" fill="#5F399C"/><path d="M730.04 473.92l-5.68 7.52c2.08.48 3.733 1.44 4.96 2.88 1.253 1.413 1.88 3.147 1.88 5.2 0 2.8-.947 5-2.84 6.6-1.867 1.6-4.187 2.4-6.96 2.4-2.187 0-4.12-.493-5.8-1.48-1.68-1.013-2.88-2.453-3.6-4.32l3.92-2.28c.827 2.4 2.653 3.6 5.48 3.6 1.6 0 2.867-.4 3.8-1.2.933-.827 1.4-1.933 1.4-3.32 0-1.387-.467-2.48-1.4-3.28-.933-.8-2.2-1.2-3.8-1.2h-1.04l-1.84-2.76 6.04-7.96h-11.72V470h17.2v3.92zm9.651 6.64h3.52c2.667 0 4.92.8 6.76 2.4 1.84 1.573 2.76 3.76 2.76 6.56s-.947 5-2.84 6.6c-1.867 1.6-4.187 2.4-6.96 2.4-2.267 0-4.24-.52-5.92-1.56-1.68-1.04-2.88-2.52-3.6-4.44l3.96-2.28c.773 2.533 2.627 3.8 5.56 3.8 1.573 0 2.827-.4 3.76-1.2.96-.827 1.44-1.933 1.44-3.32 0-1.36-.467-2.44-1.4-3.24-.933-.827-2.173-1.24-3.72-1.24h-8.16l1.08-15.04h15.6v4.32h-11.36l-.48 6.24zm26.736-9.24c1.253 1.253 1.88 2.773 1.88 4.56 0 1.787-.627 3.307-1.88 4.56-1.227 1.227-2.774 1.84-4.64 1.84-1.894 0-3.454-.613-4.68-1.84-1.254-1.253-1.88-2.773-1.88-4.56 0-1.76.626-3.267 1.88-4.52 1.253-1.253 2.813-1.88 4.68-1.88 1.866 0 3.413.613 4.64 1.84zm-4.68 7.44c.853 0 1.546-.267 2.08-.8.533-.56.8-1.253.8-2.08 0-.827-.267-1.52-.8-2.08-.534-.56-1.227-.84-2.08-.84-.827 0-1.507.28-2.04.84-.534.56-.8 1.253-.8 2.08 0 .8.266 1.48.8 2.04.56.56 1.24.84 2.04.84zm-2 16.4l-2.16-1.28 18.44-20.52 2.16 1.24-18.44 20.56zm14.84 3.32c-1.894 0-3.454-.613-4.68-1.84-1.254-1.253-1.88-2.773-1.88-4.56 0-1.76.626-3.267 1.88-4.52 1.253-1.253 2.813-1.88 4.68-1.88 1.84 0 3.386.627 4.64 1.88 1.253 1.253 1.88 2.76 1.88 4.52 0 1.787-.627 3.307-1.88 4.56-1.227 1.227-2.774 1.84-4.64 1.84zm-.04-3.52c.853 0 1.546-.267 2.08-.8.533-.56.8-1.253.8-2.08 0-.827-.267-1.52-.8-2.08-.534-.56-1.227-.84-2.08-.84-.827 0-1.507.28-2.04.84-.534.56-.8 1.253-.8 2.08 0 .8.266 1.48.8 2.04.56.56 1.24.84 2.04.84z" fill="#fff"/><path d="M711.21 515.46l2.76-.96h1.2V525h-1.38v-9l-2.235.66-.345-1.2zm11.257 4.11c1.09.56 1.635 1.41 1.635 2.55 0 .96-.335 1.715-1.005 2.265-.68.54-1.545.81-2.595.81-1.05 0-1.91-.27-2.58-.81-.67-.55-1.005-1.305-1.005-2.265 0-1.14.545-1.99 1.635-2.55-.86-.54-1.29-1.305-1.29-2.295 0-.95.315-1.68.945-2.19.64-.52 1.405-.78 2.295-.78.91 0 1.675.26 2.295.78.64.51.96 1.24.96 2.19 0 .99-.43 1.755-1.29 2.295zm-1.965-3.93c-.55 0-1 .145-1.35.435-.34.29-.51.7-.51 1.23 0 .52.175.93.525 1.23.35.3.795.45 1.335.45.54 0 .985-.15 1.335-.45.35-.3.525-.71.525-1.23 0-.53-.17-.94-.51-1.23-.34-.29-.79-.435-1.35-.435zm0 8.22c.68 0 1.22-.16 1.62-.48.4-.32.6-.77.6-1.35 0-.57-.2-1.015-.6-1.335-.4-.32-.94-.48-1.62-.48-.67 0-1.205.16-1.605.48-.4.32-.6.765-.6 1.335 0 .58.2 1.03.6 1.35.4.32.935.48 1.605.48zm17.005-6.555c.85 0 1.53.275 2.04.825.52.55.78 1.285.78 2.205V525h-1.305v-4.62c0-.57-.15-1.015-.45-1.335-.29-.33-.69-.495-1.2-.495-.58 0-1.035.195-1.365.585-.32.38-.48.945-.48 1.695V525h-1.305v-4.62c0-.57-.145-1.015-.435-1.335-.28-.33-.665-.495-1.155-.495-.57 0-1.035.2-1.395.6-.35.39-.525.95-.525 1.68V525h-1.305v-7.5h1.305v1.005c.51-.8 1.255-1.2 2.235-1.2 1.01 0 1.745.425 2.205 1.275.52-.85 1.305-1.275 2.355-1.275zm5.934 7.695h-1.305v-10.95h1.305V525zm5.726-7.695c.88 0 1.585.28 2.115.84.53.55.795 1.3.795 2.25V525h-1.305v-4.53c0-.6-.165-1.07-.495-1.41-.33-.34-.785-.51-1.365-.51-.67 0-1.2.21-1.59.63-.39.41-.585 1.025-.585 1.845V525h-1.305v-7.5h1.305v1.08c.52-.85 1.33-1.275 2.43-1.275zm5.557 7.86a.94.94 0 01-.69-.285.94.94 0 01-.285-.69c0-.27.095-.5.285-.69a.94.94 0 01.69-.285c.28 0 .51.095.69.285.19.19.285.42.285.69 0 .27-.095.5-.285.69a.909.909 0 01-.69.285zm6.573-3.69V514.5h1.395v6.915c0 .75.22 1.34.66 1.77.45.43 1.08.645 1.89.645.81 0 1.435-.215 1.875-.645.45-.43.675-1.02.675-1.77V514.5h1.38v6.975c0 1.14-.365 2.045-1.095 2.715-.73.67-1.675 1.005-2.835 1.005-1.17 0-2.12-.335-2.85-1.005-.73-.67-1.095-1.575-1.095-2.715zm13.398 3.72c-.98 0-1.82-.225-2.52-.675a3.659 3.659 0 01-1.455-1.905l1.2-.69c.4 1.27 1.335 1.905 2.805 1.905.71 0 1.255-.145 1.635-.435.39-.29.585-.685.585-1.185 0-.49-.19-.865-.57-1.125-.34-.23-.975-.495-1.905-.795l-1.005-.33c-.22-.09-.51-.22-.87-.39-.35-.18-.605-.36-.765-.54-.44-.48-.66-1.065-.66-1.755 0-.92.32-1.64.96-2.16.64-.54 1.42-.81 2.34-.81.82 0 1.54.205 2.16.615.62.41 1.085.97 1.395 1.68l-1.17.675c-.45-1.08-1.245-1.62-2.385-1.62-.57 0-1.03.14-1.38.42-.35.28-.525.66-.525 1.14 0 .46.165.81.495 1.05.34.25.91.5 1.71.75l.615.195c.34.13.525.2.555.21.32.12.67.285 1.05.495.27.15.54.38.81.69.35.35.525.875.525 1.575 0 .92-.335 1.655-1.005 2.205-.68.54-1.555.81-2.625.81zm5.208-10.695h4.095c1.42 0 2.605.51 3.555 1.53.95 1.01 1.425 2.25 1.425 3.72 0 1.46-.475 2.705-1.425 3.735-.95 1.01-2.135 1.515-3.555 1.515h-4.095v-10.5zm1.395 9.18h2.7c1.07 0 1.945-.375 2.625-1.125.68-.76 1.02-1.695 1.02-2.805s-.34-2.045-1.02-2.805c-.68-.75-1.555-1.125-2.625-1.125h-2.7v7.86z" fill="#B299DA"/><circle r="2.5" transform="matrix(-1 0 0 1 645.5 24.5)" fill="#EBBE65"/><circle r="2.5" transform="matrix(0 -1 -1 0 549.5 128.5)" fill="#EBBE65"/><circle r="2.5" transform="matrix(-1 0 0 1 637.5 24.5)" fill="#EBBE65"/><circle r="2.5" transform="matrix(0 -1 -1 0 549.5 120.5)" fill="#EBBE65"/><circle r="2.5" transform="matrix(-1 0 0 1 629.5 24.5)" fill="#EBBE65"/><circle r="2.5" transform="matrix(0 -1 -1 0 549.5 112.5)" fill="#EBBE65"/><circle r="2.5" transform="matrix(-1 0 0 1 621.5 24.5)" fill="#EBBE65"/><circle r="2.5" transform="matrix(0 -1 -1 0 549.5 104.5)" fill="#EBBE65"/><circle r="2.5" transform="matrix(-1 0 0 1 613.5 24.5)" fill="#EBBE65"/><circle r="2.5" transform="matrix(0 -1 -1 0 549.5 96.5)" fill="#EBBE65"/><circle r="2.5" transform="matrix(-1 0 0 1 605.5 24.5)" fill="#EBBE65"/><circle r="2.5" transform="matrix(0 -1 -1 0 549.5 88.5)" fill="#EBBE65"/><circle r="2.5" transform="matrix(-1 0 0 1 597.5 24.5)" fill="#EBBE65"/><circle r="2.5" transform="matrix(0 -1 -1 0 549.5 80.5)" fill="#EBBE65"/><circle r="2.5" transform="matrix(-1 0 0 1 589.5 24.5)" fill="#EBBE65"/><circle r="2.5" transform="matrix(0 -1 -1 0 549.5 72.5)" fill="#EBBE65"/><circle r="2.5" transform="matrix(-1 0 0 1 581.5 24.5)" fill="#EBBE65"/><circle r="2.5" transform="matrix(0 -1 -1 0 549.5 64.5)" fill="#EBBE65"/><circle r="2.5" transform="matrix(-1 0 0 1 573.5 24.5)" fill="#EBBE65"/><circle r="2.5" transform="matrix(0 -1 -1 0 549.5 56.5)" fill="#EBBE65"/><circle r="2.5" transform="matrix(-1 0 0 1 565.5 24.5)" fill="#EBBE65"/><circle r="2.5" transform="matrix(0 -1 -1 0 549.5 48.5)" fill="#EBBE65"/><circle r="2.5" transform="matrix(-1 0 0 1 557.5 24.5)" fill="#EBBE65"/><circle r="2.5" transform="matrix(0 -1 -1 0 549.5 40.5)" fill="#EBBE65"/><circle r="2.5" transform="matrix(-1 0 0 1 549.5 24.5)" fill="#EBBE65"/><circle r="2.5" transform="matrix(0 -1 -1 0 549.5 32.5)" fill="#EBBE65"/><path d="M657.52 9.6l7.36-2.6h4v28h-4.6V11.92l-5.64 1.6-1.12-3.92zm35.163 6.44c0 2.133-.56 4.013-1.68 5.64L682.163 35h-5.28l6.4-9.4h-.48c-2.907 0-5.294-.88-7.16-2.64-1.84-1.787-2.76-4.093-2.76-6.92s.92-5.12 2.76-6.88c1.866-1.787 4.253-2.68 7.16-2.68 2.933 0 5.306.893 7.12 2.68 1.84 1.76 2.76 4.053 2.76 6.88zm-15.2 0c0 1.52.493 2.773 1.48 3.76 1.013.96 2.293 1.44 3.84 1.44 1.546 0 2.813-.467 3.8-1.4.986-.96 1.48-2.227 1.48-3.8s-.494-2.827-1.48-3.76c-.987-.96-2.254-1.44-3.8-1.44-1.547 0-2.827.48-3.84 1.44-.987.933-1.48 2.187-1.48 3.76zm29.397-7.72c1.253 1.253 1.88 2.773 1.88 4.56 0 1.787-.627 3.307-1.88 4.56-1.227 1.227-2.774 1.84-4.64 1.84-1.894 0-3.454-.613-4.68-1.84-1.254-1.253-1.88-2.773-1.88-4.56 0-1.76.626-3.267 1.88-4.52 1.253-1.253 2.813-1.88 4.68-1.88 1.866 0 3.413.613 4.64 1.84zm-4.68 7.44c.853 0 1.546-.267 2.08-.8.533-.56.8-1.253.8-2.08 0-.827-.267-1.52-.8-2.08-.534-.56-1.227-.84-2.08-.84-.827 0-1.507.28-2.04.84-.534.56-.8 1.253-.8 2.08 0 .8.266 1.48.8 2.04.56.56 1.24.84 2.04.84zm-2 16.4l-2.16-1.28 18.44-20.52 2.16 1.24-18.44 20.56zm14.84 3.32c-1.894 0-3.454-.613-4.68-1.84-1.254-1.253-1.88-2.773-1.88-4.56 0-1.76.626-3.267 1.88-4.52 1.253-1.253 2.813-1.88 4.68-1.88 1.84 0 3.386.627 4.64 1.88 1.253 1.253 1.88 2.76 1.88 4.52 0 1.787-.627 3.307-1.88 4.56-1.227 1.227-2.774 1.84-4.64 1.84zm-.04-3.52c.853 0 1.546-.267 2.08-.8.533-.56.8-1.253.8-2.08 0-.827-.267-1.52-.8-2.08-.534-.56-1.227-.84-2.08-.84-.827 0-1.507.28-2.04.84-.534.56-.8 1.253-.8 2.08 0 .8.266 1.48.8 2.04.56.56 1.24.84 2.04.84z" fill="#fff"/><path d="M642.32 62h-6.78v-1.14l3.705-3.78c.99-.99 1.485-1.84 1.485-2.55 0-.58-.18-1.035-.54-1.365-.35-.34-.79-.51-1.32-.51-.99 0-1.71.47-2.16 1.41l-1.17-.69c.32-.67.77-1.18 1.35-1.53a3.65 3.65 0 011.965-.54c.89 0 1.655.29 2.295.87.65.59.975 1.37.975 2.34 0 1.06-.625 2.215-1.875 3.465l-2.685 2.67h4.755V62zm2.03-1.545h1.5l-.975 3.645h-1.125l.6-3.645zm2.624-7.635V51.5h6.555v1.245L649.704 62h-1.455l3.795-9.18h-5.07zm19.924 1.485c.85 0 1.53.275 2.04.825.52.55.78 1.285.78 2.205V62h-1.305v-4.62c0-.57-.15-1.015-.45-1.335-.29-.33-.69-.495-1.2-.495-.58 0-1.035.195-1.365.585-.32.38-.48.945-.48 1.695V62h-1.305v-4.62c0-.57-.145-1.015-.435-1.335-.28-.33-.665-.495-1.155-.495-.57 0-1.035.2-1.395.6-.35.39-.525.95-.525 1.68V62h-1.305v-7.5h1.305v1.005c.51-.8 1.255-1.2 2.235-1.2 1.01 0 1.745.425 2.205 1.275.52-.85 1.305-1.275 2.355-1.275zM672.832 62h-1.305V51.05h1.305V62zm5.726-7.695c.88 0 1.585.28 2.115.84.53.55.795 1.3.795 2.25V62h-1.305v-4.53c0-.6-.165-1.07-.495-1.41-.33-.34-.785-.51-1.365-.51-.67 0-1.2.21-1.59.63-.39.41-.585 1.025-.585 1.845V62h-1.305v-7.5h1.305v1.08c.52-.85 1.33-1.275 2.43-1.275zm5.557 7.86a.94.94 0 01-.69-.285.94.94 0 01-.285-.69c0-.27.095-.5.285-.69a.94.94 0 01.69-.285c.28 0 .51.095.69.285.19.19.285.42.285.69 0 .27-.095.5-.285.69a.909.909 0 01-.69.285zm6.572-3.69V51.5h1.395v6.915c0 .75.22 1.34.66 1.77.45.43 1.08.645 1.89.645.81 0 1.435-.215 1.875-.645.45-.43.675-1.02.675-1.77V51.5h1.38v6.975c0 1.14-.365 2.045-1.095 2.715-.73.67-1.675 1.005-2.835 1.005-1.17 0-2.12-.335-2.85-1.005-.73-.67-1.095-1.575-1.095-2.715zm13.398 3.72c-.98 0-1.82-.225-2.52-.675a3.659 3.659 0 01-1.455-1.905l1.2-.69c.4 1.27 1.335 1.905 2.805 1.905.71 0 1.255-.145 1.635-.435.39-.29.585-.685.585-1.185 0-.49-.19-.865-.57-1.125-.34-.23-.975-.495-1.905-.795l-1.005-.33c-.22-.09-.51-.22-.87-.39-.35-.18-.605-.36-.765-.54-.44-.48-.66-1.065-.66-1.755 0-.92.32-1.64.96-2.16.64-.54 1.42-.81 2.34-.81.82 0 1.54.205 2.16.615.62.41 1.085.97 1.395 1.68l-1.17.675c-.45-1.08-1.245-1.62-2.385-1.62-.57 0-1.03.14-1.38.42-.35.28-.525.66-.525 1.14 0 .46.165.81.495 1.05.34.25.91.5 1.71.75l.615.195c.34.13.525.2.555.21.32.12.67.285 1.05.495.27.15.54.38.81.69.35.35.525.875.525 1.575 0 .92-.335 1.655-1.005 2.205-.68.54-1.555.81-2.625.81zm5.209-10.695h4.095c1.42 0 2.605.51 3.555 1.53.95 1.01 1.425 2.25 1.425 3.72 0 1.46-.475 2.705-1.425 3.735-.95 1.01-2.135 1.515-3.555 1.515h-4.095V51.5zm1.395 9.18h2.7c1.07 0 1.945-.375 2.625-1.125.68-.76 1.02-1.695 1.02-2.805s-.34-2.045-1.02-2.805c-.68-.75-1.555-1.125-2.625-1.125h-2.7v7.86z" fill="#B299DA"/><path d="M235.68 476.197v-29.915l358.982-180.95s18.411 14.377 33.507 37.229l19.027 21.142.256 32.871c.102 2.155.121 4.332.051 6.529-1.06 33.176-22.531 70.875-88.593 106.527-137.902 74.423-323.23 6.567-323.23 6.567z" fill="url(#paint0_linear)"/><path d="M235.68 476.197v-29.915l358.982-180.95s18.411 14.377 33.507 37.229l19.027 21.142.256 32.871c.102 2.155.121 4.332.051 6.529-1.06 33.176-22.531 70.875-88.593 106.527-137.902 74.423-323.23 6.567-323.23 6.567z" fill="url(#paint1_linear)"/><path d="M388.904 325.891L235.68 445.552s185.328 67.856 323.23-6.567c175.843-94.899 35.752-204.298 35.752-204.298l-205.758 91.204z" fill="url(#paint2_linear)"/><path d="M131.342 370.399v-68.586c5.258 46.218 37.776 71.956 104.338 113.824v59.83c-67.856-23.348-104.338-86.097-104.338-105.068z" fill="#0195AA"/><path d="M131.342 370.399v-68.586c5.258 46.218 37.776 71.956 104.338 113.824v59.83c-67.856-23.348-104.338-86.097-104.338-105.068z" fill="url(#paint3_linear)"/><path d="M388.904 325.892L235.68 445.552v-29.915l153.224-121.12v31.375z" fill="url(#paint4_linear)"/><path d="M388.904 325.892L235.68 445.552v-29.915l153.224-121.12v31.375z" fill="url(#paint5_linear)"/><path d="M207.954 189.449l180.95 105.068-153.224 121.12s-95.049-45.978-103.608-102.15c-11.675-76.612 75.882-124.038 75.882-124.038z" fill="url(#paint6_linear)"/><path d="M499.809 129.618c-116.012-27.726-216.702-13.133-291.855 29.186l180.95 105.797 110.905-134.983z" fill="url(#paint7_linear)"/><path d="M388.904 233.228v92.664l205.758-91.205v-91.935l-205.758 90.476z" fill="url(#paint8_linear)"/><path d="M388.904 233.228v92.664l205.758-91.205v-91.935l-205.758 90.476z" fill="url(#paint9_linear)"/><path d="M523.888 107L388.904 233.227l205.758-90.475c-27.254-17.682-42.723-25.773-70.774-35.752z" fill="url(#paint10_linear)"/><path d="M207.954 158.804v30.645l180.95 105.068v-29.915l-180.95-105.798z" fill="url(#paint11_linear)"/><path d="M207.954 158.804v30.645l180.95 105.068v-29.915l-180.95-105.798z" fill="url(#paint12_linear)"/><defs><linearGradient id="paint1_linear" x1="326" y1="353.5" x2="404" y2="567.5" gradientUnits="userSpaceOnUse"><stop stop-color="#663DA8"/><stop offset="1" stop-color="#352057"/></linearGradient><linearGradient id="paint6_linear" x1="388.904" y1="303.272" x2="142.287" y2="303.272" gradientUnits="userSpaceOnUse"><stop stop-color="#E4AEE4"/><stop offset="1" stop-color="#A357A3"/></linearGradient><linearGradient id="paint2_linear" x1="647.196" y1="302.543" x2="247.355" y2="447.741" gradientUnits="userSpaceOnUse"><stop stop-color="#663DA8"/><stop offset="1" stop-color="#352057"/></linearGradient><linearGradient id="paint3_linear" x1="228.5" y1="307.5" x2="135.908" y2="389.201" gradientUnits="userSpaceOnUse"><stop stop-color="#E4AEE4"/><stop offset="1" stop-color="#A357A3"/></linearGradient><linearGradient id="paint4_linear" x1="393.282" y1="301.813" x2="235.68" y2="444.093" gradientUnits="userSpaceOnUse"><stop stop-color="#00C7C3"/><stop offset="1" stop-color="#01AAC5"/></linearGradient><linearGradient id="paint5_linear" x1="388.904" y1="385.943" x2="242.386" y2="385.943" gradientUnits="userSpaceOnUse"><stop stop-color="#E4AEE4"/><stop offset="1" stop-color="#A357A3"/></linearGradient><linearGradient id="paint0_linear" x1="647.196" y1="354.347" x2="252.462" y2="474.738" gradientUnits="userSpaceOnUse"><stop stop-color="#BC02AD"/><stop offset="1" stop-color="#400EBB"/></linearGradient><linearGradient id="paint7_linear" x1="353.882" y1="115.432" x2="353.882" y2="264.602" gradientUnits="userSpaceOnUse"><stop stop-color="#C9B2EF"/><stop offset="1" stop-color="#543784"/></linearGradient><linearGradient id="paint8_linear" x1="594.662" y1="190.179" x2="388.904" y2="279.924" gradientUnits="userSpaceOnUse"><stop stop-color="#FFA901"/><stop offset="1" stop-color="#FF8D00"/></linearGradient><linearGradient id="paint9_linear" x1="491.783" y1="142.752" x2="491.783" y2="325.892" gradientUnits="userSpaceOnUse"><stop stop-color="#FAD48A"/><stop offset="1" stop-color="#DAA236"/></linearGradient><linearGradient id="paint10_linear" x1="491.783" y1="107" x2="491.783" y2="233.227" gradientUnits="userSpaceOnUse"><stop stop-color="#FAD48A"/><stop offset="1" stop-color="#DAA236"/></linearGradient><linearGradient id="paint11_linear" x1="207.954" y1="168.29" x2="385.986" y2="288.68" gradientUnits="userSpaceOnUse"><stop stop-color="#C201A7"/><stop offset="1" stop-color="#FC2801"/></linearGradient><linearGradient id="paint12_linear" x1="298.429" y1="158.804" x2="298.429" y2="294.517" gradientUnits="userSpaceOnUse"><stop stop-color="#C9B2EF"/><stop offset="1" stop-color="#543784"/></linearGradient></defs></svg>