<svg width="301" height="266" fill="none" xmlns="http://www.w3.org/2000/svg"><circle cx="62.478" cy="16.252" r="1.113" fill="#8A70B5"/><circle cx="105.223" cy="62.559" r="1.113" transform="rotate(-90 105.223 62.559)" fill="#8A70B5"/><circle cx="66.04" cy="16.252" r="1.113" fill="#8A70B5"/><circle cx="105.223" cy="58.996" r="1.113" transform="rotate(-90 105.223 58.996)" fill="#8A70B5"/><circle cx="69.602" cy="16.252" r="1.113" fill="#8A70B5"/><circle cx="105.223" cy="55.434" r="1.113" transform="rotate(-90 105.223 55.434)" fill="#8A70B5"/><circle cx="73.164" cy="16.252" r="1.113" fill="#8A70B5"/><circle cx="105.223" cy="51.872" r="1.113" transform="rotate(-90 105.223 51.872)" fill="#8A70B5"/><circle cx="76.726" cy="16.252" r="1.113" fill="#8A70B5"/><circle cx="105.223" cy="48.31" r="1.113" transform="rotate(-90 105.223 48.31)" fill="#8A70B5"/><circle cx="80.288" cy="16.252" r="1.113" fill="#8A70B5"/><circle cx="105.223" cy="44.748" r="1.113" transform="rotate(-90 105.223 44.748)" fill="#8A70B5"/><circle cx="83.85" cy="16.252" r="1.113" fill="#8A70B5"/><circle cx="105.223" cy="41.186" r="1.113" transform="rotate(-90 105.223 41.186)" fill="#8A70B5"/><circle cx="87.412" cy="16.252" r="1.113" fill="#8A70B5"/><circle cx="105.223" cy="37.624" r="1.113" transform="rotate(-90 105.223 37.624)" fill="#8A70B5"/><circle cx="90.975" cy="16.252" r="1.113" fill="#8A70B5"/><circle cx="105.223" cy="34.062" r="1.113" transform="rotate(-90 105.223 34.062)" fill="#8A70B5"/><circle cx="94.537" cy="16.252" r="1.113" fill="#8A70B5"/><circle cx="105.223" cy="30.5" r="1.113" transform="rotate(-90 105.223 30.5)" fill="#8A70B5"/><circle cx="98.099" cy="16.252" r="1.113" fill="#8A70B5"/><circle cx="105.223" cy="26.938" r="1.113" transform="rotate(-90 105.223 26.938)" fill="#8A70B5"/><circle cx="101.66" cy="16.252" r="1.113" fill="#8A70B5"/><circle cx="105.223" cy="23.376" r="1.113" transform="rotate(-90 105.223 23.376)" fill="#8A70B5"/><circle cx="105.223" cy="16.252" r="1.113" fill="#8A70B5"/><circle cx="105.223" cy="19.814" r="1.113" transform="rotate(-90 105.223 19.814)" fill="#8A70B5"/><path d="M35.398 20.233h-7.376v-1.44l3.904-3.983c.949-.95 1.424-1.771 1.424-2.465 0-.533-.16-.954-.48-1.264-.32-.309-.736-.463-1.248-.463-.939 0-1.632.463-2.08 1.391l-1.552-.912c.341-.736.832-1.295 1.472-1.68a4.003 4.003 0 012.144-.591c.992 0 1.834.309 2.528.928.704.629 1.056 1.472 1.056 2.527 0 1.131-.635 2.347-1.904 3.649l-2.528 2.527h4.64v1.776zm4.522-7.44h.208c1.173 0 2.123.358 2.848 1.073.736.704 1.104 1.62 1.104 2.752 0 1.12-.368 2.042-1.104 2.768-.736.704-1.685 1.056-2.848 1.056-1.173 0-2.128-.352-2.864-1.056-.736-.726-1.104-1.648-1.104-2.768 0-.854.224-1.606.672-2.256l3.552-5.328h2.096l-2.56 3.76zm.208 5.905c.619 0 1.125-.187 1.52-.56.395-.385.592-.891.592-1.52 0-.63-.197-1.131-.592-1.504-.395-.385-.901-.577-1.52-.577-.64 0-1.157.192-1.552.576-.384.374-.576.875-.576 1.505 0 .629.192 1.136.576 1.52.395.373.912.56 1.552.56zm9.146-9.136c.502.5.752 1.109.752 1.824 0 .714-.25 1.322-.752 1.824-.49.49-1.109.735-1.856.735-.757 0-1.38-.245-1.872-.736a2.484 2.484 0 01-.752-1.823c0-.704.251-1.307.752-1.808.502-.502 1.126-.752 1.872-.752.747 0 1.366.245 1.856.736zm-1.872 2.976c.342 0 .62-.107.832-.32a1.16 1.16 0 00.32-.832c0-.331-.106-.608-.32-.832-.213-.225-.49-.337-.832-.337-.33 0-.602.112-.816.336a1.16 1.16 0 00-.32.832c0 .32.107.592.32.816.224.224.496.336.816.336zm-.8 6.56l-.864-.512 7.376-8.208.864.495-7.376 8.225zm5.936 1.328c-.757 0-1.38-.246-1.872-.736a2.484 2.484 0 01-.752-1.825c0-.703.251-1.306.752-1.807.502-.502 1.126-.752 1.872-.752.736 0 1.355.25 1.856.752.502.5.752 1.104.752 1.808a2.48 2.48 0 01-.752 1.823c-.49.491-1.109.736-1.856.736zm-.016-1.409c.342 0 .62-.106.832-.32a1.16 1.16 0 00.32-.831c0-.331-.106-.608-.32-.832-.213-.224-.49-.336-.832-.336-.33 0-.602.111-.816.335a1.16 1.16 0 00-.32.832c0 .32.107.593.32.817.224.224.496.335.816.335z" fill="#fff"/><path d="M28.912 30.151h.56v4.9h-.644v-4.2l-1.043.308-.161-.56 1.288-.448zm3.32 2.01c.374.07.68.23.918.482s.357.572.357.96c0 .475-.164.851-.49 1.126-.327.276-.724.413-1.19.413a1.94 1.94 0 01-.994-.252 1.422 1.422 0 01-.616-.742l.546-.322c.144.453.5.68 1.064.68.303 0 .55-.08.742-.239.191-.158.287-.38.287-.665 0-.284-.096-.506-.287-.665-.192-.163-.439-.245-.742-.245h-.168l-.26-.399 1.135-1.533h-2.177v-.609h2.94v.574l-1.064 1.435zm2.77 2.17l-.455 1.7h-.525l.28-1.7h.7zm3.785.118c-.332.462-.796.693-1.393.693-.598 0-1.062-.23-1.393-.693-.332-.462-.497-1.078-.497-1.848s.165-1.386.497-1.848c.331-.462.795-.693 1.393-.693.597 0 1.061.231 1.393.693.331.462.497 1.078.497 1.848s-.166 1.386-.497 1.848zm-2.31-.44c.214.33.52.496.917.496.396 0 .702-.165.917-.497.22-.33.329-.8.329-1.407 0-.606-.11-1.075-.33-1.407a1.027 1.027 0 00-.916-.504 1.03 1.03 0 00-.917.497c-.215.332-.322.803-.322 1.414 0 .607.107 1.076.322 1.407zm5.169-1.849c.373.07.679.231.917.483s.357.572.357.96c0 .475-.163.851-.49 1.126-.327.276-.724.413-1.19.413-.373 0-.705-.084-.994-.252a1.423 1.423 0 01-.616-.742l.546-.322c.145.453.5.68 1.064.68.303 0 .55-.08.742-.239.191-.158.287-.38.287-.665 0-.284-.096-.506-.287-.665-.191-.163-.439-.245-.742-.245h-.168l-.26-.399 1.135-1.533H39.77v-.609h2.94v.574l-1.064 1.435zm7.526-.7c.392 0 .71.129.952.385.243.252.364.595.364 1.03v2.176h-.61v-2.156c0-.27-.07-.48-.21-.63a.731.731 0 00-.56-.224.805.805 0 00-.63.266c-.153.173-.23.44-.23.798v1.946h-.61v-2.156c0-.27-.067-.48-.202-.63-.13-.149-.31-.224-.54-.224a.863.863 0 00-.643.266c-.168.178-.252.444-.252.798v1.946h-.61v-3.5h.61v.47c.238-.374.586-.56 1.043-.56.471 0 .814.198 1.029.594.243-.396.609-.595 1.099-.595zm2.16 3.591v-5.11h.61v5.11h-.61zm3.281-3.59c.411 0 .74.13.987.391.248.257.371.607.371 1.05v2.15h-.609v-2.115c0-.284-.077-.504-.23-.658-.155-.158-.367-.238-.638-.238-.303 0-.548.096-.735.287-.186.187-.28.476-.28.868v1.855h-.609v-3.5h.61v.504c.247-.396.625-.595 1.133-.595zm2.594 3.667a.439.439 0 01-.322-.133.439.439 0 01-.133-.322c0-.126.044-.233.133-.322a.439.439 0 01.322-.133c.13 0 .238.045.322.133a.439.439 0 01.133.322.439.439 0 01-.133.322.424.424 0 01-.322.133zm6.23-.455c-.34.313-.78.47-1.322.47s-.985-.157-1.33-.47c-.34-.317-.511-.74-.511-1.267v-3.255h.65v3.227c0 .346.103.621.309.826.205.201.5.301.882.301s.676-.1.882-.3c.205-.206.308-.481.308-.827v-3.227h.644v3.255c0 .528-.17.95-.511 1.267zm3.09.47c-.458 0-.85-.108-1.177-.323a1.71 1.71 0 01-.679-.882l.56-.322c.192.593.628.89 1.31.89.335 0 .592-.068.77-.204a.67.67 0 00.265-.553c0-.233-.088-.408-.266-.525-.177-.116-.474-.24-.889-.37a19.968 19.968 0 01-.469-.155 5.857 5.857 0 01-.406-.182 1.382 1.382 0 01-.357-.252 1.4 1.4 0 01-.217-.343 1.186 1.186 0 01-.09-.476c0-.424.148-.76.447-1.008.299-.252.663-.378 1.092-.378.387 0 .723.098 1.008.294.29.196.507.455.651.777l-.546.315c-.21-.504-.58-.756-1.113-.756-.266 0-.48.066-.644.196a.645.645 0 00-.245.532c0 .215.077.378.231.49.154.112.42.23.798.35l.287.091c.056.02.142.052.26.098.12.047.21.084.265.112.056.028.13.068.224.12.098.05.17.1.217.146.047.047.1.105.161.175a.612.612 0 01.14.203c.028.07.052.152.07.245.023.09.035.185.035.287 0 .43-.156.773-.469 1.03-.313.251-.72.377-1.225.377zm4.34-4.992c.668 0 1.221.238 1.66.714.443.472.665 1.05.665 1.736 0 .686-.222 1.267-.665 1.743-.439.472-.992.707-1.66.707h-1.91v-4.9h1.91zm0 4.284c.5 0 .909-.175 1.226-.525.317-.35.476-.786.476-1.309 0-.522-.159-.959-.476-1.309-.317-.35-.726-.525-1.225-.525h-1.26v3.668h1.26z" fill="#B299DA"/><circle r="1.113" transform="matrix(1 0 0 -1 35.843 230.419)" fill="#B069B0"/><circle r="1.113" transform="matrix(0 1 1 0 78.588 184.113)" fill="#B069B0"/><circle r="1.113" transform="matrix(1 0 0 -1 39.405 230.42)" fill="#B069B0"/><circle r="1.113" transform="matrix(0 1 1 0 78.588 187.675)" fill="#B069B0"/><circle r="1.113" transform="matrix(1 0 0 -1 42.967 230.42)" fill="#B069B0"/><circle r="1.113" transform="matrix(0 1 1 0 78.588 191.237)" fill="#B069B0"/><circle r="1.113" transform="matrix(1 0 0 -1 46.53 230.42)" fill="#B069B0"/><circle r="1.113" transform="matrix(0 1 1 0 78.588 194.799)" fill="#B069B0"/><circle r="1.113" transform="matrix(1 0 0 -1 50.091 230.42)" fill="#B069B0"/><circle r="1.113" transform="matrix(0 1 1 0 78.588 198.361)" fill="#B069B0"/><circle r="1.113" transform="matrix(1 0 0 -1 53.653 230.42)" fill="#B069B0"/><circle r="1.113" transform="matrix(0 1 1 0 78.588 201.923)" fill="#B069B0"/><circle r="1.113" transform="matrix(1 0 0 -1 57.215 230.42)" fill="#B069B0"/><circle r="1.113" transform="matrix(0 1 1 0 78.588 205.485)" fill="#B069B0"/><circle r="1.113" transform="matrix(1 0 0 -1 60.777 230.42)" fill="#B069B0"/><circle r="1.113" transform="matrix(0 1 1 0 78.588 209.047)" fill="#B069B0"/><circle r="1.113" transform="matrix(1 0 0 -1 64.34 230.42)" fill="#B069B0"/><circle r="1.113" transform="matrix(0 1 1 0 78.588 212.609)" fill="#B069B0"/><circle r="1.113" transform="matrix(1 0 0 -1 67.901 230.42)" fill="#B069B0"/><circle r="1.113" transform="matrix(0 1 1 0 78.588 216.171)" fill="#B069B0"/><circle r="1.113" transform="matrix(1 0 0 -1 71.463 230.42)" fill="#B069B0"/><circle r="1.113" transform="matrix(0 1 1 0 78.588 219.734)" fill="#B069B0"/><circle r="1.113" transform="matrix(1 0 0 -1 75.025 230.42)" fill="#B069B0"/><circle r="1.113" transform="matrix(0 1 1 0 78.588 223.296)" fill="#B069B0"/><circle r="1.113" transform="matrix(1 0 0 -1 78.588 230.42)" fill="#B069B0"/><circle r="1.113" transform="matrix(0 1 1 0 78.588 226.858)" fill="#B069B0"/><path d="M7.616 223.879l-2.272 3.008c.832.192 1.493.576 1.984 1.152.501.565.752 1.259.752 2.08 0 1.12-.379 2-1.136 2.64-.747.64-1.675.96-2.784.96-.875 0-1.648-.197-2.32-.592a3.378 3.378 0 01-1.44-1.728l1.568-.912c.33.96 1.061 1.44 2.192 1.44.64 0 1.147-.16 1.52-.48.373-.331.56-.773.56-1.328s-.187-.992-.56-1.312c-.373-.32-.88-.48-1.52-.48h-.416l-.736-1.104 2.416-3.184H.736v-1.728h6.88v1.568zm8.74 9.632H8.98v-1.44l3.904-3.984c.95-.949 1.424-1.771 1.424-2.464 0-.533-.16-.955-.48-1.264-.32-.309-.736-.464-1.248-.464-.938 0-1.632.464-2.08 1.392l-1.552-.912c.342-.736.832-1.296 1.472-1.68a4 4 0 012.144-.592c.992 0 1.835.309 2.528.928.704.629 1.056 1.472 1.056 2.528 0 1.131-.634 2.347-1.904 3.648l-2.528 2.528h4.64v1.776zm5.72-10.672c.502.501.753 1.109.753 1.824a2.48 2.48 0 01-.752 1.824c-.49.491-1.11.736-1.856.736-.758 0-1.381-.245-1.872-.736a2.482 2.482 0 01-.752-1.824c0-.704.25-1.307.752-1.808.501-.501 1.125-.752 1.872-.752.747 0 1.365.245 1.856.736zm-1.871 2.976c.341 0 .619-.107.832-.32a1.16 1.16 0 00.32-.832 1.16 1.16 0 00-.32-.832c-.213-.224-.49-.336-.832-.336-.33 0-.603.112-.816.336a1.16 1.16 0 00-.32.832c0 .32.107.592.32.816.224.224.496.336.816.336zm-.8 6.56l-.864-.512 7.376-8.208.864.496-7.376 8.224zm5.936 1.328c-.758 0-1.382-.245-1.872-.736a2.482 2.482 0 01-.752-1.824c0-.704.25-1.307.752-1.808.501-.501 1.125-.752 1.872-.752.736 0 1.354.251 1.856.752.501.501.752 1.104.752 1.808a2.48 2.48 0 01-.752 1.824c-.49.491-1.11.736-1.856.736zm-.016-1.408c.341 0 .619-.107.832-.32a1.16 1.16 0 00.32-.832 1.16 1.16 0 00-.32-.832c-.213-.224-.49-.336-.832-.336-.33 0-.603.112-.816.336a1.16 1.16 0 00-.32.832c0 .32.107.592.32.816.224.224.496.336.816.336z" fill="#fff"/><path d="M1.386 243.429h.56v4.9h-.644v-4.2l-1.043.308-.161-.56 1.288-.448zm5.022 3.36v.609h-.595v.931h-.65v-.931h-2.5v-.609l1.757-3.36h.7l-1.757 3.36h1.8v-1.386h.65v1.386h.595zm1.52.819l-.455 1.701h-.525l.28-1.701h.7zm.524-4.179h3.06v.581l-1.786 4.319h-.679l1.771-4.284H8.452v-.616zm9.298 1.309c.392 0 .71.128.952.385.242.252.364.595.364 1.029v2.177h-.61v-2.156c0-.271-.07-.481-.21-.63a.729.729 0 00-.56-.224.802.802 0 00-.63.266c-.153.172-.23.438-.23.798v1.946h-.61v-2.156c0-.271-.067-.481-.202-.63-.13-.15-.31-.224-.54-.224a.86.86 0 00-.643.266c-.168.177-.252.443-.252.798v1.946h-.61v-3.5h.61v.469c.238-.374.585-.56 1.043-.56.471 0 .814.198 1.029.595.242-.397.609-.595 1.099-.595zm2.16 3.591v-5.11h.61v5.11h-.61zm3.281-3.591c.411 0 .74.13.987.392.248.256.371.606.371 1.05v2.149h-.609v-2.114c0-.285-.077-.504-.23-.658-.155-.159-.367-.238-.638-.238-.303 0-.548.095-.735.287-.186.186-.28.476-.28.868v1.855h-.609v-3.5h.61v.504c.247-.397.625-.595 1.133-.595zm2.594 3.668a.441.441 0 01-.323-.133.439.439 0 01-.133-.322.44.44 0 01.133-.322.437.437 0 01.323-.133c.13 0 .238.044.322.133a.437.437 0 01.133.322.439.439 0 01-.133.322.426.426 0 01-.322.133zm6.23-.455c-.34.312-.781.469-1.322.469-.542 0-.985-.157-1.33-.469-.341-.318-.511-.74-.511-1.267v-3.255h.65v3.227c0 .345.103.62.309.826.205.2.499.301.882.301.382 0 .676-.101.882-.301.205-.206.308-.481.308-.826v-3.227h.644v3.255c0 .527-.17.949-.511 1.267zm3.09.469c-.458 0-.85-.108-1.177-.322a1.711 1.711 0 01-.679-.882l.56-.322c.191.592.628.889 1.31.889.335 0 .592-.068.77-.203a.671.671 0 00.265-.553c0-.234-.089-.409-.266-.525-.177-.117-.474-.241-.889-.371a25.975 25.975 0 01-.469-.154 5.983 5.983 0 01-.406-.182 1.382 1.382 0 01-.357-.252 1.403 1.403 0 01-.217-.343 1.187 1.187 0 01-.09-.476c0-.425.148-.761.447-1.008.299-.252.663-.378 1.092-.378.387 0 .723.098 1.008.294.29.196.506.455.651.777l-.546.315c-.21-.504-.58-.756-1.113-.756-.266 0-.48.065-.644.196a.644.644 0 00-.245.532c0 .214.077.378.231.49.154.112.42.228.798.35a4.72 4.72 0 01.547.189 3.078 3.078 0 01.49.231c.097.051.17.1.216.147.047.046.1.105.161.175a.609.609 0 01.14.203c.028.07.051.151.07.245.023.088.035.184.035.287 0 .429-.156.772-.469 1.029-.313.252-.72.378-1.225.378zm4.34-4.991c.668 0 1.221.238 1.66.714.443.471.665 1.05.665 1.736 0 .686-.222 1.267-.665 1.743-.439.471-.992.707-1.66.707h-1.91v-4.9h1.91zm0 4.284c.5 0 .908-.175 1.226-.525.317-.35.476-.787.476-1.309 0-.523-.159-.959-.476-1.309-.318-.35-.726-.525-1.225-.525h-1.26v3.668h1.26z" fill="#B299DA"/><circle cx="238.858" cy="242.419" r="1.113" transform="rotate(-180 238.858 242.419)" fill="#5F399C"/><circle cx="196.113" cy="196.113" r="1.113" transform="rotate(90 196.113 196.113)" fill="#5F399C"/><circle cx="235.296" cy="242.42" r="1.113" transform="rotate(-180 235.296 242.42)" fill="#5F399C"/><circle cx="196.113" cy="199.675" r="1.113" transform="rotate(90 196.113 199.675)" fill="#5F399C"/><circle cx="231.734" cy="242.42" r="1.113" transform="rotate(-180 231.734 242.42)" fill="#5F399C"/><circle cx="196.113" cy="203.237" r="1.113" transform="rotate(90 196.113 203.237)" fill="#5F399C"/><circle cx="228.171" cy="242.42" r="1.113" transform="rotate(-180 228.171 242.42)" fill="#5F399C"/><circle cx="196.113" cy="206.799" r="1.113" transform="rotate(90 196.113 206.799)" fill="#5F399C"/><circle cx="224.609" cy="242.42" r="1.113" transform="rotate(-180 224.609 242.42)" fill="#5F399C"/><circle cx="196.113" cy="210.361" r="1.113" transform="rotate(90 196.113 210.361)" fill="#5F399C"/><circle cx="221.047" cy="242.42" r="1.113" transform="rotate(-180 221.047 242.42)" fill="#5F399C"/><circle cx="196.113" cy="213.923" r="1.113" transform="rotate(90 196.113 213.923)" fill="#5F399C"/><circle cx="217.485" cy="242.42" r="1.113" transform="rotate(-180 217.485 242.42)" fill="#5F399C"/><circle cx="196.113" cy="217.485" r="1.113" transform="rotate(90 196.113 217.485)" fill="#5F399C"/><circle cx="213.923" cy="242.42" r="1.113" transform="rotate(-180 213.923 242.42)" fill="#5F399C"/><circle cx="196.113" cy="221.047" r="1.113" transform="rotate(90 196.113 221.047)" fill="#5F399C"/><circle cx="210.361" cy="242.42" r="1.113" transform="rotate(-180 210.361 242.42)" fill="#5F399C"/><circle cx="196.113" cy="224.609" r="1.113" transform="rotate(90 196.113 224.609)" fill="#5F399C"/><circle cx="206.799" cy="242.42" r="1.113" transform="rotate(-180 206.799 242.42)" fill="#5F399C"/><circle cx="196.113" cy="228.171" r="1.113" transform="rotate(90 196.113 228.171)" fill="#5F399C"/><circle cx="203.237" cy="242.42" r="1.113" transform="rotate(-180 203.237 242.42)" fill="#5F399C"/><circle cx="196.113" cy="231.734" r="1.113" transform="rotate(90 196.113 231.734)" fill="#5F399C"/><circle cx="199.675" cy="242.42" r="1.113" transform="rotate(-180 199.675 242.42)" fill="#5F399C"/><circle cx="196.113" cy="235.296" r="1.113" transform="rotate(90 196.113 235.296)" fill="#5F399C"/><circle cx="196.113" cy="242.42" r="1.113" transform="rotate(-180 196.113 242.42)" fill="#5F399C"/><circle cx="196.113" cy="238.858" r="1.113" transform="rotate(90 196.113 238.858)" fill="#5F399C"/><path d="M249.368 235.879l-2.272 3.008c.832.192 1.493.576 1.984 1.152.501.565.752 1.259.752 2.08 0 1.12-.379 2-1.136 2.64-.747.64-1.675.96-2.784.96-.875 0-1.648-.197-2.32-.592a3.378 3.378 0 01-1.44-1.728l1.568-.912c.33.96 1.061 1.44 2.192 1.44.64 0 1.146-.16 1.52-.48.373-.331.56-.773.56-1.328s-.187-.992-.56-1.312c-.374-.32-.88-.48-1.52-.48h-.416l-.736-1.104 2.416-3.184h-4.688v-1.728h6.88v1.568zm3.86 2.656h1.408c1.067 0 1.968.32 2.704.96.736.629 1.104 1.504 1.104 2.624s-.379 2-1.136 2.64c-.747.64-1.675.96-2.784.96-.907 0-1.696-.208-2.368-.624-.672-.416-1.152-1.008-1.44-1.776l1.584-.912c.309 1.013 1.051 1.52 2.224 1.52.629 0 1.131-.16 1.504-.48.384-.331.576-.773.576-1.328 0-.544-.187-.976-.56-1.296-.373-.331-.869-.496-1.488-.496h-3.264l.432-6.016h6.24v1.728h-4.544l-.192 2.496zm10.694-3.696a2.48 2.48 0 01.752 1.824 2.48 2.48 0 01-.752 1.824c-.49.491-1.109.736-1.856.736-.757 0-1.381-.245-1.872-.736a2.484 2.484 0 01-.752-1.824c0-.704.251-1.307.752-1.808.502-.501 1.126-.752 1.872-.752.747 0 1.366.245 1.856.736zm-1.872 2.976c.342 0 .619-.107.832-.32.214-.224.32-.501.32-.832 0-.331-.106-.608-.32-.832-.213-.224-.49-.336-.832-.336-.33 0-.602.112-.816.336a1.16 1.16 0 00-.32.832c0 .32.107.592.32.816.224.224.496.336.816.336zm-.8 6.56l-.864-.512 7.376-8.208.864.496-7.376 8.224zm5.936 1.328c-.757 0-1.381-.245-1.872-.736a2.484 2.484 0 01-.752-1.824c0-.704.251-1.307.752-1.808.502-.501 1.126-.752 1.872-.752.736 0 1.355.251 1.856.752.502.501.752 1.104.752 1.808a2.48 2.48 0 01-.752 1.824c-.49.491-1.109.736-1.856.736zm-.016-1.408c.342 0 .619-.107.832-.32.214-.224.32-.501.32-.832 0-.331-.106-.608-.32-.832-.213-.224-.49-.336-.832-.336-.33 0-.602.112-.816.336a1.16 1.16 0 00-.32.832c0 .32.107.592.32.816.224.224.496.336.816.336z" fill="#fff"/><path d="M244.138 253.429h.56v4.9h-.644v-4.2l-1.043.308-.161-.56 1.288-.448zm3.965 2.366c.238.121.425.284.56.49.135.205.203.438.203.7 0 .448-.156.8-.469 1.057-.313.252-.716.378-1.211.378-.49 0-.891-.126-1.204-.378-.313-.257-.469-.609-.469-1.057 0-.262.068-.495.203-.7.135-.206.322-.369.56-.49-.401-.252-.602-.609-.602-1.071 0-.444.147-.784.441-1.022a1.644 1.644 0 011.071-.364c.42 0 .777.121 1.071.364.299.238.448.578.448 1.022 0 .462-.201.819-.602 1.071zm-.917-1.834a.983.983 0 00-.623.196c-.163.13-.245.324-.245.581 0 .247.084.441.252.581a.952.952 0 00.616.203.952.952 0 00.616-.203c.168-.14.252-.334.252-.581 0-.257-.082-.451-.245-.581-.163-.131-.371-.196-.623-.196zm0 3.836c.313 0 .562-.073.749-.217.191-.15.287-.362.287-.637 0-.271-.096-.479-.287-.623-.187-.15-.436-.224-.749-.224-.308 0-.558.074-.749.224-.187.144-.28.352-.28.623 0 .275.093.487.28.637.191.144.441.217.749.217zm7.936-3.059c.392 0 .709.128.952.385.243.252.364.595.364 1.029v2.177h-.609v-2.156c0-.271-.07-.481-.21-.63a.73.73 0 00-.56-.224.803.803 0 00-.63.266c-.154.172-.231.438-.231.798v1.946h-.609v-2.156c0-.271-.068-.481-.203-.63-.131-.15-.31-.224-.539-.224a.86.86 0 00-.644.266c-.168.177-.252.443-.252.798v1.946h-.609v-3.5h.609v.469c.238-.374.586-.56 1.043-.56.471 0 .814.198 1.029.595.243-.397.609-.595 1.099-.595zm2.16 3.591v-5.11h.609v5.11h-.609zm3.281-3.591c.411 0 .74.13.987.392.248.256.371.606.371 1.05v2.149h-.609v-2.114c0-.285-.077-.504-.231-.658-.154-.159-.366-.238-.637-.238-.303 0-.548.095-.735.287-.186.186-.28.476-.28.868v1.855h-.609v-3.5h.609v.504c.248-.397.626-.595 1.134-.595zm2.594 3.668a.44.44 0 01-.322-.133.438.438 0 01-.133-.322c0-.126.044-.234.133-.322a.436.436 0 01.322-.133c.13 0 .238.044.322.133a.44.44 0 01.133.322.442.442 0 01-.133.322.427.427 0 01-.322.133zm6.231-.455c-.341.312-.782.469-1.323.469-.542 0-.985-.157-1.33-.469-.341-.318-.511-.74-.511-1.267v-3.255h.651v3.227c0 .345.102.62.308.826.205.2.499.301.882.301.382 0 .676-.101.882-.301.205-.206.308-.481.308-.826v-3.227h.644v3.255c0 .527-.171.949-.511 1.267zm3.088.469c-.457 0-.849-.108-1.176-.322a1.713 1.713 0 01-.679-.882l.56-.322c.191.592.628.889 1.309.889.336 0 .593-.068.77-.203a.672.672 0 00.266-.553c0-.234-.089-.409-.266-.525-.177-.117-.474-.241-.889-.371a26.245 26.245 0 01-.469-.154 6.005 6.005 0 01-.406-.182 1.371 1.371 0 01-.357-.252 1.182 1.182 0 01-.308-.819c0-.425.149-.761.448-1.008.299-.252.663-.378 1.092-.378.387 0 .723.098 1.008.294.289.196.506.455.651.777l-.546.315c-.21-.504-.581-.756-1.113-.756-.266 0-.481.065-.644.196a.645.645 0 00-.245.532c0 .214.077.378.231.49.154.112.42.228.798.35.135.042.231.072.287.091.056.018.142.051.259.098a3.12 3.12 0 01.49.231c.098.051.17.1.217.147.047.046.1.105.161.175a.613.613 0 01.14.203c.028.07.051.151.07.245.023.088.035.184.035.287 0 .429-.156.772-.469 1.029-.313.252-.721.378-1.225.378zm4.342-4.991c.667 0 1.22.238 1.659.714.443.471.665 1.05.665 1.736 0 .686-.222 1.267-.665 1.743-.439.471-.992.707-1.659.707h-1.911v-4.9h1.911zm0 4.284c.499 0 .908-.175 1.225-.525.317-.35.476-.787.476-1.309 0-.523-.159-.959-.476-1.309-.317-.35-.726-.525-1.225-.525h-1.26v3.668h1.26z" fill="#B299DA"/><circle r="1.113" transform="matrix(-1 0 0 1 265.858 10.91)" fill="#EBBE65"/><circle r="1.113" transform="matrix(0 -1 -1 0 223.113 57.215)" fill="#EBBE65"/><circle r="1.113" transform="matrix(-1 0 0 1 262.296 10.909)" fill="#EBBE65"/><circle r="1.113" transform="matrix(0 -1 -1 0 223.113 53.654)" fill="#EBBE65"/><circle r="1.113" transform="matrix(-1 0 0 1 258.734 10.909)" fill="#EBBE65"/><circle r="1.113" transform="matrix(0 -1 -1 0 223.113 50.092)" fill="#EBBE65"/><circle r="1.113" transform="matrix(-1 0 0 1 255.172 10.909)" fill="#EBBE65"/><circle r="1.113" transform="matrix(0 -1 -1 0 223.113 46.53)" fill="#EBBE65"/><circle r="1.113" transform="matrix(-1 0 0 1 251.61 10.909)" fill="#EBBE65"/><circle r="1.113" transform="matrix(0 -1 -1 0 223.113 42.967)" fill="#EBBE65"/><circle r="1.113" transform="matrix(-1 0 0 1 248.048 10.909)" fill="#EBBE65"/><circle r="1.113" transform="matrix(0 -1 -1 0 223.113 39.405)" fill="#EBBE65"/><circle r="1.113" transform="matrix(-1 0 0 1 244.485 10.909)" fill="#EBBE65"/><circle r="1.113" transform="matrix(0 -1 -1 0 223.113 35.843)" fill="#EBBE65"/><circle r="1.113" transform="matrix(-1 0 0 1 240.923 10.909)" fill="#EBBE65"/><circle r="1.113" transform="matrix(0 -1 -1 0 223.113 32.281)" fill="#EBBE65"/><circle r="1.113" transform="matrix(-1 0 0 1 237.361 10.909)" fill="#EBBE65"/><circle r="1.113" transform="matrix(0 -1 -1 0 223.113 28.72)" fill="#EBBE65"/><circle r="1.113" transform="matrix(-1 0 0 1 233.799 10.909)" fill="#EBBE65"/><circle r="1.113" transform="matrix(0 -1 -1 0 223.113 25.157)" fill="#EBBE65"/><circle r="1.113" transform="matrix(-1 0 0 1 230.237 10.909)" fill="#EBBE65"/><circle r="1.113" transform="matrix(0 -1 -1 0 223.113 21.595)" fill="#EBBE65"/><circle r="1.113" transform="matrix(-1 0 0 1 226.675 10.909)" fill="#EBBE65"/><circle r="1.113" transform="matrix(0 -1 -1 0 223.113 18.033)" fill="#EBBE65"/><circle r="1.113" transform="matrix(-1 0 0 1 223.113 10.909)" fill="#EBBE65"/><circle r="1.113" transform="matrix(0 -1 -1 0 223.113 14.471)" fill="#EBBE65"/><path d="M271.186 3.84l2.944-1.04h1.6V14h-1.84V4.768l-2.256.64-.448-1.568zm14.065 2.576c0 .853-.224 1.605-.672 2.256L281.043 14h-2.112l2.56-3.76h-.192c-1.162 0-2.117-.352-2.864-1.056-.736-.715-1.104-1.637-1.104-2.768 0-1.13.368-2.048 1.104-2.752.747-.715 1.702-1.072 2.864-1.072 1.174 0 2.123.357 2.848 1.072.736.704 1.104 1.621 1.104 2.752zm-6.08 0c0 .608.198 1.11.592 1.504.406.384.918.576 1.536.576.619 0 1.126-.187 1.52-.56.395-.384.592-.89.592-1.52s-.197-1.13-.592-1.504c-.394-.384-.901-.576-1.52-.576-.618 0-1.13.192-1.536.576-.394.373-.592.875-.592 1.504zm11.759-3.088c.501.501.752 1.11.752 1.824 0 .715-.251 1.323-.752 1.824-.491.49-1.109.736-1.856.736-.757 0-1.381-.245-1.872-.736a2.485 2.485 0 01-.752-1.824c0-.704.251-1.307.752-1.808.501-.501 1.125-.752 1.872-.752.747 0 1.365.245 1.856.736zm-1.872 2.976c.341 0 .619-.107.832-.32a1.16 1.16 0 00.32-.832c0-.33-.107-.608-.32-.832-.213-.224-.491-.336-.832-.336-.331 0-.603.112-.816.336a1.16 1.16 0 00-.32.832c0 .32.107.592.32.816.224.224.496.336.816.336zm-.8 6.56l-.864-.512 7.376-8.208.864.496-7.376 8.224zm5.936 1.328c-.757 0-1.381-.245-1.872-.736a2.485 2.485 0 01-.752-1.824c0-.704.251-1.307.752-1.808.501-.501 1.125-.752 1.872-.752.736 0 1.355.25 1.856.752.501.501.752 1.104.752 1.808 0 .715-.251 1.323-.752 1.824-.491.49-1.109.736-1.856.736zm-.016-1.408c.341 0 .619-.107.832-.32a1.16 1.16 0 00.32-.832c0-.33-.107-.608-.32-.832-.213-.224-.491-.336-.832-.336-.331 0-.603.112-.816.336a1.16 1.16 0 00-.32.832c0 .32.107.592.32.816.224.224.496.336.816.336z" fill="#fff"/><path d="M258.252 26.817v-.532l1.729-1.764c.462-.462.693-.858.693-1.19 0-.275-.084-.49-.252-.644a.878.878 0 00-.616-.23c-.462 0-.798.219-1.008.657l-.546-.322a1.66 1.66 0 01.637-.72 1.75 1.75 0 01.91-.246c.411 0 .768.136 1.071.406.303.271.455.635.455 1.092 0 .495-.292 1.034-.875 1.617l-1.253 1.246h2.219v.63h-3.164zm4.811-.72l-.455 1.7h-.525l.28-1.7h.7zm.525-4.18h3.059v.581l-1.785 4.32h-.679l1.771-4.285h-2.366v-.616zm9.298 1.31c.392 0 .709.128.952.384.242.252.364.595.364 1.03v2.176h-.609v-2.156c0-.27-.07-.48-.21-.63a.731.731 0 00-.56-.224.802.802 0 00-.63.266c-.154.173-.231.439-.231.798v1.946h-.609v-2.156c0-.27-.068-.48-.203-.63-.131-.149-.311-.224-.539-.224a.86.86 0 00-.644.266c-.168.178-.252.444-.252.798v1.946h-.609v-3.5h.609v.47c.238-.374.585-.56 1.043-.56.471 0 .814.198 1.029.594.242-.396.609-.595 1.099-.595zm2.16 3.59v-5.11h.609v5.11h-.609zm3.281-3.59c.411 0 .74.13.987.391.247.257.371.607.371 1.05v2.15h-.609v-2.115c0-.284-.077-.504-.231-.658-.154-.158-.366-.238-.637-.238-.303 0-.548.096-.735.287-.187.187-.28.476-.28.868v1.855h-.609v-3.5h.609v.504c.247-.396.625-.595 1.134-.595zm2.593 3.667a.44.44 0 01-.322-.133.441.441 0 01-.133-.322c0-.126.045-.233.133-.322a.439.439 0 01.322-.133c.131 0 .238.045.322.133a.437.437 0 01.133.322.437.437 0 01-.133.322.424.424 0 01-.322.133zm6.231-.455c-.34.313-.781.47-1.323.47-.541 0-.984-.157-1.33-.47-.34-.317-.511-.74-.511-1.267v-3.255h.651v3.227c0 .346.103.621.308.826.206.201.5.301.882.301.383 0 .677-.1.882-.3.206-.206.308-.481.308-.827v-3.227h.644v3.255c0 .528-.17.95-.511 1.267zm3.089.47c-.458 0-.85-.108-1.176-.323a1.706 1.706 0 01-.679-.882l.56-.322c.191.593.627.89 1.309.89.336 0 .592-.068.77-.204a.671.671 0 00.266-.553c0-.233-.089-.408-.266-.525-.178-.116-.474-.24-.889-.37a18.925 18.925 0 01-.469-.155 5.651 5.651 0 01-.406-.182 1.371 1.371 0 01-.357-.252 1.18 1.18 0 01-.308-.819c0-.424.149-.76.448-1.008.298-.252.662-.378 1.092-.378.387 0 .723.098 1.008.294.289.196.506.455.651.777l-.546.315c-.21-.504-.581-.756-1.113-.756-.266 0-.481.066-.644.196a.643.643 0 00-.245.532c0 .215.077.378.231.49.154.112.42.229.798.35l.287.091c.056.019.142.052.259.098.121.047.21.084.266.112.056.028.13.068.224.12.098.05.17.1.217.146.046.047.1.105.161.175a.616.616 0 01.14.203c.028.07.051.152.07.245.023.089.035.185.035.287 0 .43-.157.773-.469 1.03-.313.251-.721.377-1.225.377zm4.342-4.992c.667 0 1.22.238 1.659.714.443.472.665 1.05.665 1.736 0 .686-.222 1.267-.665 1.743-.439.472-.992.707-1.659.707h-1.911v-4.9h1.911zm0 4.284c.499 0 .907-.175 1.225-.525.317-.35.476-.786.476-1.309 0-.522-.159-.959-.476-1.309-.318-.35-.726-.525-1.225-.525h-1.26v3.668h1.26z" fill="#B299DA"/><path d="M87.938 212.029v-13.32l159.838-80.569s8.198 6.402 14.919 16.577l8.473 9.413.113 14.636c.046.96.054 1.929.023 2.907-.472 14.772-10.032 31.558-39.446 47.432-61.402 33.138-143.92 2.924-143.92 2.924z" fill="url(#paint0_linear)"/><path d="M87.938 212.029v-13.32l159.838-80.569s8.198 6.402 14.919 16.577l8.473 9.413.113 14.636c.046.96.054 1.929.023 2.907-.472 14.772-10.032 31.558-39.446 47.432-61.402 33.138-143.92 2.924-143.92 2.924z" fill="url(#paint1_linear)"/><path d="M156.162 145.105l-68.224 53.279s82.518 30.214 143.92-2.924c78.295-42.254 15.918-90.965 15.918-90.965l-91.614 40.61z" fill="url(#paint2_linear)"/><path d="M41.48 164.922v-30.538c2.342 20.579 16.82 32.039 46.458 50.68v26.64c-30.214-10.396-46.457-38.335-46.457-46.782z" fill="#0195AA"/><path d="M41.48 164.922v-30.538c2.342 20.579 16.82 32.039 46.458 50.68v26.64c-30.214-10.396-46.457-38.335-46.457-46.782z" fill="url(#paint3_linear)"/><path d="M156.162 145.105l-68.224 53.279v-13.32l68.224-53.929v13.97z" fill="url(#paint4_linear)"/><path d="M156.162 145.105l-68.224 53.279v-13.32l68.224-53.929v13.97z" fill="url(#paint5_linear)"/><path d="M75.593 84.353l80.569 46.782-68.224 53.929s-42.321-20.472-46.133-45.482c-5.197-34.112 33.788-55.23 33.788-55.23z" fill="url(#paint6_linear)"/><path d="M205.543 57.713c-51.655-12.345-96.488-5.848-129.95 12.995l80.569 47.107 49.381-60.102z" fill="url(#paint7_linear)"/><path d="M156.162 103.846v41.259l91.615-40.61V63.561l-91.615 40.285z" fill="url(#paint8_linear)"/><path d="M156.162 103.846v41.259l91.615-40.61V63.561l-91.615 40.285z" fill="url(#paint9_linear)"/><path d="M216.264 47.642l-60.102 56.204 91.615-40.285c-12.136-7.873-19.023-11.476-31.513-15.919z" fill="url(#paint10_linear)"/><path d="M75.593 70.708v13.645l80.569 46.782v-13.32l-80.57-47.107z" fill="url(#paint11_linear)"/><path d="M75.593 70.708v13.645l80.569 46.782v-13.32l-80.57-47.107z" fill="url(#paint12_linear)"/><defs><linearGradient id="paint0_linear" x1="271.168" y1="157.775" x2="95.41" y2="211.379" gradientUnits="userSpaceOnUse"><stop stop-color="#BC02AD"/><stop offset="1" stop-color="#400EBB"/></linearGradient><linearGradient id="paint1_linear" x1="128.153" y1="157.398" x2="162.883" y2="252.682" gradientUnits="userSpaceOnUse"><stop stop-color="#663DA8"/><stop offset="1" stop-color="#352057"/></linearGradient><linearGradient id="paint2_linear" x1="271.168" y1="134.709" x2="93.136" y2="199.359" gradientUnits="userSpaceOnUse"><stop stop-color="#663DA8"/><stop offset="1" stop-color="#352057"/></linearGradient><linearGradient id="paint3_linear" x1="84.741" y1="136.916" x2="43.514" y2="173.294" gradientUnits="userSpaceOnUse"><stop stop-color="#E4AEE4"/><stop offset="1" stop-color="#A357A3"/></linearGradient><linearGradient id="paint4_linear" x1="158.111" y1="134.384" x2="87.938" y2="197.735" gradientUnits="userSpaceOnUse"><stop stop-color="#00C7C3"/><stop offset="1" stop-color="#01AAC5"/></linearGradient><linearGradient id="paint5_linear" x1="156.162" y1="171.843" x2="90.923" y2="171.843" gradientUnits="userSpaceOnUse"><stop stop-color="#E4AEE4"/><stop offset="1" stop-color="#A357A3"/></linearGradient><linearGradient id="paint6_linear" x1="156.162" y1="135.033" x2="46.354" y2="135.033" gradientUnits="userSpaceOnUse"><stop stop-color="#E4AEE4"/><stop offset="1" stop-color="#A357A3"/></linearGradient><linearGradient id="paint7_linear" x1="140.568" y1="51.397" x2="140.568" y2="117.815" gradientUnits="userSpaceOnUse"><stop stop-color="#C9B2EF"/><stop offset="1" stop-color="#543784"/></linearGradient><linearGradient id="paint8_linear" x1="247.777" y1="84.678" x2="156.162" y2="124.638" gradientUnits="userSpaceOnUse"><stop stop-color="#FFA901"/><stop offset="1" stop-color="#FF8D00"/></linearGradient><linearGradient id="paint9_linear" x1="201.969" y1="63.561" x2="201.969" y2="145.105" gradientUnits="userSpaceOnUse"><stop stop-color="#FAD48A"/><stop offset="1" stop-color="#DAA236"/></linearGradient><linearGradient id="paint10_linear" x1="201.969" y1="47.642" x2="201.969" y2="103.846" gradientUnits="userSpaceOnUse"><stop stop-color="#FAD48A"/><stop offset="1" stop-color="#DAA236"/></linearGradient><linearGradient id="paint11_linear" x1="75.593" y1="74.932" x2="154.862" y2="128.536" gradientUnits="userSpaceOnUse"><stop stop-color="#C201A7"/><stop offset="1" stop-color="#FC2801"/></linearGradient><linearGradient id="paint12_linear" x1="115.877" y1="70.708" x2="115.877" y2="131.135" gradientUnits="userSpaceOnUse"><stop stop-color="#C9B2EF"/><stop offset="1" stop-color="#543784"/></linearGradient></defs></svg>