<svg width="792" height="548" viewBox="0 0 792 548" fill="none" xmlns="http://www.w3.org/2000/svg">
<circle cx="178.5" cy="36.5" r="2.5" fill="#8A70B5"/>
<circle cx="178.5" cy="36.5" r="2.5" fill="url(#paint0_linear)"/>
<circle cx="274.5" cy="140.5" r="2.5" transform="rotate(-90 274.5 140.5)" fill="#8A70B5"/>
<circle cx="274.5" cy="140.5" r="2.5" transform="rotate(-90 274.5 140.5)" fill="url(#paint1_linear)"/>
<circle cx="186.5" cy="36.5" r="2.5" fill="#8A70B5"/>
<circle cx="186.5" cy="36.5" r="2.5" fill="url(#paint2_linear)"/>
<circle cx="274.5" cy="132.5" r="2.5" transform="rotate(-90 274.5 132.5)" fill="#8A70B5"/>
<circle cx="274.5" cy="132.5" r="2.5" transform="rotate(-90 274.5 132.5)" fill="url(#paint3_linear)"/>
<circle cx="194.5" cy="36.5" r="2.5" fill="#8A70B5"/>
<circle cx="194.5" cy="36.5" r="2.5" fill="url(#paint4_linear)"/>
<circle cx="274.5" cy="124.5" r="2.5" transform="rotate(-90 274.5 124.5)" fill="#8A70B5"/>
<circle cx="274.5" cy="124.5" r="2.5" transform="rotate(-90 274.5 124.5)" fill="url(#paint5_linear)"/>
<circle cx="202.5" cy="36.5" r="2.5" fill="#8A70B5"/>
<circle cx="202.5" cy="36.5" r="2.5" fill="url(#paint6_linear)"/>
<circle cx="274.5" cy="116.5" r="2.5" transform="rotate(-90 274.5 116.5)" fill="#8A70B5"/>
<circle cx="274.5" cy="116.5" r="2.5" transform="rotate(-90 274.5 116.5)" fill="url(#paint7_linear)"/>
<circle cx="210.5" cy="36.5" r="2.5" fill="#8A70B5"/>
<circle cx="210.5" cy="36.5" r="2.5" fill="url(#paint8_linear)"/>
<circle cx="274.5" cy="108.5" r="2.5" transform="rotate(-90 274.5 108.5)" fill="#8A70B5"/>
<circle cx="274.5" cy="108.5" r="2.5" transform="rotate(-90 274.5 108.5)" fill="url(#paint9_linear)"/>
<circle cx="218.5" cy="36.5" r="2.5" fill="#8A70B5"/>
<circle cx="218.5" cy="36.5" r="2.5" fill="url(#paint10_linear)"/>
<circle cx="274.5" cy="100.5" r="2.5" transform="rotate(-90 274.5 100.5)" fill="#8A70B5"/>
<circle cx="274.5" cy="100.5" r="2.5" transform="rotate(-90 274.5 100.5)" fill="url(#paint11_linear)"/>
<circle cx="226.5" cy="36.5" r="2.5" fill="#8A70B5"/>
<circle cx="226.5" cy="36.5" r="2.5" fill="url(#paint12_linear)"/>
<circle cx="274.5" cy="92.5" r="2.5" transform="rotate(-90 274.5 92.5)" fill="#8A70B5"/>
<circle cx="274.5" cy="92.5" r="2.5" transform="rotate(-90 274.5 92.5)" fill="url(#paint13_linear)"/>
<circle cx="234.5" cy="36.5" r="2.5" fill="#8A70B5"/>
<circle cx="234.5" cy="36.5" r="2.5" fill="url(#paint14_linear)"/>
<circle cx="274.5" cy="84.5" r="2.5" transform="rotate(-90 274.5 84.5)" fill="#8A70B5"/>
<circle cx="274.5" cy="84.5" r="2.5" transform="rotate(-90 274.5 84.5)" fill="url(#paint15_linear)"/>
<circle cx="242.5" cy="36.5" r="2.5" fill="#8A70B5"/>
<circle cx="242.5" cy="36.5" r="2.5" fill="url(#paint16_linear)"/>
<circle cx="274.5" cy="76.5" r="2.5" transform="rotate(-90 274.5 76.5)" fill="#8A70B5"/>
<circle cx="274.5" cy="76.5" r="2.5" transform="rotate(-90 274.5 76.5)" fill="url(#paint17_linear)"/>
<circle cx="250.5" cy="36.5" r="2.5" fill="#8A70B5"/>
<circle cx="250.5" cy="36.5" r="2.5" fill="url(#paint18_linear)"/>
<circle cx="274.5" cy="68.5" r="2.5" transform="rotate(-90 274.5 68.5)" fill="#8A70B5"/>
<circle cx="274.5" cy="68.5" r="2.5" transform="rotate(-90 274.5 68.5)" fill="url(#paint19_linear)"/>
<circle cx="258.5" cy="36.5" r="2.5" fill="#8A70B5"/>
<circle cx="258.5" cy="36.5" r="2.5" fill="url(#paint20_linear)"/>
<circle cx="274.5" cy="60.5" r="2.5" transform="rotate(-90 274.5 60.5)" fill="#8A70B5"/>
<circle cx="274.5" cy="60.5" r="2.5" transform="rotate(-90 274.5 60.5)" fill="url(#paint21_linear)"/>
<circle cx="266.5" cy="36.5" r="2.5" fill="#8A70B5"/>
<circle cx="266.5" cy="36.5" r="2.5" fill="url(#paint22_linear)"/>
<circle cx="274.5" cy="52.5" r="2.5" transform="rotate(-90 274.5 52.5)" fill="#8A70B5"/>
<circle cx="274.5" cy="52.5" r="2.5" transform="rotate(-90 274.5 52.5)" fill="url(#paint23_linear)"/>
<circle cx="274.5" cy="36.5" r="2.5" fill="#8A70B5"/>
<circle cx="274.5" cy="36.5" r="2.5" fill="url(#paint24_linear)"/>
<circle cx="274.5" cy="44.5" r="2.5" transform="rotate(-90 274.5 44.5)" fill="#8A70B5"/>
<circle cx="274.5" cy="44.5" r="2.5" transform="rotate(-90 274.5 44.5)" fill="url(#paint25_linear)"/>
<path d="M100.96 52C101.093 50.24 101.44 48.6267 102 47.16C102.587 45.6667 103.267 44.4267 104.04 43.44C104.813 42.4533 105.653 41.5467 106.56 40.72C107.467 39.8933 108.36 39.1733 109.24 38.56C110.12 37.9467 110.92 37.36 111.64 36.8C112.36 36.24 112.933 35.6533 113.36 35.04C113.813 34.4 114.04 33.7333 114.04 33.04C114.04 31.9733 113.667 31.2 112.92 30.72C112.2 30.2133 111.28 29.96 110.16 29.96C108.213 29.96 105.907 30.56 103.24 31.76L101.84 27.56C105.067 26.0933 108.133 25.36 111.04 25.36C113.893 25.36 116.053 26.0133 117.52 27.32C119.013 28.6 119.76 30.32 119.76 32.48C119.76 33.84 119.413 35.1067 118.72 36.28C118.027 37.4267 117.16 38.44 116.12 39.32C115.08 40.1733 114.013 41 112.92 41.8C111.853 42.5733 110.853 43.44 109.92 44.4C108.987 45.36 108.373 46.3467 108.08 47.36H120.12V52H100.96ZM134.074 52.4C131.061 52.4 128.594 51.3467 126.674 49.24C124.754 47.1333 123.794 44.0133 123.794 39.88C123.794 35.6933 124.887 32.2267 127.074 29.48C129.287 26.7333 132.234 25.36 135.914 25.36C138.074 25.36 140.154 25.8 142.154 26.68L140.754 30.88C139.261 30.1333 137.754 29.76 136.234 29.76C134.447 29.76 132.927 30.3333 131.674 31.48C130.447 32.6267 129.674 34.4133 129.354 36.84C131.141 35.5867 133.181 34.96 135.474 34.96C137.767 34.96 139.674 35.6933 141.194 37.16C142.714 38.6267 143.474 40.6267 143.474 43.16C143.474 45.96 142.594 48.2 140.834 49.88C139.074 51.56 136.821 52.4 134.074 52.4ZM134.194 48.04C135.341 48.04 136.221 47.68 136.834 46.96C137.447 46.24 137.754 45.2267 137.754 43.92C137.754 42.4267 137.407 41.2933 136.714 40.52C136.021 39.72 135.074 39.32 133.874 39.32C133.127 39.32 132.327 39.4933 131.474 39.84C130.647 40.16 129.994 40.56 129.514 41.04C129.621 43.3333 130.114 45.08 130.994 46.28C131.874 47.4533 132.941 48.04 134.194 48.04ZM153.601 39.6C151.654 39.6 150.068 39 148.841 37.8C147.641 36.5733 147.041 34.8 147.041 32.48C147.041 30.16 147.641 28.4 148.841 27.2C150.068 25.9733 151.654 25.36 153.601 25.36C155.574 25.36 157.161 25.9733 158.361 27.2C159.561 28.4 160.161 30.16 160.161 32.48C160.161 34.8 159.561 36.5733 158.361 37.8C157.161 39 155.574 39.6 153.601 39.6ZM153.601 36.44C155.174 36.44 155.961 35.12 155.961 32.48C155.961 29.84 155.174 28.52 153.601 28.52C152.054 28.52 151.281 29.84 151.281 32.48C151.281 35.12 152.054 36.44 153.601 36.44ZM172.721 52.4C170.748 52.4 169.161 51.8 167.961 50.6C166.761 49.3733 166.161 47.6 166.161 45.28C166.161 42.96 166.761 41.2 167.961 40C169.161 38.7733 170.748 38.16 172.721 38.16C174.668 38.16 176.241 38.7733 177.441 40C178.668 41.2 179.281 42.96 179.281 45.28C179.281 47.6 178.668 49.3733 177.441 50.6C176.241 51.8 174.668 52.4 172.721 52.4ZM172.721 49.24C174.268 49.24 175.041 47.92 175.041 45.28C175.041 42.64 174.268 41.32 172.721 41.32C171.148 41.32 170.361 42.64 170.361 45.28C170.361 47.92 171.148 49.24 172.721 49.24ZM152.641 52L169.281 25.64H173.641L156.961 52H152.641Z" fill="white"/>
<path d="M103.3 77V68.45L100.975 69.56L100.525 68.51L103.555 67.04H104.605V77H103.3ZM106.853 76.64L107.228 75.56C107.888 75.86 108.608 76.01 109.388 76.01C110.138 76.01 110.733 75.86 111.173 75.56C111.623 75.25 111.848 74.79 111.848 74.18C111.848 73.38 111.418 72.875 110.558 72.665C110.248 72.595 109.828 72.56 109.298 72.56H108.158V71.465H109.118C109.968 71.465 110.588 71.31 110.978 71C111.378 70.68 111.578 70.255 111.578 69.725C111.578 69.245 111.433 68.865 111.143 68.585C110.853 68.305 110.423 68.165 109.853 68.165C109.083 68.165 108.298 68.39 107.498 68.84L107.108 67.805C108.028 67.285 108.988 67.025 109.988 67.025C110.948 67.025 111.683 67.275 112.193 67.775C112.703 68.265 112.958 68.88 112.958 69.62C112.958 70.7 112.438 71.445 111.398 71.855V71.885C111.978 72.005 112.428 72.26 112.748 72.65C113.078 73.04 113.243 73.54 113.243 74.15C113.243 75.03 112.918 75.75 112.268 76.31C111.618 76.87 110.663 77.15 109.403 77.15C108.463 77.15 107.613 76.98 106.853 76.64ZM114.91 78.785C115.37 78.025 115.6 77.265 115.6 76.505C115.6 76.175 115.57 75.845 115.51 75.515L116.785 75.275C116.855 75.565 116.89 75.88 116.89 76.22C116.89 77.29 116.465 78.27 115.615 79.16L114.91 78.785ZM124.575 75.83C123.965 76.71 123.135 77.15 122.085 77.15C121.035 77.15 120.2 76.71 119.58 75.83C118.97 74.95 118.665 73.705 118.665 72.095C118.665 70.485 118.97 69.24 119.58 68.36C120.2 67.47 121.035 67.025 122.085 67.025C123.135 67.025 123.965 67.47 124.575 68.36C125.195 69.24 125.505 70.485 125.505 72.095C125.505 73.705 125.195 74.95 124.575 75.83ZM120.585 74.99C120.935 75.67 121.435 76.01 122.085 76.01C122.735 76.01 123.235 75.67 123.585 74.99C123.935 74.3 124.11 73.335 124.11 72.095C124.11 70.845 123.935 69.88 123.585 69.2C123.245 68.51 122.745 68.165 122.085 68.165C121.435 68.165 120.935 68.51 120.585 69.2C120.245 69.88 120.075 70.845 120.075 72.095C120.075 73.345 120.245 74.31 120.585 74.99ZM126.805 76.64L127.18 75.56C127.84 75.86 128.56 76.01 129.34 76.01C130.09 76.01 130.685 75.86 131.125 75.56C131.575 75.25 131.8 74.79 131.8 74.18C131.8 73.38 131.37 72.875 130.51 72.665C130.2 72.595 129.78 72.56 129.25 72.56H128.11V71.465H129.07C129.92 71.465 130.54 71.31 130.93 71C131.33 70.68 131.53 70.255 131.53 69.725C131.53 69.245 131.385 68.865 131.095 68.585C130.805 68.305 130.375 68.165 129.805 68.165C129.035 68.165 128.25 68.39 127.45 68.84L127.06 67.805C127.98 67.285 128.94 67.025 129.94 67.025C130.9 67.025 131.635 67.275 132.145 67.775C132.655 68.265 132.91 68.88 132.91 69.62C132.91 70.7 132.39 71.445 131.35 71.855V71.885C131.93 72.005 132.38 72.26 132.7 72.65C133.03 73.04 133.195 73.54 133.195 74.15C133.195 75.03 132.87 75.75 132.22 76.31C131.57 76.87 130.615 77.15 129.355 77.15C128.415 77.15 127.565 76.98 126.805 76.64ZM138.576 77V69.905H139.686L139.836 70.775C140.696 70.075 141.511 69.725 142.281 69.725C143.171 69.725 143.786 70.12 144.126 70.91C145.006 70.12 145.876 69.725 146.736 69.725C147.366 69.725 147.886 69.935 148.296 70.355C148.706 70.765 148.911 71.395 148.911 72.245V77H147.591V72.635C147.591 72.085 147.506 71.66 147.336 71.36C147.166 71.05 146.856 70.895 146.406 70.895C145.806 70.895 145.136 71.21 144.396 71.84C144.396 71.88 144.396 71.945 144.396 72.035C144.406 72.115 144.411 72.175 144.411 72.215V77H143.091V72.65C143.091 72.09 143.006 71.66 142.836 71.36C142.666 71.05 142.356 70.895 141.906 70.895C141.306 70.895 140.636 71.21 139.896 71.84V77H138.576ZM150.824 75.605V66.38H152.144V75.23C152.144 75.49 152.184 75.675 152.264 75.785C152.344 75.885 152.479 75.935 152.669 75.935C152.809 75.935 152.959 75.905 153.119 75.845L153.389 76.88C153.049 77.02 152.684 77.09 152.294 77.09C151.314 77.09 150.824 76.595 150.824 75.605ZM154.573 77V69.905H155.683L155.848 70.775C156.698 70.075 157.518 69.725 158.308 69.725C158.928 69.725 159.443 69.93 159.853 70.34C160.263 70.74 160.468 71.375 160.468 72.245V77H159.148V72.68C159.148 71.49 158.743 70.895 157.933 70.895C157.323 70.895 156.643 71.215 155.893 71.855V77H154.573ZM163.717 76.88C163.557 77.04 163.367 77.12 163.147 77.12C162.927 77.12 162.737 77.04 162.577 76.88C162.417 76.71 162.337 76.51 162.337 76.28C162.337 76.05 162.417 75.855 162.577 75.695C162.737 75.535 162.927 75.455 163.147 75.455C163.367 75.455 163.557 75.535 163.717 75.695C163.877 75.855 163.957 76.05 163.957 76.28C163.957 76.51 163.877 76.71 163.717 76.88ZM173.257 77.15C171.427 77.15 170.247 76.47 169.717 75.11C169.537 74.63 169.447 74.065 169.447 73.415V67.115H170.782V73.31C170.782 73.87 170.857 74.32 171.007 74.66C171.367 75.56 172.117 76.01 173.257 76.01C174.407 76.01 175.162 75.56 175.522 74.66C175.662 74.31 175.732 73.845 175.732 73.265V67.115H177.067V73.415C177.067 74.105 176.967 74.68 176.767 75.14C176.237 76.48 175.067 77.15 173.257 77.15ZM179.017 76.37L179.572 75.335C180.242 75.785 180.962 76.01 181.732 76.01C182.282 76.01 182.732 75.895 183.082 75.665C183.442 75.425 183.622 75.055 183.622 74.555C183.622 74.145 183.472 73.79 183.172 73.49C182.882 73.18 182.522 72.915 182.092 72.695C181.672 72.475 181.247 72.245 180.817 72.005C180.397 71.765 180.037 71.445 179.737 71.045C179.447 70.645 179.302 70.17 179.302 69.62C179.302 68.88 179.572 68.265 180.112 67.775C180.652 67.275 181.382 67.025 182.302 67.025C183.152 67.025 183.897 67.185 184.537 67.505V68.72C183.847 68.35 183.117 68.165 182.347 68.165C181.887 68.165 181.497 68.275 181.177 68.495C180.857 68.705 180.697 69.035 180.697 69.485C180.697 69.865 180.847 70.205 181.147 70.505C181.447 70.795 181.807 71.05 182.227 71.27C182.657 71.48 183.082 71.71 183.502 71.96C183.922 72.21 184.282 72.545 184.582 72.965C184.882 73.385 185.032 73.88 185.032 74.45C185.032 75.28 184.727 75.94 184.117 76.43C183.507 76.91 182.717 77.15 181.747 77.15C180.697 77.15 179.787 76.89 179.017 76.37ZM187.085 77V67.115H189.68C191.39 67.115 192.7 67.56 193.61 68.45C194.52 69.34 194.975 70.525 194.975 72.005C194.975 73.495 194.505 74.7 193.565 75.62C192.635 76.54 191.31 77 189.59 77H187.085ZM188.42 75.86H189.59C190.97 75.86 191.975 75.505 192.605 74.795C193.245 74.075 193.565 73.135 193.565 71.975C193.565 70.835 193.225 69.93 192.545 69.26C191.875 68.59 190.885 68.255 189.575 68.255H188.42V75.86Z" fill="#D9C88B"/>
<circle r="2.5" transform="matrix(1 0 0 -1 80.5 505.5)" fill="#B069B0"/>
<circle r="2.5" transform="matrix(-4.37114e-08 1 1 4.37114e-08 176.5 401.5)" fill="#B069B0"/>
<circle r="2.5" transform="matrix(1 0 0 -1 88.5 505.5)" fill="#B069B0"/>
<circle r="2.5" transform="matrix(-4.37114e-08 1 1 4.37114e-08 176.5 409.5)" fill="#B069B0"/>
<circle r="2.5" transform="matrix(1 0 0 -1 96.5 505.5)" fill="#B069B0"/>
<circle r="2.5" transform="matrix(-4.37114e-08 1 1 4.37114e-08 176.5 417.5)" fill="#B069B0"/>
<circle r="2.5" transform="matrix(1 0 0 -1 104.5 505.5)" fill="#B069B0"/>
<circle r="2.5" transform="matrix(-4.37114e-08 1 1 4.37114e-08 176.5 425.5)" fill="#B069B0"/>
<circle r="2.5" transform="matrix(1 0 0 -1 112.5 505.5)" fill="#B069B0"/>
<circle r="2.5" transform="matrix(-4.37114e-08 1 1 4.37114e-08 176.5 433.5)" fill="#B069B0"/>
<circle r="2.5" transform="matrix(1 0 0 -1 120.5 505.5)" fill="#B069B0"/>
<circle r="2.5" transform="matrix(-4.37114e-08 1 1 4.37114e-08 176.5 441.5)" fill="#B069B0"/>
<circle r="2.5" transform="matrix(1 0 0 -1 128.5 505.5)" fill="#B069B0"/>
<circle r="2.5" transform="matrix(-4.37114e-08 1 1 4.37114e-08 176.5 449.5)" fill="#B069B0"/>
<circle r="2.5" transform="matrix(1 0 0 -1 136.5 505.5)" fill="#B069B0"/>
<circle r="2.5" transform="matrix(-4.37114e-08 1 1 4.37114e-08 176.5 457.5)" fill="#B069B0"/>
<circle r="2.5" transform="matrix(1 0 0 -1 144.5 505.5)" fill="#B069B0"/>
<circle r="2.5" transform="matrix(-4.37114e-08 1 1 4.37114e-08 176.5 465.5)" fill="#B069B0"/>
<circle r="2.5" transform="matrix(1 0 0 -1 152.5 505.5)" fill="#B069B0"/>
<circle r="2.5" transform="matrix(-4.37114e-08 1 1 4.37114e-08 176.5 473.5)" fill="#B069B0"/>
<circle r="2.5" transform="matrix(1 0 0 -1 160.5 505.5)" fill="#B069B0"/>
<circle r="2.5" transform="matrix(-4.37114e-08 1 1 4.37114e-08 176.5 481.5)" fill="#B069B0"/>
<circle r="2.5" transform="matrix(1 0 0 -1 168.5 505.5)" fill="#B069B0"/>
<circle r="2.5" transform="matrix(-4.37114e-08 1 1 4.37114e-08 176.5 489.5)" fill="#B069B0"/>
<circle r="2.5" transform="matrix(1 0 0 -1 176.5 505.5)" fill="#B069B0"/>
<circle r="2.5" transform="matrix(-4.37114e-08 1 1 4.37114e-08 176.5 497.5)" fill="#B069B0"/>
<path d="M1.28 517.84L2.76 513.56C4.70667 514.413 6.70667 514.84 8.76 514.84C12.52 514.84 14.4 513.613 14.4 511.16C14.4 509.667 13.6 508.693 12 508.24C11.28 508 10.2133 507.88 8.8 507.88H5.08V503.6H8.04C11.7467 503.6 13.6 502.44 13.6 500.12C13.6 499.133 13.2667 498.36 12.6 497.8C11.96 497.24 11.0267 496.96 9.8 496.96C7.85333 496.96 5.72 497.56 3.4 498.76L2 494.56C4.82667 493.093 7.68 492.36 10.56 492.36C13.4133 492.36 15.5867 493.053 17.08 494.44C18.5733 495.827 19.32 497.533 19.32 499.56C19.32 502.173 18 504.027 15.36 505.12V505.2C16.88 505.493 18.0533 506.173 18.88 507.24C19.7067 508.28 20.12 509.573 20.12 511.12C20.12 513.6 19.2 515.6 17.36 517.12C15.52 518.64 12.8 519.4 9.2 519.4C6.16 519.4 3.52 518.88 1.28 517.84ZM23.6553 519C23.7886 517.24 24.1353 515.627 24.6953 514.16C25.282 512.667 25.962 511.427 26.7353 510.44C27.5086 509.453 28.3486 508.547 29.2553 507.72C30.162 506.893 31.0553 506.173 31.9353 505.56C32.8153 504.947 33.6153 504.36 34.3353 503.8C35.0553 503.24 35.6286 502.653 36.0553 502.04C36.5086 501.4 36.7353 500.733 36.7353 500.04C36.7353 498.973 36.362 498.2 35.6153 497.72C34.8953 497.213 33.9753 496.96 32.8553 496.96C30.9086 496.96 28.602 497.56 25.9353 498.76L24.5353 494.56C27.762 493.093 30.8286 492.36 33.7353 492.36C36.5886 492.36 38.7486 493.013 40.2153 494.32C41.7086 495.6 42.4553 497.32 42.4553 499.48C42.4553 500.84 42.1086 502.107 41.4153 503.28C40.722 504.427 39.8553 505.44 38.8153 506.32C37.7753 507.173 36.7086 508 35.6153 508.8C34.5486 509.573 33.5486 510.44 32.6153 511.4C31.682 512.36 31.0686 513.347 30.7753 514.36H42.8153V519H23.6553ZM53.2494 506.6C51.3027 506.6 49.716 506 48.4894 504.8C47.2894 503.573 46.6894 501.8 46.6894 499.48C46.6894 497.16 47.2894 495.4 48.4894 494.2C49.716 492.973 51.3027 492.36 53.2494 492.36C55.2227 492.36 56.8094 492.973 58.0094 494.2C59.2094 495.4 59.8094 497.16 59.8094 499.48C59.8094 501.8 59.2094 503.573 58.0094 504.8C56.8094 506 55.2227 506.6 53.2494 506.6ZM53.2494 503.44C54.8227 503.44 55.6094 502.12 55.6094 499.48C55.6094 496.84 54.8227 495.52 53.2494 495.52C51.7027 495.52 50.9294 496.84 50.9294 499.48C50.9294 502.12 51.7027 503.44 53.2494 503.44ZM72.3694 519.4C70.396 519.4 68.8094 518.8 67.6094 517.6C66.4094 516.373 65.8094 514.6 65.8094 512.28C65.8094 509.96 66.4094 508.2 67.6094 507C68.8094 505.773 70.396 505.16 72.3694 505.16C74.316 505.16 75.8894 505.773 77.0894 507C78.316 508.2 78.9294 509.96 78.9294 512.28C78.9294 514.6 78.316 516.373 77.0894 517.6C75.8894 518.8 74.316 519.4 72.3694 519.4ZM72.3694 516.24C73.916 516.24 74.6894 514.92 74.6894 512.28C74.6894 509.64 73.916 508.32 72.3694 508.32C70.796 508.32 70.0094 509.64 70.0094 512.28C70.0094 514.92 70.796 516.24 72.3694 516.24ZM52.2894 519L68.9294 492.64H73.2894L56.6094 519H52.2894Z" fill="white"/>
<path d="M3.3 544V535.45L0.975 536.56L0.525 535.51L3.555 534.04H4.605V544H3.3ZM6.98848 541.435V540.505L11.7585 534.04H12.7035V540.34H14.1585V541.435H12.7035V544H11.3985V541.435H6.98848ZM8.44348 540.355C8.53348 540.355 8.72348 540.355 9.01348 540.355C9.31348 540.345 9.52848 540.34 9.65848 540.34H11.3985V538.27C11.3985 537.6 11.4235 536.89 11.4735 536.14L8.44348 540.355ZM15.262 545.785C15.722 545.025 15.952 544.265 15.952 543.505C15.952 543.175 15.922 542.845 15.862 542.515L17.137 542.275C17.207 542.565 17.242 542.88 17.242 543.22C17.242 544.29 16.817 545.27 15.967 546.16L15.262 545.785ZM19.497 544C20.127 540.73 21.387 537.815 23.277 535.255H18.912L18.597 534.115H25.047V534.64C22.937 537.31 21.547 540.43 20.877 544H19.497ZM29.6849 544V536.905H30.7949L30.9449 537.775C31.8049 537.075 32.6199 536.725 33.3899 536.725C34.2799 536.725 34.8949 537.12 35.2349 537.91C36.1149 537.12 36.9849 536.725 37.8449 536.725C38.4749 536.725 38.9949 536.935 39.4049 537.355C39.8149 537.765 40.0199 538.395 40.0199 539.245V544H38.6999V539.635C38.6999 539.085 38.6149 538.66 38.4449 538.36C38.2749 538.05 37.9649 537.895 37.5149 537.895C36.9149 537.895 36.2449 538.21 35.5049 538.84C35.5049 538.88 35.5049 538.945 35.5049 539.035C35.5149 539.115 35.5199 539.175 35.5199 539.215V544H34.1999V539.65C34.1999 539.09 34.1149 538.66 33.9449 538.36C33.7749 538.05 33.4649 537.895 33.0149 537.895C32.4149 537.895 31.7449 538.21 31.0049 538.84V544H29.6849ZM41.9327 542.605V533.38H43.2527V542.23C43.2527 542.49 43.2927 542.675 43.3727 542.785C43.4527 542.885 43.5877 542.935 43.7777 542.935C43.9177 542.935 44.0677 542.905 44.2277 542.845L44.4977 543.88C44.1577 544.02 43.7927 544.09 43.4027 544.09C42.4227 544.09 41.9327 543.595 41.9327 542.605ZM45.681 544V536.905H46.791L46.956 537.775C47.806 537.075 48.626 536.725 49.416 536.725C50.036 536.725 50.551 536.93 50.961 537.34C51.371 537.74 51.576 538.375 51.576 539.245V544H50.256V539.68C50.256 538.49 49.851 537.895 49.041 537.895C48.431 537.895 47.751 538.215 47.001 538.855V544H45.681ZM54.8254 543.88C54.6654 544.04 54.4754 544.12 54.2554 544.12C54.0354 544.12 53.8454 544.04 53.6854 543.88C53.5254 543.71 53.4454 543.51 53.4454 543.28C53.4454 543.05 53.5254 542.855 53.6854 542.695C53.8454 542.535 54.0354 542.455 54.2554 542.455C54.4754 542.455 54.6654 542.535 54.8254 542.695C54.9854 542.855 55.0654 543.05 55.0654 543.28C55.0654 543.51 54.9854 543.71 54.8254 543.88ZM64.3651 544.15C62.5351 544.15 61.3551 543.47 60.8251 542.11C60.6451 541.63 60.5551 541.065 60.5551 540.415V534.115H61.8901V540.31C61.8901 540.87 61.9651 541.32 62.1151 541.66C62.4751 542.56 63.2251 543.01 64.3651 543.01C65.5151 543.01 66.2701 542.56 66.6301 541.66C66.7701 541.31 66.8401 540.845 66.8401 540.265V534.115H68.1751V540.415C68.1751 541.105 68.0751 541.68 67.8751 542.14C67.3451 543.48 66.1751 544.15 64.3651 544.15ZM70.1254 543.37L70.6804 542.335C71.3504 542.785 72.0704 543.01 72.8404 543.01C73.3904 543.01 73.8404 542.895 74.1904 542.665C74.5504 542.425 74.7304 542.055 74.7304 541.555C74.7304 541.145 74.5804 540.79 74.2804 540.49C73.9904 540.18 73.6304 539.915 73.2004 539.695C72.7804 539.475 72.3554 539.245 71.9254 539.005C71.5054 538.765 71.1454 538.445 70.8454 538.045C70.5554 537.645 70.4104 537.17 70.4104 536.62C70.4104 535.88 70.6804 535.265 71.2204 534.775C71.7604 534.275 72.4904 534.025 73.4104 534.025C74.2604 534.025 75.0054 534.185 75.6454 534.505V535.72C74.9554 535.35 74.2254 535.165 73.4554 535.165C72.9954 535.165 72.6054 535.275 72.2854 535.495C71.9654 535.705 71.8054 536.035 71.8054 536.485C71.8054 536.865 71.9554 537.205 72.2554 537.505C72.5554 537.795 72.9154 538.05 73.3354 538.27C73.7654 538.48 74.1904 538.71 74.6104 538.96C75.0304 539.21 75.3904 539.545 75.6904 539.965C75.9904 540.385 76.1404 540.88 76.1404 541.45C76.1404 542.28 75.8354 542.94 75.2254 543.43C74.6154 543.91 73.8254 544.15 72.8554 544.15C71.8054 544.15 70.8954 543.89 70.1254 543.37ZM78.1936 544V534.115H80.7886C82.4986 534.115 83.8086 534.56 84.7186 535.45C85.6286 536.34 86.0836 537.525 86.0836 539.005C86.0836 540.495 85.6136 541.7 84.6736 542.62C83.7436 543.54 82.4186 544 80.6986 544H78.1936ZM79.5286 542.86H80.6986C82.0786 542.86 83.0836 542.505 83.7136 541.795C84.3536 541.075 84.6736 540.135 84.6736 538.975C84.6736 537.835 84.3336 536.93 83.6536 536.26C82.9836 535.59 81.9936 535.255 80.6836 535.255H79.5286V542.86Z" fill="#D9C88B"/>
<circle cx="704.5" cy="487.5" r="2.5" transform="rotate(-180 704.5 487.5)" fill="#5F399C"/>
<circle cx="704.5" cy="487.5" r="2.5" transform="rotate(-180 704.5 487.5)" fill="url(#paint26_linear)"/>
<circle cx="608.5" cy="383.5" r="2.5" transform="rotate(90 608.5 383.5)" fill="#5F399C"/>
<circle cx="608.5" cy="383.5" r="2.5" transform="rotate(90 608.5 383.5)" fill="url(#paint27_linear)"/>
<circle cx="696.5" cy="487.5" r="2.5" transform="rotate(-180 696.5 487.5)" fill="#5F399C"/>
<circle cx="696.5" cy="487.5" r="2.5" transform="rotate(-180 696.5 487.5)" fill="url(#paint28_linear)"/>
<circle cx="608.5" cy="391.5" r="2.5" transform="rotate(90 608.5 391.5)" fill="#5F399C"/>
<circle cx="608.5" cy="391.5" r="2.5" transform="rotate(90 608.5 391.5)" fill="url(#paint29_linear)"/>
<circle cx="688.5" cy="487.5" r="2.5" transform="rotate(-180 688.5 487.5)" fill="#5F399C"/>
<circle cx="688.5" cy="487.5" r="2.5" transform="rotate(-180 688.5 487.5)" fill="url(#paint30_linear)"/>
<circle cx="608.5" cy="399.5" r="2.5" transform="rotate(90 608.5 399.5)" fill="#5F399C"/>
<circle cx="608.5" cy="399.5" r="2.5" transform="rotate(90 608.5 399.5)" fill="url(#paint31_linear)"/>
<circle cx="680.5" cy="487.5" r="2.5" transform="rotate(-180 680.5 487.5)" fill="#5F399C"/>
<circle cx="680.5" cy="487.5" r="2.5" transform="rotate(-180 680.5 487.5)" fill="url(#paint32_linear)"/>
<circle cx="608.5" cy="407.5" r="2.5" transform="rotate(90 608.5 407.5)" fill="#5F399C"/>
<circle cx="608.5" cy="407.5" r="2.5" transform="rotate(90 608.5 407.5)" fill="url(#paint33_linear)"/>
<circle cx="672.5" cy="487.5" r="2.5" transform="rotate(-180 672.5 487.5)" fill="#5F399C"/>
<circle cx="672.5" cy="487.5" r="2.5" transform="rotate(-180 672.5 487.5)" fill="url(#paint34_linear)"/>
<circle cx="608.5" cy="415.5" r="2.5" transform="rotate(90 608.5 415.5)" fill="#5F399C"/>
<circle cx="608.5" cy="415.5" r="2.5" transform="rotate(90 608.5 415.5)" fill="url(#paint35_linear)"/>
<circle cx="664.5" cy="487.5" r="2.5" transform="rotate(-180 664.5 487.5)" fill="#5F399C"/>
<circle cx="664.5" cy="487.5" r="2.5" transform="rotate(-180 664.5 487.5)" fill="url(#paint36_linear)"/>
<circle cx="608.5" cy="423.5" r="2.5" transform="rotate(90 608.5 423.5)" fill="#5F399C"/>
<circle cx="608.5" cy="423.5" r="2.5" transform="rotate(90 608.5 423.5)" fill="url(#paint37_linear)"/>
<circle cx="656.5" cy="487.5" r="2.5" transform="rotate(-180 656.5 487.5)" fill="#5F399C"/>
<circle cx="656.5" cy="487.5" r="2.5" transform="rotate(-180 656.5 487.5)" fill="url(#paint38_linear)"/>
<circle cx="608.5" cy="431.5" r="2.5" transform="rotate(90 608.5 431.5)" fill="#5F399C"/>
<circle cx="608.5" cy="431.5" r="2.5" transform="rotate(90 608.5 431.5)" fill="url(#paint39_linear)"/>
<circle cx="648.5" cy="487.5" r="2.5" transform="rotate(-180 648.5 487.5)" fill="#5F399C"/>
<circle cx="648.5" cy="487.5" r="2.5" transform="rotate(-180 648.5 487.5)" fill="url(#paint40_linear)"/>
<circle cx="608.5" cy="439.5" r="2.5" transform="rotate(90 608.5 439.5)" fill="#5F399C"/>
<circle cx="608.5" cy="439.5" r="2.5" transform="rotate(90 608.5 439.5)" fill="url(#paint41_linear)"/>
<circle cx="640.5" cy="487.5" r="2.5" transform="rotate(-180 640.5 487.5)" fill="#5F399C"/>
<circle cx="640.5" cy="487.5" r="2.5" transform="rotate(-180 640.5 487.5)" fill="url(#paint42_linear)"/>
<circle cx="608.5" cy="447.5" r="2.5" transform="rotate(90 608.5 447.5)" fill="#5F399C"/>
<circle cx="608.5" cy="447.5" r="2.5" transform="rotate(90 608.5 447.5)" fill="url(#paint43_linear)"/>
<circle cx="632.5" cy="487.5" r="2.5" transform="rotate(-180 632.5 487.5)" fill="#5F399C"/>
<circle cx="632.5" cy="487.5" r="2.5" transform="rotate(-180 632.5 487.5)" fill="url(#paint44_linear)"/>
<circle cx="608.5" cy="455.5" r="2.5" transform="rotate(90 608.5 455.5)" fill="#5F399C"/>
<circle cx="608.5" cy="455.5" r="2.5" transform="rotate(90 608.5 455.5)" fill="url(#paint45_linear)"/>
<circle cx="624.5" cy="487.5" r="2.5" transform="rotate(-180 624.5 487.5)" fill="#5F399C"/>
<circle cx="624.5" cy="487.5" r="2.5" transform="rotate(-180 624.5 487.5)" fill="url(#paint46_linear)"/>
<circle cx="608.5" cy="463.5" r="2.5" transform="rotate(90 608.5 463.5)" fill="#5F399C"/>
<circle cx="608.5" cy="463.5" r="2.5" transform="rotate(90 608.5 463.5)" fill="url(#paint47_linear)"/>
<circle cx="616.5" cy="487.5" r="2.5" transform="rotate(-180 616.5 487.5)" fill="#5F399C"/>
<circle cx="616.5" cy="487.5" r="2.5" transform="rotate(-180 616.5 487.5)" fill="url(#paint48_linear)"/>
<circle cx="608.5" cy="471.5" r="2.5" transform="rotate(90 608.5 471.5)" fill="#5F399C"/>
<circle cx="608.5" cy="471.5" r="2.5" transform="rotate(90 608.5 471.5)" fill="url(#paint49_linear)"/>
<circle cx="608.5" cy="487.5" r="2.5" transform="rotate(-180 608.5 487.5)" fill="#5F399C"/>
<circle cx="608.5" cy="487.5" r="2.5" transform="rotate(-180 608.5 487.5)" fill="url(#paint50_linear)"/>
<circle cx="608.5" cy="479.5" r="2.5" transform="rotate(90 608.5 479.5)" fill="#5F399C"/>
<circle cx="608.5" cy="479.5" r="2.5" transform="rotate(90 608.5 479.5)" fill="url(#paint51_linear)"/>
<path d="M712.28 499.84L713.76 495.56C715.707 496.413 717.707 496.84 719.76 496.84C723.52 496.84 725.4 495.613 725.4 493.16C725.4 491.667 724.6 490.693 723 490.24C722.28 490 721.213 489.88 719.8 489.88H716.08V485.6H719.04C722.747 485.6 724.6 484.44 724.6 482.12C724.6 481.133 724.267 480.36 723.6 479.8C722.96 479.24 722.027 478.96 720.8 478.96C718.853 478.96 716.72 479.56 714.4 480.76L713 476.56C715.827 475.093 718.68 474.36 721.56 474.36C724.413 474.36 726.587 475.053 728.08 476.44C729.573 477.827 730.32 479.533 730.32 481.56C730.32 484.173 729 486.027 726.36 487.12V487.2C727.88 487.493 729.053 488.173 729.88 489.24C730.707 490.28 731.12 491.573 731.12 493.12C731.12 495.6 730.2 497.6 728.36 499.12C726.52 500.64 723.8 501.4 720.2 501.4C717.16 501.4 714.52 500.88 712.28 499.84ZM734.855 499.88L736.335 495.6C738.069 496.427 739.882 496.84 741.775 496.84C743.455 496.84 744.815 496.493 745.855 495.8C746.895 495.107 747.415 494.08 747.415 492.72C747.415 491.04 746.682 489.933 745.215 489.4C744.309 489 742.682 488.8 740.335 488.8H736.975V474.64H753.455L752.055 479.28H742.255V484.52H743.295C745.375 484.52 747.082 484.813 748.415 485.4C750.015 486.04 751.202 487 751.975 488.28C752.775 489.533 753.175 490.893 753.175 492.36C753.175 495.027 752.242 497.2 750.375 498.88C748.535 500.56 745.762 501.4 742.055 501.4C739.282 501.4 736.882 500.893 734.855 499.88ZM763.82 488.6C761.873 488.6 760.286 488 759.06 486.8C757.86 485.573 757.26 483.8 757.26 481.48C757.26 479.16 757.86 477.4 759.06 476.2C760.286 474.973 761.873 474.36 763.82 474.36C765.793 474.36 767.38 474.973 768.58 476.2C769.78 477.4 770.38 479.16 770.38 481.48C770.38 483.8 769.78 485.573 768.58 486.8C767.38 488 765.793 488.6 763.82 488.6ZM763.82 485.44C765.393 485.44 766.18 484.12 766.18 481.48C766.18 478.84 765.393 477.52 763.82 477.52C762.273 477.52 761.5 478.84 761.5 481.48C761.5 484.12 762.273 485.44 763.82 485.44ZM782.94 501.4C780.966 501.4 779.38 500.8 778.18 499.6C776.98 498.373 776.38 496.6 776.38 494.28C776.38 491.96 776.98 490.2 778.18 489C779.38 487.773 780.966 487.16 782.94 487.16C784.886 487.16 786.46 487.773 787.66 489C788.886 490.2 789.5 491.96 789.5 494.28C789.5 496.6 788.886 498.373 787.66 499.6C786.46 500.8 784.886 501.4 782.94 501.4ZM782.94 498.24C784.486 498.24 785.26 496.92 785.26 494.28C785.26 491.64 784.486 490.32 782.94 490.32C781.366 490.32 780.58 491.64 780.58 494.28C780.58 496.92 781.366 498.24 782.94 498.24ZM762.86 501L779.5 474.64H783.86L767.18 501H762.86Z" fill="white"/>
<path d="M714.3 526V517.45L711.975 518.56L711.525 517.51L714.555 516.04H715.605V526H714.3ZM721.423 526.15C720.373 526.15 719.553 525.91 718.963 525.43C718.373 524.94 718.078 524.28 718.078 523.45C718.078 522.84 718.253 522.315 718.603 521.875C718.953 521.435 719.403 521.115 719.953 520.915V520.885C718.903 520.385 718.378 519.64 718.378 518.65C718.378 517.88 718.663 517.25 719.233 516.76C719.803 516.27 720.563 516.025 721.513 516.025C722.453 516.025 723.193 516.275 723.733 516.775C724.273 517.265 724.543 517.86 724.543 518.56C724.543 519.59 724.018 520.355 722.968 520.855V520.885C724.248 521.355 724.888 522.175 724.888 523.345C724.888 524.165 724.578 524.84 723.958 525.37C723.338 525.89 722.493 526.15 721.423 526.15ZM721.483 525.07C722.043 525.07 722.518 524.925 722.908 524.635C723.298 524.345 723.493 523.945 723.493 523.435C723.493 523.135 723.428 522.875 723.298 522.655C723.178 522.425 722.983 522.235 722.713 522.085C722.453 521.925 722.213 521.805 721.993 521.725C721.783 521.645 721.488 521.545 721.108 521.425C720.658 521.575 720.273 521.81 719.953 522.13C719.643 522.45 719.488 522.84 719.488 523.3C719.488 523.88 719.678 524.32 720.058 524.62C720.438 524.92 720.913 525.07 721.483 525.07ZM721.783 520.39C722.693 520.01 723.148 519.43 723.148 518.65C723.148 518.21 722.993 517.845 722.683 517.555C722.383 517.255 721.978 517.105 721.468 517.105C720.978 517.105 720.573 517.24 720.253 517.51C719.933 517.77 719.773 518.12 719.773 518.56C719.773 519.06 719.953 519.45 720.313 519.73C720.673 520 721.163 520.22 721.783 520.39ZM729.933 526V518.905H731.043L731.193 519.775C732.053 519.075 732.868 518.725 733.638 518.725C734.528 518.725 735.143 519.12 735.483 519.91C736.363 519.12 737.233 518.725 738.093 518.725C738.723 518.725 739.243 518.935 739.653 519.355C740.063 519.765 740.268 520.395 740.268 521.245V526H738.948V521.635C738.948 521.085 738.863 520.66 738.693 520.36C738.523 520.05 738.213 519.895 737.763 519.895C737.163 519.895 736.493 520.21 735.753 520.84C735.753 520.88 735.753 520.945 735.753 521.035C735.763 521.115 735.768 521.175 735.768 521.215V526H734.448V521.65C734.448 521.09 734.363 520.66 734.193 520.36C734.023 520.05 733.713 519.895 733.263 519.895C732.663 519.895 731.993 520.21 731.253 520.84V526H729.933ZM742.181 524.605V515.38H743.501V524.23C743.501 524.49 743.541 524.675 743.621 524.785C743.701 524.885 743.836 524.935 744.026 524.935C744.166 524.935 744.316 524.905 744.476 524.845L744.746 525.88C744.406 526.02 744.041 526.09 743.651 526.09C742.671 526.09 742.181 525.595 742.181 524.605ZM745.929 526V518.905H747.039L747.204 519.775C748.054 519.075 748.874 518.725 749.664 518.725C750.284 518.725 750.799 518.93 751.209 519.34C751.619 519.74 751.824 520.375 751.824 521.245V526H750.504V521.68C750.504 520.49 750.099 519.895 749.289 519.895C748.679 519.895 747.999 520.215 747.249 520.855V526H745.929ZM755.073 525.88C754.913 526.04 754.723 526.12 754.503 526.12C754.283 526.12 754.093 526.04 753.933 525.88C753.773 525.71 753.693 525.51 753.693 525.28C753.693 525.05 753.773 524.855 753.933 524.695C754.093 524.535 754.283 524.455 754.503 524.455C754.723 524.455 754.913 524.535 755.073 524.695C755.233 524.855 755.313 525.05 755.313 525.28C755.313 525.51 755.233 525.71 755.073 525.88ZM764.613 526.15C762.783 526.15 761.603 525.47 761.073 524.11C760.893 523.63 760.803 523.065 760.803 522.415V516.115H762.138V522.31C762.138 522.87 762.213 523.32 762.363 523.66C762.723 524.56 763.473 525.01 764.613 525.01C765.763 525.01 766.518 524.56 766.878 523.66C767.018 523.31 767.088 522.845 767.088 522.265V516.115H768.423V522.415C768.423 523.105 768.323 523.68 768.123 524.14C767.593 525.48 766.423 526.15 764.613 526.15ZM770.373 525.37L770.928 524.335C771.598 524.785 772.318 525.01 773.088 525.01C773.638 525.01 774.088 524.895 774.438 524.665C774.798 524.425 774.978 524.055 774.978 523.555C774.978 523.145 774.828 522.79 774.528 522.49C774.238 522.18 773.878 521.915 773.448 521.695C773.028 521.475 772.603 521.245 772.173 521.005C771.753 520.765 771.393 520.445 771.093 520.045C770.803 519.645 770.658 519.17 770.658 518.62C770.658 517.88 770.928 517.265 771.468 516.775C772.008 516.275 772.738 516.025 773.658 516.025C774.508 516.025 775.253 516.185 775.893 516.505V517.72C775.203 517.35 774.473 517.165 773.703 517.165C773.243 517.165 772.853 517.275 772.533 517.495C772.213 517.705 772.053 518.035 772.053 518.485C772.053 518.865 772.203 519.205 772.503 519.505C772.803 519.795 773.163 520.05 773.583 520.27C774.013 520.48 774.438 520.71 774.858 520.96C775.278 521.21 775.638 521.545 775.938 521.965C776.238 522.385 776.388 522.88 776.388 523.45C776.388 524.28 776.083 524.94 775.473 525.43C774.863 525.91 774.073 526.15 773.103 526.15C772.053 526.15 771.143 525.89 770.373 525.37ZM778.442 526V516.115H781.037C782.747 516.115 784.057 516.56 784.967 517.45C785.877 518.34 786.332 519.525 786.332 521.005C786.332 522.495 785.862 523.7 784.922 524.62C783.992 525.54 782.667 526 780.947 526H778.442ZM779.777 524.86H780.947C782.327 524.86 783.332 524.505 783.962 523.795C784.602 523.075 784.922 522.135 784.922 520.975C784.922 519.835 784.582 518.93 783.902 518.26C783.232 517.59 782.242 517.255 780.932 517.255H779.777V524.86Z" fill="#D9C88B"/>
<circle r="2.5" transform="matrix(-1 0 0 1 645.5 24.5)" fill="#EBBE65"/>
<circle r="2.5" transform="matrix(4.37114e-08 -1 -1 -4.37114e-08 549.5 128.5)" fill="#EBBE65"/>
<circle r="2.5" transform="matrix(-1 0 0 1 637.5 24.5)" fill="#EBBE65"/>
<circle r="2.5" transform="matrix(4.37114e-08 -1 -1 -4.37114e-08 549.5 120.5)" fill="#EBBE65"/>
<circle r="2.5" transform="matrix(-1 0 0 1 629.5 24.5)" fill="#EBBE65"/>
<circle r="2.5" transform="matrix(4.37114e-08 -1 -1 -4.37114e-08 549.5 112.5)" fill="#EBBE65"/>
<circle r="2.5" transform="matrix(-1 0 0 1 621.5 24.5)" fill="#EBBE65"/>
<circle r="2.5" transform="matrix(4.37114e-08 -1 -1 -4.37114e-08 549.5 104.5)" fill="#EBBE65"/>
<circle r="2.5" transform="matrix(-1 0 0 1 613.5 24.5)" fill="#EBBE65"/>
<circle r="2.5" transform="matrix(4.37114e-08 -1 -1 -4.37114e-08 549.5 96.5)" fill="#EBBE65"/>
<circle r="2.5" transform="matrix(-1 0 0 1 605.5 24.5)" fill="#EBBE65"/>
<circle r="2.5" transform="matrix(4.37114e-08 -1 -1 -4.37114e-08 549.5 88.5)" fill="#EBBE65"/>
<circle r="2.5" transform="matrix(-1 0 0 1 597.5 24.5)" fill="#EBBE65"/>
<circle r="2.5" transform="matrix(4.37114e-08 -1 -1 -4.37114e-08 549.5 80.5)" fill="#EBBE65"/>
<circle r="2.5" transform="matrix(-1 0 0 1 589.5 24.5)" fill="#EBBE65"/>
<circle r="2.5" transform="matrix(4.37114e-08 -1 -1 -4.37114e-08 549.5 72.5)" fill="#EBBE65"/>
<circle r="2.5" transform="matrix(-1 0 0 1 581.5 24.5)" fill="#EBBE65"/>
<circle r="2.5" transform="matrix(4.37114e-08 -1 -1 -4.37114e-08 549.5 64.5)" fill="#EBBE65"/>
<circle r="2.5" transform="matrix(-1 0 0 1 573.5 24.5)" fill="#EBBE65"/>
<circle r="2.5" transform="matrix(4.37114e-08 -1 -1 -4.37114e-08 549.5 56.5)" fill="#EBBE65"/>
<circle r="2.5" transform="matrix(-1 0 0 1 565.5 24.5)" fill="#EBBE65"/>
<circle r="2.5" transform="matrix(4.37114e-08 -1 -1 -4.37114e-08 549.5 48.5)" fill="#EBBE65"/>
<circle r="2.5" transform="matrix(-1 0 0 1 557.5 24.5)" fill="#EBBE65"/>
<circle r="2.5" transform="matrix(4.37114e-08 -1 -1 -4.37114e-08 549.5 40.5)" fill="#EBBE65"/>
<circle r="2.5" transform="matrix(-1 0 0 1 549.5 24.5)" fill="#EBBE65"/>
<circle r="2.5" transform="matrix(4.37114e-08 -1 -1 -4.37114e-08 549.5 32.5)" fill="#EBBE65"/>
<path d="M665.96 38V17.04L659.92 19.68L658.08 15.48L667.24 11.44H671.32V38H665.96ZM684.08 38.4C681.6 38.4 679.414 37.9333 677.52 37L678.84 32.72C680.547 33.6 682.24 34.04 683.92 34.04C685.867 34.04 687.387 33.48 688.48 32.36C689.574 31.2133 690.267 29.4533 690.56 27.08H690.48C688.934 28.2267 687.08 28.8 684.92 28.8C682.6 28.8 680.667 28.1067 679.12 26.72C677.574 25.3333 676.8 23.2933 676.8 20.6C676.8 17.8267 677.68 15.6 679.44 13.92C681.2 12.2133 683.454 11.36 686.2 11.36C689.267 11.36 691.707 12.4 693.52 14.48C695.36 16.5333 696.28 19.6533 696.28 23.84C696.28 28.5067 695.24 32.1067 693.16 34.64C691.107 37.1467 688.08 38.4 684.08 38.4ZM686.2 24.44C687.907 24.44 689.4 23.7733 690.68 22.44C690.654 20.4667 690.214 18.8533 689.36 17.6C688.534 16.3467 687.44 15.72 686.08 15.72C684.96 15.72 684.067 16.1333 683.4 16.96C682.734 17.76 682.4 18.8267 682.4 20.16C682.4 21.52 682.734 22.5733 683.4 23.32C684.067 24.0667 685 24.44 686.2 24.44ZM706.773 25.6C704.826 25.6 703.239 25 702.013 23.8C700.813 22.5733 700.213 20.8 700.213 18.48C700.213 16.16 700.813 14.4 702.013 13.2C703.239 11.9733 704.826 11.36 706.773 11.36C708.746 11.36 710.333 11.9733 711.533 13.2C712.733 14.4 713.333 16.16 713.333 18.48C713.333 20.8 712.733 22.5733 711.533 23.8C710.333 25 708.746 25.6 706.773 25.6ZM706.773 22.44C708.346 22.44 709.133 21.12 709.133 18.48C709.133 15.84 708.346 14.52 706.773 14.52C705.226 14.52 704.453 15.84 704.453 18.48C704.453 21.12 705.226 22.44 706.773 22.44ZM725.893 38.4C723.919 38.4 722.333 37.8 721.133 36.6C719.933 35.3733 719.333 33.6 719.333 31.28C719.333 28.96 719.933 27.2 721.133 26C722.333 24.7733 723.919 24.16 725.893 24.16C727.839 24.16 729.413 24.7733 730.613 26C731.839 27.2 732.453 28.96 732.453 31.28C732.453 33.6 731.839 35.3733 730.613 36.6C729.413 37.8 727.839 38.4 725.893 38.4ZM725.893 35.24C727.439 35.24 728.213 33.92 728.213 31.28C728.213 28.64 727.439 27.32 725.893 27.32C724.319 27.32 723.533 28.64 723.533 31.28C723.533 33.92 724.319 35.24 725.893 35.24ZM705.813 38L722.453 11.64H726.813L710.133 38H705.813Z" fill="white"/>
<path d="M635.54 63C635.6 62.3 635.735 61.665 635.945 61.095C636.155 60.525 636.405 60.055 636.695 59.685C636.985 59.315 637.3 58.98 637.64 58.68C637.98 58.37 638.31 58.1 638.63 57.87C638.96 57.64 639.255 57.42 639.515 57.21C639.785 56.99 640 56.75 640.16 56.49C640.33 56.22 640.415 55.93 640.415 55.62C640.415 55.13 640.255 54.765 639.935 54.525C639.615 54.285 639.21 54.165 638.72 54.165C637.94 54.165 637.12 54.39 636.26 54.84L635.885 53.805C636.845 53.285 637.84 53.025 638.87 53.025C639.83 53.025 640.56 53.255 641.06 53.715C641.56 54.175 641.81 54.775 641.81 55.515C641.81 55.975 641.71 56.4 641.51 56.79C641.31 57.17 641.055 57.49 640.745 57.75C640.445 58 640.105 58.27 639.725 58.56C639.355 58.85 639.005 59.13 638.675 59.4C638.345 59.67 638.045 60.02 637.775 60.45C637.505 60.88 637.325 61.35 637.235 61.86H641.84V63H635.54ZM643.275 64.785C643.735 64.025 643.965 63.265 643.965 62.505C643.965 62.175 643.935 61.845 643.875 61.515L645.15 61.275C645.22 61.565 645.255 61.88 645.255 62.22C645.255 63.29 644.83 64.27 643.98 65.16L643.275 64.785ZM647.51 63C648.14 59.73 649.4 56.815 651.29 54.255H646.925L646.61 53.115H653.06V53.64C650.95 56.31 649.56 59.43 648.89 63H647.51ZM657.698 63V55.905H658.808L658.958 56.775C659.818 56.075 660.633 55.725 661.403 55.725C662.293 55.725 662.908 56.12 663.248 56.91C664.128 56.12 664.998 55.725 665.858 55.725C666.488 55.725 667.008 55.935 667.418 56.355C667.828 56.765 668.033 57.395 668.033 58.245V63H666.713V58.635C666.713 58.085 666.628 57.66 666.458 57.36C666.288 57.05 665.978 56.895 665.528 56.895C664.928 56.895 664.258 57.21 663.518 57.84C663.518 57.88 663.518 57.945 663.518 58.035C663.528 58.115 663.533 58.175 663.533 58.215V63H662.213V58.65C662.213 58.09 662.128 57.66 661.958 57.36C661.788 57.05 661.478 56.895 661.028 56.895C660.428 56.895 659.758 57.21 659.018 57.84V63H657.698ZM669.945 61.605V52.38H671.265V61.23C671.265 61.49 671.305 61.675 671.385 61.785C671.465 61.885 671.6 61.935 671.79 61.935C671.93 61.935 672.08 61.905 672.24 61.845L672.51 62.88C672.17 63.02 671.805 63.09 671.415 63.09C670.435 63.09 669.945 62.595 669.945 61.605ZM673.694 63V55.905H674.804L674.969 56.775C675.819 56.075 676.639 55.725 677.429 55.725C678.049 55.725 678.564 55.93 678.974 56.34C679.384 56.74 679.589 57.375 679.589 58.245V63H678.269V58.68C678.269 57.49 677.864 56.895 677.054 56.895C676.444 56.895 675.764 57.215 675.014 57.855V63H673.694ZM682.838 62.88C682.678 63.04 682.488 63.12 682.268 63.12C682.048 63.12 681.858 63.04 681.698 62.88C681.538 62.71 681.458 62.51 681.458 62.28C681.458 62.05 681.538 61.855 681.698 61.695C681.858 61.535 682.048 61.455 682.268 61.455C682.488 61.455 682.678 61.535 682.838 61.695C682.998 61.855 683.078 62.05 683.078 62.28C683.078 62.51 682.998 62.71 682.838 62.88ZM692.378 63.15C690.548 63.15 689.368 62.47 688.838 61.11C688.658 60.63 688.568 60.065 688.568 59.415V53.115H689.903V59.31C689.903 59.87 689.978 60.32 690.128 60.66C690.488 61.56 691.238 62.01 692.378 62.01C693.528 62.01 694.283 61.56 694.643 60.66C694.783 60.31 694.853 59.845 694.853 59.265V53.115H696.188V59.415C696.188 60.105 696.088 60.68 695.888 61.14C695.358 62.48 694.188 63.15 692.378 63.15ZM698.138 62.37L698.693 61.335C699.363 61.785 700.083 62.01 700.853 62.01C701.403 62.01 701.853 61.895 702.203 61.665C702.563 61.425 702.743 61.055 702.743 60.555C702.743 60.145 702.593 59.79 702.293 59.49C702.003 59.18 701.643 58.915 701.213 58.695C700.793 58.475 700.368 58.245 699.938 58.005C699.518 57.765 699.158 57.445 698.858 57.045C698.568 56.645 698.423 56.17 698.423 55.62C698.423 54.88 698.693 54.265 699.233 53.775C699.773 53.275 700.503 53.025 701.423 53.025C702.273 53.025 703.018 53.185 703.658 53.505V54.72C702.968 54.35 702.238 54.165 701.468 54.165C701.008 54.165 700.618 54.275 700.298 54.495C699.978 54.705 699.818 55.035 699.818 55.485C699.818 55.865 699.968 56.205 700.268 56.505C700.568 56.795 700.928 57.05 701.348 57.27C701.778 57.48 702.203 57.71 702.623 57.96C703.043 58.21 703.403 58.545 703.703 58.965C704.003 59.385 704.153 59.88 704.153 60.45C704.153 61.28 703.848 61.94 703.238 62.43C702.628 62.91 701.838 63.15 700.868 63.15C699.818 63.15 698.908 62.89 698.138 62.37ZM706.206 63V53.115H708.801C710.511 53.115 711.821 53.56 712.731 54.45C713.641 55.34 714.096 56.525 714.096 58.005C714.096 59.495 713.626 60.7 712.686 61.62C711.756 62.54 710.431 63 708.711 63H706.206ZM707.541 61.86H708.711C710.091 61.86 711.096 61.505 711.726 60.795C712.366 60.075 712.686 59.135 712.686 57.975C712.686 56.835 712.346 55.93 711.666 55.26C710.996 54.59 710.006 54.255 708.696 54.255H707.541V61.86Z" fill="#D9C88B"/>
<path d="M235.68 476.197V446.281L594.663 265.331C594.663 265.331 613.073 279.708 628.169 302.56L647.197 323.702L647.452 356.574C647.554 358.729 647.573 360.906 647.503 363.103C646.443 396.278 624.972 433.977 558.91 469.63C421.009 544.053 235.68 476.197 235.68 476.197Z" fill="url(#paint52_linear)"/>
<path d="M235.68 476.197V446.281L594.663 265.331C594.663 265.331 613.073 279.708 628.169 302.56L647.197 323.702L647.452 356.574C647.554 358.729 647.573 360.906 647.503 363.103C646.443 396.278 624.972 433.977 558.91 469.63C421.009 544.053 235.68 476.197 235.68 476.197Z" fill="url(#paint53_linear)"/>
<path d="M388.904 325.891L235.68 445.552C235.68 445.552 421.009 513.408 558.91 438.985C734.753 344.086 594.663 234.687 594.663 234.687L388.904 325.891Z" fill="url(#paint54_linear)"/>
<path d="M131.342 370.399V301.813C136.6 348.031 169.118 373.769 235.68 415.637V475.467C167.824 452.119 131.342 389.37 131.342 370.399Z" fill="#0195AA"/>
<path d="M131.342 370.399V301.813C136.6 348.031 169.118 373.769 235.68 415.637V475.467C167.824 452.119 131.342 389.37 131.342 370.399Z" fill="url(#paint55_linear)"/>
<path d="M388.904 325.892L235.68 445.553V415.638L388.904 294.518V325.892Z" fill="url(#paint56_linear)"/>
<path d="M388.904 325.892L235.68 445.553V415.638L388.904 294.518V325.892Z" fill="url(#paint57_linear)"/>
<path d="M207.954 189.449L388.904 294.517L235.68 415.637C235.68 415.637 140.631 369.659 132.072 313.488C120.397 236.876 207.954 189.449 207.954 189.449Z" fill="url(#paint58_linear)"/>
<path d="M499.81 129.618C383.797 101.892 283.107 116.485 207.954 158.803L388.904 264.601L499.81 129.618Z" fill="url(#paint59_linear)"/>
<path d="M388.904 233.227V325.891L594.662 234.686V142.752L388.904 233.227Z" fill="url(#paint60_linear)"/>
<path d="M388.904 233.227V325.891L594.662 234.686V142.752L388.904 233.227Z" fill="url(#paint61_linear)"/>
<path d="M523.887 107L388.904 233.227L594.662 142.752C567.407 125.07 551.939 116.979 523.887 107Z" fill="url(#paint62_linear)"/>
<path d="M207.954 158.805V189.45L388.904 294.517V264.602L207.954 158.805Z" fill="url(#paint63_linear)"/>
<path d="M207.954 158.805V189.45L388.904 294.517V264.602L207.954 158.805Z" fill="url(#paint64_linear)"/>
<defs>
<linearGradient id="paint0_linear" x1="178.608" y1="33.3003" x2="178.653" y2="40.2226" gradientUnits="userSpaceOnUse">
<stop stop-color="#D9C88B"/>
<stop offset="1" stop-color="#AA9036"/>
</linearGradient>
<linearGradient id="paint1_linear" x1="274.608" y1="137.3" x2="274.653" y2="144.223" gradientUnits="userSpaceOnUse">
<stop stop-color="#D9C88B"/>
<stop offset="1" stop-color="#AA9036"/>
</linearGradient>
<linearGradient id="paint2_linear" x1="186.608" y1="33.3003" x2="186.653" y2="40.2226" gradientUnits="userSpaceOnUse">
<stop stop-color="#D9C88B"/>
<stop offset="1" stop-color="#AA9036"/>
</linearGradient>
<linearGradient id="paint3_linear" x1="274.608" y1="129.3" x2="274.653" y2="136.223" gradientUnits="userSpaceOnUse">
<stop stop-color="#D9C88B"/>
<stop offset="1" stop-color="#AA9036"/>
</linearGradient>
<linearGradient id="paint4_linear" x1="194.608" y1="33.3003" x2="194.653" y2="40.2226" gradientUnits="userSpaceOnUse">
<stop stop-color="#D9C88B"/>
<stop offset="1" stop-color="#AA9036"/>
</linearGradient>
<linearGradient id="paint5_linear" x1="274.608" y1="121.3" x2="274.653" y2="128.223" gradientUnits="userSpaceOnUse">
<stop stop-color="#D9C88B"/>
<stop offset="1" stop-color="#AA9036"/>
</linearGradient>
<linearGradient id="paint6_linear" x1="202.608" y1="33.3003" x2="202.653" y2="40.2226" gradientUnits="userSpaceOnUse">
<stop stop-color="#D9C88B"/>
<stop offset="1" stop-color="#AA9036"/>
</linearGradient>
<linearGradient id="paint7_linear" x1="274.608" y1="113.3" x2="274.653" y2="120.223" gradientUnits="userSpaceOnUse">
<stop stop-color="#D9C88B"/>
<stop offset="1" stop-color="#AA9036"/>
</linearGradient>
<linearGradient id="paint8_linear" x1="210.608" y1="33.3003" x2="210.653" y2="40.2226" gradientUnits="userSpaceOnUse">
<stop stop-color="#D9C88B"/>
<stop offset="1" stop-color="#AA9036"/>
</linearGradient>
<linearGradient id="paint9_linear" x1="274.608" y1="105.3" x2="274.653" y2="112.223" gradientUnits="userSpaceOnUse">
<stop stop-color="#D9C88B"/>
<stop offset="1" stop-color="#AA9036"/>
</linearGradient>
<linearGradient id="paint10_linear" x1="218.608" y1="33.3003" x2="218.653" y2="40.2226" gradientUnits="userSpaceOnUse">
<stop stop-color="#D9C88B"/>
<stop offset="1" stop-color="#AA9036"/>
</linearGradient>
<linearGradient id="paint11_linear" x1="274.608" y1="97.3003" x2="274.653" y2="104.223" gradientUnits="userSpaceOnUse">
<stop stop-color="#D9C88B"/>
<stop offset="1" stop-color="#AA9036"/>
</linearGradient>
<linearGradient id="paint12_linear" x1="226.608" y1="33.3003" x2="226.653" y2="40.2226" gradientUnits="userSpaceOnUse">
<stop stop-color="#D9C88B"/>
<stop offset="1" stop-color="#AA9036"/>
</linearGradient>
<linearGradient id="paint13_linear" x1="274.608" y1="89.3003" x2="274.653" y2="96.2226" gradientUnits="userSpaceOnUse">
<stop stop-color="#D9C88B"/>
<stop offset="1" stop-color="#AA9036"/>
</linearGradient>
<linearGradient id="paint14_linear" x1="234.608" y1="33.3003" x2="234.653" y2="40.2226" gradientUnits="userSpaceOnUse">
<stop stop-color="#D9C88B"/>
<stop offset="1" stop-color="#AA9036"/>
</linearGradient>
<linearGradient id="paint15_linear" x1="274.608" y1="81.3003" x2="274.653" y2="88.2226" gradientUnits="userSpaceOnUse">
<stop stop-color="#D9C88B"/>
<stop offset="1" stop-color="#AA9036"/>
</linearGradient>
<linearGradient id="paint16_linear" x1="242.608" y1="33.3003" x2="242.653" y2="40.2226" gradientUnits="userSpaceOnUse">
<stop stop-color="#D9C88B"/>
<stop offset="1" stop-color="#AA9036"/>
</linearGradient>
<linearGradient id="paint17_linear" x1="274.608" y1="73.3003" x2="274.653" y2="80.2226" gradientUnits="userSpaceOnUse">
<stop stop-color="#D9C88B"/>
<stop offset="1" stop-color="#AA9036"/>
</linearGradient>
<linearGradient id="paint18_linear" x1="250.608" y1="33.3003" x2="250.653" y2="40.2226" gradientUnits="userSpaceOnUse">
<stop stop-color="#D9C88B"/>
<stop offset="1" stop-color="#AA9036"/>
</linearGradient>
<linearGradient id="paint19_linear" x1="274.608" y1="65.3003" x2="274.653" y2="72.2226" gradientUnits="userSpaceOnUse">
<stop stop-color="#D9C88B"/>
<stop offset="1" stop-color="#AA9036"/>
</linearGradient>
<linearGradient id="paint20_linear" x1="258.608" y1="33.3003" x2="258.653" y2="40.2226" gradientUnits="userSpaceOnUse">
<stop stop-color="#D9C88B"/>
<stop offset="1" stop-color="#AA9036"/>
</linearGradient>
<linearGradient id="paint21_linear" x1="274.608" y1="57.3003" x2="274.653" y2="64.2226" gradientUnits="userSpaceOnUse">
<stop stop-color="#D9C88B"/>
<stop offset="1" stop-color="#AA9036"/>
</linearGradient>
<linearGradient id="paint22_linear" x1="266.608" y1="33.3003" x2="266.653" y2="40.2226" gradientUnits="userSpaceOnUse">
<stop stop-color="#D9C88B"/>
<stop offset="1" stop-color="#AA9036"/>
</linearGradient>
<linearGradient id="paint23_linear" x1="274.608" y1="49.3003" x2="274.653" y2="56.2226" gradientUnits="userSpaceOnUse">
<stop stop-color="#D9C88B"/>
<stop offset="1" stop-color="#AA9036"/>
</linearGradient>
<linearGradient id="paint24_linear" x1="274.608" y1="33.3003" x2="274.653" y2="40.2226" gradientUnits="userSpaceOnUse">
<stop stop-color="#D9C88B"/>
<stop offset="1" stop-color="#AA9036"/>
</linearGradient>
<linearGradient id="paint25_linear" x1="274.608" y1="41.3003" x2="274.653" y2="48.2226" gradientUnits="userSpaceOnUse">
<stop stop-color="#D9C88B"/>
<stop offset="1" stop-color="#AA9036"/>
</linearGradient>
<linearGradient id="paint26_linear" x1="704.608" y1="484.3" x2="704.653" y2="491.223" gradientUnits="userSpaceOnUse">
<stop stop-color="#D9C88B"/>
<stop offset="1" stop-color="#AA9036"/>
</linearGradient>
<linearGradient id="paint27_linear" x1="608.608" y1="380.3" x2="608.653" y2="387.223" gradientUnits="userSpaceOnUse">
<stop stop-color="#D9C88B"/>
<stop offset="1" stop-color="#AA9036"/>
</linearGradient>
<linearGradient id="paint28_linear" x1="696.608" y1="484.3" x2="696.653" y2="491.223" gradientUnits="userSpaceOnUse">
<stop stop-color="#D9C88B"/>
<stop offset="1" stop-color="#AA9036"/>
</linearGradient>
<linearGradient id="paint29_linear" x1="608.608" y1="388.3" x2="608.653" y2="395.223" gradientUnits="userSpaceOnUse">
<stop stop-color="#D9C88B"/>
<stop offset="1" stop-color="#AA9036"/>
</linearGradient>
<linearGradient id="paint30_linear" x1="688.608" y1="484.3" x2="688.653" y2="491.223" gradientUnits="userSpaceOnUse">
<stop stop-color="#D9C88B"/>
<stop offset="1" stop-color="#AA9036"/>
</linearGradient>
<linearGradient id="paint31_linear" x1="608.608" y1="396.3" x2="608.653" y2="403.223" gradientUnits="userSpaceOnUse">
<stop stop-color="#D9C88B"/>
<stop offset="1" stop-color="#AA9036"/>
</linearGradient>
<linearGradient id="paint32_linear" x1="680.608" y1="484.3" x2="680.653" y2="491.223" gradientUnits="userSpaceOnUse">
<stop stop-color="#D9C88B"/>
<stop offset="1" stop-color="#AA9036"/>
</linearGradient>
<linearGradient id="paint33_linear" x1="608.608" y1="404.3" x2="608.653" y2="411.223" gradientUnits="userSpaceOnUse">
<stop stop-color="#D9C88B"/>
<stop offset="1" stop-color="#AA9036"/>
</linearGradient>
<linearGradient id="paint34_linear" x1="672.608" y1="484.3" x2="672.653" y2="491.223" gradientUnits="userSpaceOnUse">
<stop stop-color="#D9C88B"/>
<stop offset="1" stop-color="#AA9036"/>
</linearGradient>
<linearGradient id="paint35_linear" x1="608.608" y1="412.3" x2="608.653" y2="419.223" gradientUnits="userSpaceOnUse">
<stop stop-color="#D9C88B"/>
<stop offset="1" stop-color="#AA9036"/>
</linearGradient>
<linearGradient id="paint36_linear" x1="664.608" y1="484.3" x2="664.653" y2="491.223" gradientUnits="userSpaceOnUse">
<stop stop-color="#D9C88B"/>
<stop offset="1" stop-color="#AA9036"/>
</linearGradient>
<linearGradient id="paint37_linear" x1="608.608" y1="420.3" x2="608.653" y2="427.223" gradientUnits="userSpaceOnUse">
<stop stop-color="#D9C88B"/>
<stop offset="1" stop-color="#AA9036"/>
</linearGradient>
<linearGradient id="paint38_linear" x1="656.608" y1="484.3" x2="656.653" y2="491.223" gradientUnits="userSpaceOnUse">
<stop stop-color="#D9C88B"/>
<stop offset="1" stop-color="#AA9036"/>
</linearGradient>
<linearGradient id="paint39_linear" x1="608.608" y1="428.3" x2="608.653" y2="435.223" gradientUnits="userSpaceOnUse">
<stop stop-color="#D9C88B"/>
<stop offset="1" stop-color="#AA9036"/>
</linearGradient>
<linearGradient id="paint40_linear" x1="648.608" y1="484.3" x2="648.653" y2="491.223" gradientUnits="userSpaceOnUse">
<stop stop-color="#D9C88B"/>
<stop offset="1" stop-color="#AA9036"/>
</linearGradient>
<linearGradient id="paint41_linear" x1="608.608" y1="436.3" x2="608.653" y2="443.223" gradientUnits="userSpaceOnUse">
<stop stop-color="#D9C88B"/>
<stop offset="1" stop-color="#AA9036"/>
</linearGradient>
<linearGradient id="paint42_linear" x1="640.608" y1="484.3" x2="640.653" y2="491.223" gradientUnits="userSpaceOnUse">
<stop stop-color="#D9C88B"/>
<stop offset="1" stop-color="#AA9036"/>
</linearGradient>
<linearGradient id="paint43_linear" x1="608.608" y1="444.3" x2="608.653" y2="451.223" gradientUnits="userSpaceOnUse">
<stop stop-color="#D9C88B"/>
<stop offset="1" stop-color="#AA9036"/>
</linearGradient>
<linearGradient id="paint44_linear" x1="632.608" y1="484.3" x2="632.653" y2="491.223" gradientUnits="userSpaceOnUse">
<stop stop-color="#D9C88B"/>
<stop offset="1" stop-color="#AA9036"/>
</linearGradient>
<linearGradient id="paint45_linear" x1="608.608" y1="452.3" x2="608.653" y2="459.223" gradientUnits="userSpaceOnUse">
<stop stop-color="#D9C88B"/>
<stop offset="1" stop-color="#AA9036"/>
</linearGradient>
<linearGradient id="paint46_linear" x1="624.608" y1="484.3" x2="624.653" y2="491.223" gradientUnits="userSpaceOnUse">
<stop stop-color="#D9C88B"/>
<stop offset="1" stop-color="#AA9036"/>
</linearGradient>
<linearGradient id="paint47_linear" x1="608.608" y1="460.3" x2="608.653" y2="467.223" gradientUnits="userSpaceOnUse">
<stop stop-color="#D9C88B"/>
<stop offset="1" stop-color="#AA9036"/>
</linearGradient>
<linearGradient id="paint48_linear" x1="616.608" y1="484.3" x2="616.653" y2="491.223" gradientUnits="userSpaceOnUse">
<stop stop-color="#D9C88B"/>
<stop offset="1" stop-color="#AA9036"/>
</linearGradient>
<linearGradient id="paint49_linear" x1="608.608" y1="468.3" x2="608.653" y2="475.223" gradientUnits="userSpaceOnUse">
<stop stop-color="#D9C88B"/>
<stop offset="1" stop-color="#AA9036"/>
</linearGradient>
<linearGradient id="paint50_linear" x1="608.608" y1="484.3" x2="608.653" y2="491.223" gradientUnits="userSpaceOnUse">
<stop stop-color="#D9C88B"/>
<stop offset="1" stop-color="#AA9036"/>
</linearGradient>
<linearGradient id="paint51_linear" x1="608.608" y1="476.3" x2="608.653" y2="483.223" gradientUnits="userSpaceOnUse">
<stop stop-color="#D9C88B"/>
<stop offset="1" stop-color="#AA9036"/>
</linearGradient>
<linearGradient id="paint52_linear" x1="647.197" y1="354.347" x2="252.462" y2="474.737" gradientUnits="userSpaceOnUse">
<stop stop-color="#BC02AD"/>
<stop offset="1" stop-color="#400EBB"/>
</linearGradient>
<linearGradient id="paint53_linear" x1="326" y1="353.5" x2="404" y2="567.5" gradientUnits="userSpaceOnUse">
<stop stop-color="#663DA8"/>
<stop offset="1" stop-color="#352057"/>
</linearGradient>
<linearGradient id="paint54_linear" x1="647.197" y1="302.543" x2="247.355" y2="447.741" gradientUnits="userSpaceOnUse">
<stop stop-color="#663DA8"/>
<stop offset="1" stop-color="#352057"/>
</linearGradient>
<linearGradient id="paint55_linear" x1="228.5" y1="307.5" x2="135.908" y2="389.201" gradientUnits="userSpaceOnUse">
<stop stop-color="#E4AEE4"/>
<stop offset="1" stop-color="#A357A3"/>
</linearGradient>
<linearGradient id="paint56_linear" x1="393.282" y1="301.814" x2="235.68" y2="444.093" gradientUnits="userSpaceOnUse">
<stop stop-color="#00C7C3"/>
<stop offset="1" stop-color="#01AAC5"/>
</linearGradient>
<linearGradient id="paint57_linear" x1="388.904" y1="385.944" x2="242.386" y2="385.944" gradientUnits="userSpaceOnUse">
<stop stop-color="#E4AEE4"/>
<stop offset="1" stop-color="#A357A3"/>
</linearGradient>
<linearGradient id="paint58_linear" x1="388.904" y1="303.273" x2="142.287" y2="303.273" gradientUnits="userSpaceOnUse">
<stop stop-color="#E4AEE4"/>
<stop offset="1" stop-color="#A357A3"/>
</linearGradient>
<linearGradient id="paint59_linear" x1="353.882" y1="115.432" x2="353.882" y2="264.601" gradientUnits="userSpaceOnUse">
<stop stop-color="#C9B2EF"/>
<stop offset="1" stop-color="#543784"/>
</linearGradient>
<linearGradient id="paint60_linear" x1="594.662" y1="190.178" x2="388.904" y2="279.924" gradientUnits="userSpaceOnUse">
<stop stop-color="#FFA901"/>
<stop offset="1" stop-color="#FF8D00"/>
</linearGradient>
<linearGradient id="paint61_linear" x1="491.783" y1="142.752" x2="491.783" y2="325.891" gradientUnits="userSpaceOnUse">
<stop stop-color="#FAD48A"/>
<stop offset="1" stop-color="#DAA236"/>
</linearGradient>
<linearGradient id="paint62_linear" x1="491.783" y1="107" x2="491.783" y2="233.227" gradientUnits="userSpaceOnUse">
<stop stop-color="#FAD48A"/>
<stop offset="1" stop-color="#DAA236"/>
</linearGradient>
<linearGradient id="paint63_linear" x1="207.954" y1="168.29" x2="385.986" y2="288.68" gradientUnits="userSpaceOnUse">
<stop stop-color="#C201A7"/>
<stop offset="1" stop-color="#FC2801"/>
</linearGradient>
<linearGradient id="paint64_linear" x1="298.429" y1="158.805" x2="298.429" y2="294.517" gradientUnits="userSpaceOnUse">
<stop stop-color="#C9B2EF"/>
<stop offset="1" stop-color="#543784"/>
</linearGradient>
</defs>
</svg>
