<svg width="61" height="62" fill="none" xmlns="http://www.w3.org/2000/svg"><g filter="url(#filter0_d)"><path d="M40.48 20l-5.69 5.689L30.24 20l-4.551 5.689L20 20v14.79h20.48V20zM22.276 41.617h15.928a2.276 2.276 0 002.276-2.275v-2.276H20v2.276a2.276 2.276 0 002.276 2.275z" fill="#000"/><path d="M40.48 20l-5.69 5.689L30.24 20l-4.551 5.689L20 20v14.79h20.48V20zM22.276 41.617h15.928a2.276 2.276 0 002.276-2.275v-2.276H20v2.276a2.276 2.276 0 002.276 2.275z" fill="url(#paint0_linear)"/></g><defs><linearGradient id="paint0_linear" x1="30.24" y1="20" x2="30.24" y2="41.617" gradientUnits="userSpaceOnUse"><stop stop-color="#C9B2EF"/><stop offset="1" stop-color="#543784"/></linearGradient><filter id="filter0_d" x="0" y="0" width="60.48" height="61.617" filterUnits="userSpaceOnUse" color-interpolation-filters="sRGB"><feFlood flood-opacity="0" result="BackgroundImageFix"/><feColorMatrix in="SourceAlpha" values="0 0 0 0 0 0 0 0 0 0 0 0 0 0 0 0 0 0 127 0"/><feOffset/><feGaussianBlur stdDeviation="10"/><feColorMatrix values="0 0 0 0 0 0 0 0 0 0 0 0 0 0 0 0 0 0 0.5 0"/><feBlend in2="BackgroundImageFix" result="effect1_dropShadow"/><feBlend in="SourceGraphic" in2="effect1_dropShadow" result="shape"/></filter></defs></svg>