<svg width="27" height="26" fill="none" xmlns="http://www.w3.org/2000/svg"><path d="M13.474 0C6.31 0 .5 5.81.5 12.974c0 6.475 4.744 11.842 10.947 12.819v-9.067H8.151v-3.752h3.296v-2.858c0-3.254 1.938-5.049 4.9-5.049 1.42 0 2.906.253 2.906.253v3.19h-1.64c-1.609 0-2.112 1.002-2.112 2.029v2.433h3.595l-.574 3.751H15.5v9.067c6.204-.971 10.947-6.34 10.947-12.816C26.448 5.81 20.64 0 13.474 0z" fill="#000"/><path d="M13.474 0C6.31 0 .5 5.81.5 12.974c0 6.475 4.744 11.842 10.947 12.819v-9.067H8.151v-3.752h3.296v-2.858c0-3.254 1.938-5.049 4.9-5.049 1.42 0 2.906.253 2.906.253v3.19h-1.64c-1.609 0-2.112 1.002-2.112 2.029v2.433h3.595l-.574 3.751H15.5v9.067c6.204-.971 10.947-6.34 10.947-12.816C26.448 5.81 20.64 0 13.474 0z" fill="url(#paint0_linear)"/><defs><linearGradient id="paint0_linear" x1="13.474" y1="0" x2="13.474" y2="25.793" gradientUnits="userSpaceOnUse"><stop stop-color="#B299DA"/><stop offset="1" stop-color="#543784"/></linearGradient></defs></svg>