<svg width="74" height="67" fill="none" xmlns="http://www.w3.org/2000/svg"><g filter="url(#filter0_d)"><path d="M50.375 20H26.75a3.378 3.378 0 00-3.375 3.375v8.438h3.375V26.75l10.8 8.1a1.69 1.69 0 002.025 0l10.8-8.1v15.188h-13.5v3.374h13.5a3.378 3.378 0 003.375-3.374V23.375A3.378 3.378 0 0050.375 20zM38.562 31.39l-10.688-8.015H49.25l-10.688 8.016z" fill="#000"/><path d="M50.375 20H26.75a3.378 3.378 0 00-3.375 3.375v8.438h3.375V26.75l10.8 8.1a1.69 1.69 0 002.025 0l10.8-8.1v15.188h-13.5v3.374h13.5a3.378 3.378 0 003.375-3.374V23.375A3.378 3.378 0 0050.375 20zM38.562 31.39l-10.688-8.015H49.25l-10.688 8.016z" fill="url(#paint0_linear)"/><path d="M20 33.5h11.813v3.375H20V33.5zm3.375 5.063H33.5v3.374H23.375v-3.374zm5.063 5.062h6.75V47h-6.75v-3.375z" fill="#000"/><path d="M20 33.5h11.813v3.375H20V33.5zm3.375 5.063H33.5v3.374H23.375v-3.374zm5.063 5.062h6.75V47h-6.75v-3.375z" fill="url(#paint1_linear)"/></g><defs><linearGradient id="paint0_linear" x1="38.563" y1="20" x2="38.563" y2="45.313" gradientUnits="userSpaceOnUse"><stop stop-color="#B299DA"/><stop offset="1" stop-color="#543784"/></linearGradient><linearGradient id="paint1_linear" x1="27.594" y1="33.5" x2="27.594" y2="47" gradientUnits="userSpaceOnUse"><stop stop-color="#B299DA"/><stop offset="1" stop-color="#543784"/></linearGradient><filter id="filter0_d" x="0" y="0" width="73.75" height="67" filterUnits="userSpaceOnUse" color-interpolation-filters="sRGB"><feFlood flood-opacity="0" result="BackgroundImageFix"/><feColorMatrix in="SourceAlpha" values="0 0 0 0 0 0 0 0 0 0 0 0 0 0 0 0 0 0 127 0"/><feOffset/><feGaussianBlur stdDeviation="10"/><feColorMatrix values="0 0 0 0 0 0 0 0 0 0 0 0 0 0 0 0 0 0 0.5 0"/><feBlend in2="BackgroundImageFix" result="effect1_dropShadow"/><feBlend in="SourceGraphic" in2="effect1_dropShadow" result="shape"/></filter></defs></svg>