<svg width="63" height="56" fill="none" xmlns="http://www.w3.org/2000/svg"><g filter="url(#filter0_d)"><path d="M31.378 20C25.724 20 20 21.759 20 25.12c0 3.36 5.724 5.12 11.378 5.12s11.377-1.76 11.377-5.12c0-3.361-5.723-5.12-11.378-5.12zm-5.69 11.307v3.413c1.408.34 2.965.549 4.552.616v-3.413a24.089 24.089 0 01-4.551-.616zm6.827.614v3.414a23.884 23.884 0 004.551-.616v-3.413c-1.406.34-2.964.548-4.55.615zm6.827-1.343v3.413c2.049-.86 3.413-2.113 3.413-3.751v-3.413c0 1.638-1.364 2.892-3.413 3.75zM23.413 33.99v-3.413C21.365 29.718 20 28.464 20 26.826v3.414c0 1.637 1.365 2.892 3.413 3.75z" fill="#000"/><path d="M31.378 20C25.724 20 20 21.759 20 25.12c0 3.36 5.724 5.12 11.378 5.12s11.377-1.76 11.377-5.12c0-3.361-5.723-5.12-11.378-5.12zm-5.69 11.307v3.413c1.408.34 2.965.549 4.552.616v-3.413a24.089 24.089 0 01-4.551-.616zm6.827.614v3.414a23.884 23.884 0 004.551-.616v-3.413c-1.406.34-2.964.548-4.55.615zm6.827-1.343v3.413c2.049-.86 3.413-2.113 3.413-3.751v-3.413c0 1.638-1.364 2.892-3.413 3.75zM23.413 33.99v-3.413C21.365 29.718 20 28.464 20 26.826v3.414c0 1.637 1.365 2.892 3.413 3.75z" fill="url(#paint0_linear)"/></g><defs><linearGradient id="paint0_linear" x1="31.378" y1="20" x2="31.378" y2="35.336" gradientUnits="userSpaceOnUse"><stop stop-color="#C9B2EF"/><stop offset="1" stop-color="#543784"/></linearGradient><filter id="filter0_d" x="0" y="0" width="62.755" height="55.336" filterUnits="userSpaceOnUse" color-interpolation-filters="sRGB"><feFlood flood-opacity="0" result="BackgroundImageFix"/><feColorMatrix in="SourceAlpha" values="0 0 0 0 0 0 0 0 0 0 0 0 0 0 0 0 0 0 127 0"/><feOffset/><feGaussianBlur stdDeviation="10"/><feColorMatrix values="0 0 0 0 0 0 0 0 0 0 0 0 0 0 0 0 0 0 0.5 0"/><feBlend in2="BackgroundImageFix" result="effect1_dropShadow"/><feBlend in="SourceGraphic" in2="effect1_dropShadow" result="shape"/></filter></defs></svg>