<svg width="25" height="25" viewBox="0 0 25 25" fill="none" xmlns="http://www.w3.org/2000/svg">
<path d="M14.8123 7.40615H2.46872C1.10722 7.40615 0 8.51337 0 9.87487V22.2185C0 23.58 1.10722 24.6872 2.46872 24.6872H14.8123C16.1738 24.6872 17.281 23.58 17.281 22.2185V9.87487C17.281 8.51337 16.1738 7.40615 14.8123 7.40615Z" fill="url(#paint0_linear)"/>
<path d="M14.8123 7.40615H2.46872C1.10722 7.40615 0 8.51337 0 9.87487V22.2185C0 23.58 1.10722 24.6872 2.46872 24.6872H14.8123C16.1738 24.6872 17.281 23.58 17.281 22.2185V9.87487C17.281 8.51337 16.1738 7.40615 14.8123 7.40615Z" fill="url(#paint1_linear)"/>
<path d="M22.2185 0H9.87487C8.51213 0 7.40615 1.10599 7.40615 2.46872V4.93744H17.281C18.6438 4.93744 19.7497 6.04342 19.7497 7.40615V17.281H22.2185C23.5812 17.281 24.6872 16.175 24.6872 14.8123V2.46872C24.6872 1.10599 23.5812 0 22.2185 0Z" fill="url(#paint2_linear)"/>
<path d="M22.2185 0H9.87487C8.51213 0 7.40615 1.10599 7.40615 2.46872V4.93744H17.281C18.6438 4.93744 19.7497 6.04342 19.7497 7.40615V17.281H22.2185C23.5812 17.281 24.6872 16.175 24.6872 14.8123V2.46872C24.6872 1.10599 23.5812 0 22.2185 0Z" fill="url(#paint3_linear)"/>
<defs>
<linearGradient id="paint0_linear" x1="12.8785" y1="-3.45486" x2="13.0972" y2="30.7239" gradientUnits="userSpaceOnUse">
<stop stop-color="#D9C88B"/>
<stop offset="1" stop-color="#AA9036"/>
</linearGradient>
<linearGradient id="paint1_linear" x1="12.8785" y1="-3.45486" x2="13.0972" y2="30.7239" gradientUnits="userSpaceOnUse">
<stop offset="0.0904391" stop-color="#DDAE09"/>
<stop offset="0.127005" stop-color="#FFF5D0"/>
<stop offset="0.271574" stop-color="#D1BA6A"/>
<stop offset="0.510797" stop-color="#B9A049"/>
<stop offset="0.706074" stop-color="#AB9135"/>
<stop offset="0.823361" stop-color="#AD9D61"/>
</linearGradient>
<linearGradient id="paint2_linear" x1="12.8785" y1="-3.45486" x2="13.0972" y2="30.7239" gradientUnits="userSpaceOnUse">
<stop stop-color="#D9C88B"/>
<stop offset="1" stop-color="#AA9036"/>
</linearGradient>
<linearGradient id="paint3_linear" x1="12.8785" y1="-3.45486" x2="13.0972" y2="30.7239" gradientUnits="userSpaceOnUse">
<stop offset="0.0904391" stop-color="#DDAE09"/>
<stop offset="0.127005" stop-color="#FFF5D0"/>
<stop offset="0.271574" stop-color="#D1BA6A"/>
<stop offset="0.510797" stop-color="#B9A049"/>
<stop offset="0.706074" stop-color="#AB9135"/>
<stop offset="0.823361" stop-color="#AD9D61"/>
</linearGradient>
</defs>
</svg>
