<svg width="26" height="26" viewBox="0 0 26 26" fill="none" xmlns="http://www.w3.org/2000/svg">
<path d="M23.2636 12.3145H26.0005C26.0005 5.29446 20.7005 0 13.6709 0V2.73686C19.2295 2.73686 23.2636 6.76415 23.2636 12.3145Z" fill="black"/>
<path d="M23.2636 12.3145H26.0005C26.0005 5.29446 20.7005 0 13.6709 0V2.73686C19.2295 2.73686 23.2636 6.76415 23.2636 12.3145Z" fill="url(#paint0_linear)"/>
<path d="M23.2636 12.3145H26.0005C26.0005 5.29446 20.7005 0 13.6709 0V2.73686C19.2295 2.73686 23.2636 6.76415 23.2636 12.3145Z" fill="url(#paint1_linear)"/>
<path d="M23.2636 12.3145H26.0005C26.0005 5.29446 20.7005 0 13.6709 0V2.73686C19.2295 2.73686 23.2636 6.76415 23.2636 12.3145Z" fill="url(#paint2_linear)"/>
<path d="M13.6847 8.21081C16.5625 8.21081 17.79 9.43829 17.79 12.3161H20.5268C20.5268 7.90292 18.0979 5.47395 13.6847 5.47395V8.21081ZM18.3675 15.6592C17.8215 15.1624 16.9785 15.1884 16.464 15.718L13.1893 19.0857C12.4011 18.9352 10.8165 18.4412 9.18529 16.8141C7.55412 15.1816 7.06012 13.5928 6.91369 12.8101L10.2787 9.53408C10.8096 9.01955 10.8342 8.17797 10.3375 7.6306L5.28116 2.07067C4.78442 1.52193 3.9401 1.46993 3.37767 1.95161L0.408178 4.49826C0.17144 4.73637 0.0304913 5.05111 0.0113333 5.38637C-0.00919316 5.72848 -0.400564 13.8323 5.88327 20.1189C11.3652 25.5995 18.232 26.0004 20.1231 26.0004C20.3996 26.0004 20.5693 25.9922 20.6144 25.9895C20.9497 25.9703 21.2644 25.8293 21.5012 25.5912L24.0464 22.6204C24.5295 22.058 24.4748 21.215 23.9288 20.7169L18.3675 15.6592Z" fill="black"/>
<path d="M13.6847 8.21081C16.5625 8.21081 17.79 9.43829 17.79 12.3161H20.5268C20.5268 7.90292 18.0979 5.47395 13.6847 5.47395V8.21081ZM18.3675 15.6592C17.8215 15.1624 16.9785 15.1884 16.464 15.718L13.1893 19.0857C12.4011 18.9352 10.8165 18.4412 9.18529 16.8141C7.55412 15.1816 7.06012 13.5928 6.91369 12.8101L10.2787 9.53408C10.8096 9.01955 10.8342 8.17797 10.3375 7.6306L5.28116 2.07067C4.78442 1.52193 3.9401 1.46993 3.37767 1.95161L0.408178 4.49826C0.17144 4.73637 0.0304913 5.05111 0.0113333 5.38637C-0.00919316 5.72848 -0.400564 13.8323 5.88327 20.1189C11.3652 25.5995 18.232 26.0004 20.1231 26.0004C20.3996 26.0004 20.5693 25.9922 20.6144 25.9895C20.9497 25.9703 21.2644 25.8293 21.5012 25.5912L24.0464 22.6204C24.5295 22.058 24.4748 21.215 23.9288 20.7169L18.3675 15.6592Z" fill="url(#paint3_linear)"/>
<path d="M13.6847 8.21081C16.5625 8.21081 17.79 9.43829 17.79 12.3161H20.5268C20.5268 7.90292 18.0979 5.47395 13.6847 5.47395V8.21081ZM18.3675 15.6592C17.8215 15.1624 16.9785 15.1884 16.464 15.718L13.1893 19.0857C12.4011 18.9352 10.8165 18.4412 9.18529 16.8141C7.55412 15.1816 7.06012 13.5928 6.91369 12.8101L10.2787 9.53408C10.8096 9.01955 10.8342 8.17797 10.3375 7.6306L5.28116 2.07067C4.78442 1.52193 3.9401 1.46993 3.37767 1.95161L0.408178 4.49826C0.17144 4.73637 0.0304913 5.05111 0.0113333 5.38637C-0.00919316 5.72848 -0.400564 13.8323 5.88327 20.1189C11.3652 25.5995 18.232 26.0004 20.1231 26.0004C20.3996 26.0004 20.5693 25.9922 20.6144 25.9895C20.9497 25.9703 21.2644 25.8293 21.5012 25.5912L24.0464 22.6204C24.5295 22.058 24.4748 21.215 23.9288 20.7169L18.3675 15.6592Z" fill="url(#paint4_linear)"/>
<path d="M13.6847 8.21081C16.5625 8.21081 17.79 9.43829 17.79 12.3161H20.5268C20.5268 7.90292 18.0979 5.47395 13.6847 5.47395V8.21081ZM18.3675 15.6592C17.8215 15.1624 16.9785 15.1884 16.464 15.718L13.1893 19.0857C12.4011 18.9352 10.8165 18.4412 9.18529 16.8141C7.55412 15.1816 7.06012 13.5928 6.91369 12.8101L10.2787 9.53408C10.8096 9.01955 10.8342 8.17797 10.3375 7.6306L5.28116 2.07067C4.78442 1.52193 3.9401 1.46993 3.37767 1.95161L0.408178 4.49826C0.17144 4.73637 0.0304913 5.05111 0.0113333 5.38637C-0.00919316 5.72848 -0.400564 13.8323 5.88327 20.1189C11.3652 25.5995 18.232 26.0004 20.1231 26.0004C20.3996 26.0004 20.5693 25.9922 20.6144 25.9895C20.9497 25.9703 21.2644 25.8293 21.5012 25.5912L24.0464 22.6204C24.5295 22.058 24.4748 21.215 23.9288 20.7169L18.3675 15.6592Z" fill="url(#paint5_linear)"/>
<defs>
<linearGradient id="paint0_linear" x1="19.8357" y1="0" x2="19.8357" y2="12.3145" gradientUnits="userSpaceOnUse">
<stop stop-color="#B299DA"/>
<stop offset="1" stop-color="#543784"/>
</linearGradient>
<linearGradient id="paint1_linear" x1="20.1028" y1="-1.72336" x2="20.2118" y2="15.3258" gradientUnits="userSpaceOnUse">
<stop stop-color="#D9C88B"/>
<stop offset="1" stop-color="#AA9036"/>
</linearGradient>
<linearGradient id="paint2_linear" x1="20.1028" y1="-1.72336" x2="20.2118" y2="15.3258" gradientUnits="userSpaceOnUse">
<stop offset="0.0904391" stop-color="#DDAE09"/>
<stop offset="0.127005" stop-color="#FFF5D0"/>
<stop offset="0.271574" stop-color="#D1BA6A"/>
<stop offset="0.510797" stop-color="#B9A049"/>
<stop offset="0.706074" stop-color="#AB9135"/>
<stop offset="0.823361" stop-color="#AD9D61"/>
</linearGradient>
<linearGradient id="paint3_linear" x1="12.1881" y1="1.62207" x2="12.1881" y2="26.0004" gradientUnits="userSpaceOnUse">
<stop stop-color="#B299DA"/>
<stop offset="1" stop-color="#543784"/>
</linearGradient>
<linearGradient id="paint4_linear" x1="12.7162" y1="-1.78957" x2="12.9323" y2="31.9616" gradientUnits="userSpaceOnUse">
<stop stop-color="#D9C88B"/>
<stop offset="1" stop-color="#AA9036"/>
</linearGradient>
<linearGradient id="paint5_linear" x1="12.7162" y1="-1.78957" x2="12.9323" y2="31.9616" gradientUnits="userSpaceOnUse">
<stop offset="0.0904391" stop-color="#DDAE09"/>
<stop offset="0.127005" stop-color="#FFF5D0"/>
<stop offset="0.271574" stop-color="#D1BA6A"/>
<stop offset="0.510797" stop-color="#B9A049"/>
<stop offset="0.706074" stop-color="#AB9135"/>
<stop offset="0.823361" stop-color="#AD9D61"/>
</linearGradient>
</defs>
</svg>
