<svg width="59" height="63" fill="none" xmlns="http://www.w3.org/2000/svg"><g filter="url(#filter0_d)"><path d="M29.102 29.102c4.524 0 9.102-1.563 9.102-4.551 0-2.988-4.578-4.551-9.102-4.551S20 21.563 20 24.551c0 2.988 4.578 4.551 9.102 4.551z" fill="#000"/><path d="M29.102 29.102c4.524 0 9.102-1.563 9.102-4.551 0-2.988-4.578-4.551-9.102-4.551S20 21.563 20 24.551c0 2.988 4.578 4.551 9.102 4.551z" fill="url(#paint0_linear)"/><path d="M20 29.102c0 2.988 4.578 4.551 9.102 4.551s9.102-1.563 9.102-4.551v-2.276c0 2.988-4.578 4.552-9.102 4.552S20 29.814 20 26.826v2.276z" fill="#000"/><path d="M20 29.102c0 2.988 4.578 4.551 9.102 4.551s9.102-1.563 9.102-4.551v-2.276c0 2.988-4.578 4.552-9.102 4.552S20 29.814 20 26.826v2.276z" fill="url(#paint1_linear)"/><path d="M20 33.653c0 2.988 4.578 4.551 9.102 4.551s9.102-1.563 9.102-4.551v-2.275c0 2.987-4.578 4.55-9.102 4.55S20 34.365 20 31.378v2.275z" fill="#000"/><path d="M20 33.653c0 2.988 4.578 4.551 9.102 4.551s9.102-1.563 9.102-4.551v-2.275c0 2.987-4.578 4.55-9.102 4.55S20 34.365 20 31.378v2.275z" fill="url(#paint2_linear)"/><path d="M20 38.204c0 2.988 4.578 4.551 9.102 4.551s9.102-1.563 9.102-4.551v-2.276c0 2.988-4.578 4.552-9.102 4.552S20 38.916 20 35.928v2.275z" fill="#000"/><path d="M20 38.204c0 2.988 4.578 4.551 9.102 4.551s9.102-1.563 9.102-4.551v-2.276c0 2.988-4.578 4.552-9.102 4.552S20 38.916 20 35.928v2.275z" fill="url(#paint3_linear)"/></g><defs><linearGradient id="paint0_linear" x1="29.102" y1="20" x2="29.102" y2="29.102" gradientUnits="userSpaceOnUse"><stop stop-color="#C9B2EF"/><stop offset="1" stop-color="#543784"/></linearGradient><linearGradient id="paint1_linear" x1="29.102" y1="26.826" x2="29.102" y2="33.653" gradientUnits="userSpaceOnUse"><stop stop-color="#C9B2EF"/><stop offset="1" stop-color="#543784"/></linearGradient><linearGradient id="paint2_linear" x1="29.102" y1="31.378" x2="29.102" y2="38.204" gradientUnits="userSpaceOnUse"><stop stop-color="#C9B2EF"/><stop offset="1" stop-color="#543784"/></linearGradient><linearGradient id="paint3_linear" x1="29.102" y1="35.928" x2="29.102" y2="42.755" gradientUnits="userSpaceOnUse"><stop stop-color="#C9B2EF"/><stop offset="1" stop-color="#543784"/></linearGradient><filter id="filter0_d" x="0" y="0" width="58.204" height="62.755" filterUnits="userSpaceOnUse" color-interpolation-filters="sRGB"><feFlood flood-opacity="0" result="BackgroundImageFix"/><feColorMatrix in="SourceAlpha" values="0 0 0 0 0 0 0 0 0 0 0 0 0 0 0 0 0 0 127 0"/><feOffset/><feGaussianBlur stdDeviation="10"/><feColorMatrix values="0 0 0 0 0 0 0 0 0 0 0 0 0 0 0 0 0 0 0.5 0"/><feBlend in2="BackgroundImageFix" result="effect1_dropShadow"/><feBlend in="SourceGraphic" in2="effect1_dropShadow" result="shape"/></filter></defs></svg>