<svg width="76" height="76" viewBox="0 0 76 76" fill="none" xmlns="http://www.w3.org/2000/svg">
<g filter="url(#filter0_d)">
<path d="M50.728 25.272C47.3282 21.8723 42.808 20 38 20C33.192 20 28.6718 21.8723 25.272 25.272C21.8723 28.6718 20 33.192 20 38C20 42.808 21.8724 47.3281 25.272 50.728C28.6717 54.1278 33.192 56 38 56C42.808 56 47.3282 54.1277 50.728 50.728C54.1277 47.3282 56 42.808 56 38C56 33.192 54.1276 28.6719 50.728 25.272ZM38 36.875C40.7915 36.875 43.0625 39.146 43.0625 41.9375C43.0625 44.2492 41.5046 46.2026 39.3839 46.8061C39.2315 46.8495 39.125 46.9866 39.125 47.145V48.0932C39.125 48.699 38.6595 49.2203 38.0544 49.2487C37.4083 49.2791 36.875 48.7644 36.875 48.125V47.1448C36.875 46.9868 36.7691 46.8497 36.6172 46.8064C34.5055 46.206 32.9516 44.2672 32.9376 41.9689C32.9338 41.3555 33.4162 40.8306 34.0295 40.813C34.6659 40.7947 35.1875 41.3052 35.1875 41.9375C35.1875 43.5548 36.5598 44.8577 38.201 44.743C39.5865 44.6461 40.7087 43.5238 40.8055 42.1384C40.9201 40.4971 39.6173 39.125 38 39.125C35.2085 39.125 32.9375 36.854 32.9375 34.0625C32.9375 31.7508 34.4954 29.7974 36.6161 29.1939C36.7685 29.1505 36.875 29.0134 36.875 28.855V27.9068C36.875 27.301 37.3405 26.7797 37.9456 26.7513C38.5918 26.7209 39.125 27.2356 39.125 27.875V28.8552C39.125 29.0132 39.2309 29.1503 39.3828 29.1936C41.4945 29.794 43.0484 31.7328 43.0624 34.0311C43.0662 34.6445 42.5838 35.1694 41.9705 35.187C41.3341 35.2053 40.8125 34.6948 40.8125 34.0625C40.8125 32.4452 39.4402 31.1423 37.799 31.257C36.4135 31.3539 35.2913 32.4762 35.1945 33.8616C35.0799 35.5029 36.3827 36.875 38 36.875Z" fill="url(#paint0_linear)"/>
</g>
<defs>
<filter id="filter0_d" x="0" y="0" width="76" height="76" filterUnits="userSpaceOnUse" color-interpolation-filters="sRGB">
<feFlood flood-opacity="0" result="BackgroundImageFix"/>
<feColorMatrix in="SourceAlpha" type="matrix" values="0 0 0 0 0 0 0 0 0 0 0 0 0 0 0 0 0 0 127 0"/>
<feOffset/>
<feGaussianBlur stdDeviation="10"/>
<feColorMatrix type="matrix" values="0 0 0 0 0 0 0 0 0 0 0 0 0 0 0 0 0 0 0.5 0"/>
<feBlend mode="normal" in2="BackgroundImageFix" result="effect1_dropShadow"/>
<feBlend mode="normal" in="SourceGraphic" in2="effect1_dropShadow" result="shape"/>
</filter>
<linearGradient id="paint0_linear" x1="38" y1="20" x2="38" y2="56" gradientUnits="userSpaceOnUse">
<stop stop-color="#B299DA"/>
<stop offset="1" stop-color="#543784"/>
</linearGradient>
</defs>
</svg>
