<svg width="32" height="32" viewBox="0 0 32 32" fill="none" xmlns="http://www.w3.org/2000/svg">
<path d="M16.0002 15.1821L29.1509 7.59269L16.0002 0L2.84918 7.59269L16.0002 15.1821Z" fill="url(#paint0_linear)"/>
<path d="M16.0002 15.1821L29.1509 7.59269L16.0002 0L2.84918 7.59269L16.0002 15.1821Z" fill="url(#paint1_linear)"/>
<path d="M15.0594 16.8117L1.90845 9.22234V24.4073L15.0594 32V16.8117Z" fill="url(#paint2_linear)"/>
<path d="M15.0594 16.8117L1.90845 9.22234V24.4073L15.0594 32V16.8117Z" fill="url(#paint3_linear)"/>
<path d="M16.9411 16.8117V32L30.0917 24.4073V9.22234L16.9411 16.8117Z" fill="url(#paint4_linear)"/>
<path d="M16.9411 16.8117V32L30.0917 24.4073V9.22234L16.9411 16.8117Z" fill="url(#paint5_linear)"/>
<rect x="3.36841" y="10.1055" width="25.2632" height="12.6316" fill="#122143"/>
<path d="M8.41462 18.9018C7.79702 18.9018 7.29028 18.7401 6.89438 18.4165C6.49848 18.0929 6.30054 17.6591 6.30054 17.1149V13.6514H7.38529V17.034C7.38529 17.3086 7.46975 17.5243 7.63866 17.6811C7.81286 17.8331 8.07151 17.9091 8.41462 17.9091C8.75773 17.9091 9.01374 17.8331 9.18265 17.6811C9.35685 17.5243 9.44395 17.3086 9.44395 17.034V13.6514H10.5366V17.1149C10.5366 17.6591 10.3387 18.0929 9.94277 18.4165C9.54688 18.7401 9.03749 18.9018 8.41462 18.9018Z" fill="white"/>
<path d="M14.7277 16.7914V13.6514H15.8204V18.7989H14.989L12.6136 15.6515V18.7989H11.521V13.6514H12.3524L14.7277 16.7914Z" fill="white"/>
<path d="M16.4368 13.6514H20.5145V14.622H19.0181V18.7989H17.9254V14.622H16.4368V13.6514Z" fill="white"/>
<path d="M24.4738 16.1295C24.9594 16.3894 25.2022 16.7816 25.2022 17.3061C25.2022 17.7424 25.036 18.1003 24.7034 18.3797C24.3709 18.6592 23.9618 18.7989 23.4761 18.7989H21.1245V13.6514H23.3099C23.7797 13.6514 24.1782 13.7886 24.5055 14.0632C24.8327 14.3377 24.9964 14.6833 24.9964 15.1C24.9964 15.5265 24.8222 15.8697 24.4738 16.1295ZM23.3099 14.6H22.2172V15.7324H23.3099C23.4788 15.7324 23.6187 15.6785 23.7295 15.5707C23.8456 15.4628 23.9037 15.328 23.9037 15.1662C23.9037 15.0044 23.8483 14.8696 23.7374 14.7618C23.6266 14.6539 23.4841 14.6 23.3099 14.6ZM22.2172 17.8503H23.4761C23.6609 17.8503 23.814 17.7939 23.9354 17.6811C24.0568 17.5635 24.1175 17.4164 24.1175 17.2399C24.1175 17.0683 24.0568 16.9262 23.9354 16.8134C23.814 16.6958 23.6609 16.6369 23.4761 16.6369H22.2172V17.8503Z" fill="white"/>
<defs>
<linearGradient id="paint0_linear" x1="16.6107" y1="-4.47826" x2="16.9326" y2="39.8245" gradientUnits="userSpaceOnUse">
<stop stop-color="#D9C88B"/>
<stop offset="1" stop-color="#AA9036"/>
</linearGradient>
<linearGradient id="paint1_linear" x1="16.6107" y1="-4.47826" x2="16.9326" y2="39.8245" gradientUnits="userSpaceOnUse">
<stop offset="0.0904391" stop-color="#DDAE09"/>
<stop offset="0.127005" stop-color="#FFF5D0"/>
<stop offset="0.271574" stop-color="#D1BA6A"/>
<stop offset="0.510797" stop-color="#B9A049"/>
<stop offset="0.706074" stop-color="#AB9135"/>
<stop offset="0.823361" stop-color="#AD9D61"/>
</linearGradient>
<linearGradient id="paint2_linear" x1="16.6107" y1="-4.47826" x2="16.9326" y2="39.8245" gradientUnits="userSpaceOnUse">
<stop stop-color="#D9C88B"/>
<stop offset="1" stop-color="#AA9036"/>
</linearGradient>
<linearGradient id="paint3_linear" x1="16.6107" y1="-4.47826" x2="16.9326" y2="39.8245" gradientUnits="userSpaceOnUse">
<stop offset="0.0904391" stop-color="#DDAE09"/>
<stop offset="0.127005" stop-color="#FFF5D0"/>
<stop offset="0.271574" stop-color="#D1BA6A"/>
<stop offset="0.510797" stop-color="#B9A049"/>
<stop offset="0.706074" stop-color="#AB9135"/>
<stop offset="0.823361" stop-color="#AD9D61"/>
</linearGradient>
<linearGradient id="paint4_linear" x1="16.6107" y1="-4.47826" x2="16.9326" y2="39.8245" gradientUnits="userSpaceOnUse">
<stop stop-color="#D9C88B"/>
<stop offset="1" stop-color="#AA9036"/>
</linearGradient>
<linearGradient id="paint5_linear" x1="16.6107" y1="-4.47826" x2="16.9326" y2="39.8245" gradientUnits="userSpaceOnUse">
<stop offset="0.0904391" stop-color="#DDAE09"/>
<stop offset="0.127005" stop-color="#FFF5D0"/>
<stop offset="0.271574" stop-color="#D1BA6A"/>
<stop offset="0.510797" stop-color="#B9A049"/>
<stop offset="0.706074" stop-color="#AB9135"/>
<stop offset="0.823361" stop-color="#AD9D61"/>
</linearGradient>
</defs>
</svg>
