<svg width="34" height="27" viewBox="0 0 34 27" fill="none" xmlns="http://www.w3.org/2000/svg">
<path d="M30.375 0H6.75C4.88869 0 3.375 1.51369 3.375 3.375V11.8125H6.75V6.75L17.55 14.85C17.8504 15.0744 18.2064 15.1875 18.5625 15.1875C18.9186 15.1875 19.2746 15.0744 19.575 14.85L30.375 6.75V21.9375H16.875V25.3125H30.375C32.2363 25.3125 33.75 23.7988 33.75 21.9375V3.375C33.75 1.51369 32.2363 0 30.375 0ZM18.5625 11.3906L7.87387 3.375H29.2511L18.5625 11.3906Z" fill="url(#paint0_linear)"/>
<path d="M30.375 0H6.75C4.88869 0 3.375 1.51369 3.375 3.375V11.8125H6.75V6.75L17.55 14.85C17.8504 15.0744 18.2064 15.1875 18.5625 15.1875C18.9186 15.1875 19.2746 15.0744 19.575 14.85L30.375 6.75V21.9375H16.875V25.3125H30.375C32.2363 25.3125 33.75 23.7988 33.75 21.9375V3.375C33.75 1.51369 32.2363 0 30.375 0ZM18.5625 11.3906L7.87387 3.375H29.2511L18.5625 11.3906Z" fill="url(#paint1_linear)"/>
<path d="M0 13.5H11.8125V16.875H0V13.5ZM3.375 18.5625H13.5V21.9375H3.375V18.5625ZM8.4375 23.625H15.1875V27H8.4375V23.625Z" fill="url(#paint2_linear)"/>
<path d="M0 13.5H11.8125V16.875H0V13.5ZM3.375 18.5625H13.5V21.9375H3.375V18.5625ZM8.4375 23.625H15.1875V27H8.4375V23.625Z" fill="url(#paint3_linear)"/>
<defs>
<linearGradient id="paint0_linear" x1="19.2206" y1="-3.54237" x2="19.4075" y2="31.5026" gradientUnits="userSpaceOnUse">
<stop stop-color="#D9C88B"/>
<stop offset="1" stop-color="#AA9036"/>
</linearGradient>
<linearGradient id="paint1_linear" x1="19.2206" y1="-3.54237" x2="19.4075" y2="31.5026" gradientUnits="userSpaceOnUse">
<stop offset="0.0904391" stop-color="#DDAE09"/>
<stop offset="0.127005" stop-color="#FFF5D0"/>
<stop offset="0.271574" stop-color="#D1BA6A"/>
<stop offset="0.510797" stop-color="#B9A049"/>
<stop offset="0.706074" stop-color="#AB9135"/>
<stop offset="0.823361" stop-color="#AD9D61"/>
</linearGradient>
<linearGradient id="paint2_linear" x1="7.92281" y1="11.6107" x2="8.02914" y2="30.3013" gradientUnits="userSpaceOnUse">
<stop stop-color="#D9C88B"/>
<stop offset="1" stop-color="#AA9036"/>
</linearGradient>
<linearGradient id="paint3_linear" x1="7.92281" y1="11.6107" x2="8.02914" y2="30.3013" gradientUnits="userSpaceOnUse">
<stop offset="0.0904391" stop-color="#DDAE09"/>
<stop offset="0.127005" stop-color="#FFF5D0"/>
<stop offset="0.271574" stop-color="#D1BA6A"/>
<stop offset="0.510797" stop-color="#B9A049"/>
<stop offset="0.706074" stop-color="#AB9135"/>
<stop offset="0.823361" stop-color="#AD9D61"/>
</linearGradient>
</defs>
</svg>
