<svg width="115" height="90" viewBox="0 0 115 90" fill="none" xmlns="http://www.w3.org/2000/svg">
<circle cx="38.2433" cy="51.0008" r="36.9874" transform="rotate(-91.98 38.2433 51.0008)" fill="url(#paint0_linear)"/>
<circle cx="38.2433" cy="51.0008" r="36.9874" transform="rotate(-91.98 38.2433 51.0008)" fill="url(#paint1_linear)"/>
<circle cx="76.6294" cy="49.4123" r="36.9874" transform="rotate(90.8081 76.6294 49.4123)" fill="url(#paint2_linear)"/>
<circle cx="76.6294" cy="49.4123" r="36.9874" transform="rotate(90.8081 76.6294 49.4123)" fill="url(#paint3_linear)"/>
<g filter="url(#filter0_d)">
<path d="M7.22949 79.0982C29.0594 80.0905 51.031 79.5235 72.2939 58.6858C93.5568 37.8482 92.281 7.22966 90.1547 3.40234" stroke="white" stroke-width="2"/>
</g>
<rect x="86.7527" width="6.80412" height="6.80412" rx="3.40206" fill="white"/>
<rect x="69.7424" y="53.582" width="6.80412" height="6.80412" rx="3.40206" fill="white"/>
<rect x="3.4021" y="75.6963" width="6.80412" height="6.80412" rx="3.40206" fill="white"/>
<defs>
<filter id="filter0_d" x="7.18408" y="2.91699" width="99.0809" height="85.4615" filterUnits="userSpaceOnUse" color-interpolation-filters="sRGB">
<feFlood flood-opacity="0" result="BackgroundImageFix"/>
<feColorMatrix in="SourceAlpha" type="matrix" values="0 0 0 0 0 0 0 0 0 0 0 0 0 0 0 0 0 0 127 0"/>
<feOffset dx="10" dy="4"/>
<feGaussianBlur stdDeviation="2"/>
<feColorMatrix type="matrix" values="0 0 0 0 0 0 0 0 0 0 0 0 0 0 0 0 0 0 0.21 0"/>
<feBlend mode="normal" in2="BackgroundImageFix" result="effect1_dropShadow"/>
<feBlend mode="normal" in="SourceGraphic" in2="effect1_dropShadow" result="shape"/>
</filter>
<linearGradient id="paint0_linear" x1="39.8461" y1="3.66097" x2="40.5016" y2="106.077" gradientUnits="userSpaceOnUse">
<stop stop-color="#D9C88B"/>
<stop offset="1" stop-color="#AE953D" stop-opacity="0.2"/>
</linearGradient>
<linearGradient id="paint1_linear" x1="39.8461" y1="3.66097" x2="40.5016" y2="106.077" gradientUnits="userSpaceOnUse">
<stop offset="0.0904391" stop-color="#DDAE09"/>
<stop offset="0.127005" stop-color="#FFF5D0"/>
<stop offset="0.271574" stop-color="#D1BA6A"/>
<stop offset="0.510797" stop-color="#B9A049"/>
<stop offset="0.706074" stop-color="#AB9135"/>
<stop offset="0.823361" stop-color="#AD9D61"/>
</linearGradient>
<linearGradient id="paint2_linear" x1="78.2322" y1="2.07242" x2="78.8877" y2="104.489" gradientUnits="userSpaceOnUse">
<stop stop-color="#D9C88B"/>
<stop offset="1" stop-color="#AE953D" stop-opacity="0.2"/>
</linearGradient>
<linearGradient id="paint3_linear" x1="78.2322" y1="2.07242" x2="78.8877" y2="104.489" gradientUnits="userSpaceOnUse">
<stop offset="0.0904391" stop-color="#DDAE09"/>
<stop offset="0.127005" stop-color="#FFF5D0"/>
<stop offset="0.271574" stop-color="#D1BA6A"/>
<stop offset="0.510797" stop-color="#B9A049"/>
<stop offset="0.706074" stop-color="#AB9135"/>
<stop offset="0.823361" stop-color="#AD9D61"/>
</linearGradient>
</defs>
</svg>
