<svg width="27" height="26" viewBox="0 0 27 26" fill="none" xmlns="http://www.w3.org/2000/svg">
<path d="M13.4739 0C6.30871 0 0.499512 5.80919 0.499512 12.9743C0.499512 19.4492 5.24341 24.8159 11.4471 25.793V16.7256H8.15125V12.9743H11.4471V10.1158C11.4471 6.86152 13.3843 5.06699 16.3467 5.06699C17.7662 5.06699 19.2532 5.32001 19.2532 5.32001V8.51072H17.6131C16.0041 8.51072 15.5006 9.51244 15.5006 10.5388V12.9717H19.0962L18.5214 16.723H15.5006V25.7904C21.7043 24.8185 26.4482 19.4505 26.4482 12.9743C26.4482 5.80919 20.639 0 13.4739 0Z" fill="black"/>
<path d="M13.4739 0C6.30871 0 0.499512 5.80919 0.499512 12.9743C0.499512 19.4492 5.24341 24.8159 11.4471 25.793V16.7256H8.15125V12.9743H11.4471V10.1158C11.4471 6.86152 13.3843 5.06699 16.3467 5.06699C17.7662 5.06699 19.2532 5.32001 19.2532 5.32001V8.51072H17.6131C16.0041 8.51072 15.5006 9.51244 15.5006 10.5388V12.9717H19.0962L18.5214 16.723H15.5006V25.7904C21.7043 24.8185 26.4482 19.4505 26.4482 12.9743C26.4482 5.80919 20.639 0 13.4739 0Z" fill="url(#paint0_linear)"/>
<path d="M13.4739 0C6.30871 0 0.499512 5.80919 0.499512 12.9743C0.499512 19.4492 5.24341 24.8159 11.4471 25.793V16.7256H8.15125V12.9743H11.4471V10.1158C11.4471 6.86152 13.3843 5.06699 16.3467 5.06699C17.7662 5.06699 19.2532 5.32001 19.2532 5.32001V8.51072H17.6131C16.0041 8.51072 15.5006 9.51244 15.5006 10.5388V12.9717H19.0962L18.5214 16.723H15.5006V25.7904C21.7043 24.8185 26.4482 19.4505 26.4482 12.9743C26.4482 5.80919 20.639 0 13.4739 0Z" fill="url(#paint1_linear)"/>
<path d="M13.4739 0C6.30871 0 0.499512 5.80919 0.499512 12.9743C0.499512 19.4492 5.24341 24.8159 11.4471 25.793V16.7256H8.15125V12.9743H11.4471V10.1158C11.4471 6.86152 13.3843 5.06699 16.3467 5.06699C17.7662 5.06699 19.2532 5.32001 19.2532 5.32001V8.51072H17.6131C16.0041 8.51072 15.5006 9.51244 15.5006 10.5388V12.9717H19.0962L18.5214 16.723H15.5006V25.7904C21.7043 24.8185 26.4482 19.4505 26.4482 12.9743C26.4482 5.80919 20.639 0 13.4739 0Z" fill="url(#paint2_linear)"/>
<defs>
<linearGradient id="paint0_linear" x1="13.4739" y1="0" x2="13.4739" y2="25.793" gradientUnits="userSpaceOnUse">
<stop stop-color="#B299DA"/>
<stop offset="1" stop-color="#543784"/>
</linearGradient>
<linearGradient id="paint1_linear" x1="14.0361" y1="-3.60961" x2="14.2632" y2="32.1001" gradientUnits="userSpaceOnUse">
<stop stop-color="#D9C88B"/>
<stop offset="1" stop-color="#AA9036"/>
</linearGradient>
<linearGradient id="paint2_linear" x1="14.0361" y1="-3.60961" x2="14.2632" y2="32.1001" gradientUnits="userSpaceOnUse">
<stop offset="0.0904391" stop-color="#DDAE09"/>
<stop offset="0.127005" stop-color="#FFF5D0"/>
<stop offset="0.271574" stop-color="#D1BA6A"/>
<stop offset="0.510797" stop-color="#B9A049"/>
<stop offset="0.706074" stop-color="#AB9135"/>
<stop offset="0.823361" stop-color="#AD9D61"/>
</linearGradient>
</defs>
</svg>
