<svg width="24" height="24" fill="none" xmlns="http://www.w3.org/2000/svg"><path d="M23.74 6.908a8.474 8.474 0 00-.544-2.875A5.981 5.981 0 0019.779.616a8.572 8.572 0 00-2.836-.545C15.695.016 15.299 0 12.13 0 8.962 0 8.556 0 7.316.071a8.584 8.584 0 00-2.835.545 5.978 5.978 0 00-3.416 3.417A8.504 8.504 0 00.52 6.868C.465 8.118.448 8.513.448 11.682s0 3.573.073 4.814c.02.97.202 1.928.544 2.838a5.981 5.981 0 003.418 3.415 8.546 8.546 0 002.835.584c1.25.056 1.645.073 4.814.073 3.168 0 3.574 0 4.814-.073a8.55 8.55 0 002.836-.544 5.989 5.989 0 003.417-3.416 8.548 8.548 0 00.543-2.838c.056-1.248.073-1.644.073-4.814-.003-3.169-.003-3.571-.075-4.813zM12.123 17.674a5.997 5.997 0 01-6-5.998 5.999 5.999 0 115.999 5.999zm6.237-10.82a1.397 1.397 0 01-1.399-1.399 1.397 1.397 0 112.796 0c0 .773-.625 1.399-1.397 1.399z" fill="#000"/><path d="M23.74 6.908a8.474 8.474 0 00-.544-2.875A5.981 5.981 0 0019.779.616a8.572 8.572 0 00-2.836-.545C15.695.016 15.299 0 12.13 0 8.962 0 8.556 0 7.316.071a8.584 8.584 0 00-2.835.545 5.978 5.978 0 00-3.416 3.417A8.504 8.504 0 00.52 6.868C.465 8.118.448 8.513.448 11.682s0 3.573.073 4.814c.02.97.202 1.928.544 2.838a5.981 5.981 0 003.418 3.415 8.546 8.546 0 002.835.584c1.25.056 1.645.073 4.814.073 3.168 0 3.574 0 4.814-.073a8.55 8.55 0 002.836-.544 5.989 5.989 0 003.417-3.416 8.548 8.548 0 00.543-2.838c.056-1.248.073-1.644.073-4.814-.003-3.169-.003-3.571-.075-4.813zM12.123 17.674a5.997 5.997 0 01-6-5.998 5.999 5.999 0 115.999 5.999zm6.237-10.82a1.397 1.397 0 01-1.399-1.399 1.397 1.397 0 112.796 0c0 .773-.625 1.399-1.397 1.399z" fill="url(#paint0_linear)"/><path d="M12.123 15.572a3.897 3.897 0 100-7.793 3.897 3.897 0 000 7.793z" fill="#000"/><path d="M12.123 15.572a3.897 3.897 0 100-7.793 3.897 3.897 0 000 7.793z" fill="url(#paint1_linear)"/><defs><linearGradient id="paint0_linear" x1="12.132" y1="0" x2="12.132" y2="23.405" gradientUnits="userSpaceOnUse"><stop stop-color="#B299DA"/><stop offset="1" stop-color="#543784"/></linearGradient><linearGradient id="paint1_linear" x1="12.123" y1="7.779" x2="12.123" y2="15.572" gradientUnits="userSpaceOnUse"><stop stop-color="#B299DA"/><stop offset="1" stop-color="#543784"/></linearGradient></defs></svg>