<svg width="172" height="81" fill="none" xmlns="http://www.w3.org/2000/svg"><path d="M128.096 74.13c-3.032 3.408-9.277 3.46-12.393.1L87.876 44.243c-2.057-2.216-2.057-5.267 0-7.484L115.703 6.77c3.116-3.36 9.361-3.308 12.393.1l26.676 29.989c1.934 2.175 1.934 5.107 0 7.282L128.096 74.13z" fill="url(#paint0_linear)"/><path d="M90.557 74.13c-3.032 3.408-9.276 3.46-12.393.1L50.337 44.243c-2.057-2.216-2.057-5.267 0-7.484L78.164 6.77c3.117-3.36 9.361-3.308 12.393.1l26.676 29.989c1.935 2.175 1.935 5.107 0 7.282L90.557 74.13z" fill="url(#paint1_linear)"/><path d="M56.127 74.13c-3.032 3.408-9.276 3.46-12.393.1L15.907 44.243c-2.057-2.216-2.057-5.267 0-7.484L43.734 6.77c3.117-3.36 9.361-3.308 12.393.1l26.676 29.99c1.935 2.175 1.935 5.107 0 7.282L56.127 74.13z" fill="url(#paint2_linear)"/><path d="M40 45.035V26h4.698v18.75c0 1.763.517 3.16 1.552 4.19 1.062 1.003 2.587 1.505 4.575 1.505s3.5-.502 4.535-1.505c1.062-1.03 1.593-2.427 1.593-4.19V26h4.698v19.035c0 3.01-1.008 5.437-3.023 7.28C56.64 54.106 54.038 55 50.825 55s-5.814-.895-7.802-2.684C41.008 50.472 40 48.045 40 45.036zm42.373.285V26h4.698v28.471h-3.677l-13.48-19.32v19.32h-4.698V26h3.676l13.481 19.32zM88.697 26h20.834v4.474h-8.048v23.997h-4.698V30.474h-8.088V26zm39.3 13.707c1.252.65 2.233 1.559 2.941 2.725.708 1.139 1.062 2.44 1.062 3.905 0 2.331-.831 4.27-2.492 5.816-1.661 1.546-3.69 2.318-6.087 2.318h-12.255V26h11.357c2.342 0 4.316.76 5.923 2.278 1.634 1.518 2.451 3.39 2.451 5.613 0 2.44-.967 4.379-2.9 5.816zm-5.474-9.314h-6.659v7.484h6.659c1.035 0 1.906-.353 2.614-1.058.708-.732 1.062-1.627 1.062-2.684 0-1.058-.354-1.94-1.062-2.644-.708-.732-1.579-1.098-2.614-1.098zm-6.659 19.686h7.557c1.09 0 2.002-.38 2.737-1.14.763-.786 1.144-1.735 1.144-2.846 0-1.112-.381-2.048-1.144-2.807-.735-.786-1.647-1.18-2.737-1.18h-7.557v7.973z" fill="#fff"/><defs><linearGradient id="paint0_linear" x1="96.977" y1="60.75" x2="136.591" y2="11.828" gradientUnits="userSpaceOnUse"><stop stop-color="#B299DA"/><stop offset=".538" stop-color="#705896" stop-opacity=".462"/><stop offset="1" stop-color="#371F5C" stop-opacity="0"/></linearGradient><linearGradient id="paint1_linear" x1="59.438" y1="60.75" x2="99.052" y2="11.828" gradientUnits="userSpaceOnUse"><stop stop-color="#B299DA"/><stop offset=".538" stop-color="#705896" stop-opacity=".462"/><stop offset="1" stop-color="#371F5C" stop-opacity="0"/></linearGradient><linearGradient id="paint2_linear" x1="25.008" y1="60.75" x2="64.622" y2="11.828" gradientUnits="userSpaceOnUse"><stop stop-color="#B299DA"/><stop offset=".538" stop-color="#705896" stop-opacity=".462"/><stop offset="1" stop-color="#371F5C" stop-opacity="0"/></linearGradient></defs></svg>