<svg width="121" height="121" fill="none" xmlns="http://www.w3.org/2000/svg"><circle cx="39.194" cy="39.194" r="28.976" transform="rotate(28.033 39.194 39.194)" fill="url(#paint0_linear)"/><circle cx="39.194" cy="77.828" r="28.976" transform="rotate(-70.955 39.194 77.828)" fill="url(#paint1_linear)"/><circle cx="79.283" cy="79.284" r="28.976" transform="rotate(-140.807 79.283 79.284)" fill="url(#paint2_linear)"/><circle cx="76.811" cy="38.177" r="28.976" transform="rotate(112.018 76.811 38.177)" fill="url(#paint3_linear)"/><path d="M12 64.876V45.537h4.73v19.05c0 1.79.52 3.21 1.562 4.256 1.069 1.02 2.604 1.529 4.606 1.529 2.001 0 3.523-.51 4.564-1.529 1.07-1.047 1.604-2.466 1.604-4.256v-19.05h4.73v19.339c0 3.058-1.015 5.523-3.044 7.397C28.751 74.09 26.132 75 22.898 75c-3.235 0-5.854-.91-7.855-2.727C13.014 70.399 12 67.933 12 64.876zM46.966 75c-2.77 0-5.127-.62-7.073-1.86-1.92-1.267-3.263-3.016-4.03-5.247l4.07-2.397c1.152 3.25 3.537 4.876 7.156 4.876 1.755 0 3.084-.344 3.99-1.033.904-.689 1.356-1.612 1.356-2.769s-.48-2.052-1.439-2.686c-.96-.633-2.66-1.322-5.1-2.066-2.494-.744-4.51-1.625-6.044-2.644-1.865-1.323-2.797-3.265-2.797-5.827s.905-4.587 2.714-6.074C41.551 45.758 43.731 45 46.308 45c2.275 0 4.277.565 6.004 1.694 1.755 1.102 3.098 2.659 4.03 4.67l-3.989 2.314c-1.206-2.7-3.221-4.05-6.045-4.05-1.37 0-2.468.33-3.29.992-.822.633-1.234 1.501-1.234 2.603 0 1.075.412 1.928 1.234 2.562.822.606 2.344 1.254 4.565 1.942 1.37.469 2.166.744 2.385.827.356.11 1.07.385 2.138.826.878.358 1.577.744 2.098 1.157 2.138 1.68 3.125 3.664 2.96 5.95 0 2.618-.945 4.698-2.837 6.24C52.49 74.242 50.037 75 46.966 75zm12.222-29.463h11.308c3.948 0 7.224 1.391 9.829 4.174 2.632 2.782 3.948 6.212 3.948 10.289 0 4.05-1.316 7.48-3.948 10.29-2.605 2.782-5.88 4.173-9.829 4.173H59.188V45.537zm4.729 24.38h6.58c2.713 0 4.92-.936 6.62-2.81 1.727-1.873 2.59-4.242 2.59-7.107s-.863-5.234-2.59-7.107c-1.7-1.874-3.907-2.81-6.62-2.81h-6.58v19.834zm22.288-5.041V45.537h4.729v19.05c0 1.79.52 3.21 1.563 4.256 1.069 1.02 2.604 1.529 4.605 1.529 2.002 0 3.523-.51 4.565-1.529 1.069-1.047 1.604-2.466 1.604-4.256v-19.05H108v19.339c0 3.058-1.014 5.523-3.043 7.397-2.001 1.818-4.62 2.727-7.855 2.727-3.235 0-5.853-.91-7.854-2.727-2.029-1.874-3.043-4.34-3.043-7.397z" fill="#fff"/><defs><linearGradient id="paint0_linear" x1="39.194" y1="10.218" x2="39.194" y2="68.169" gradientUnits="userSpaceOnUse"><stop stop-color="#876AB7"/><stop offset="1" stop-color="#543784" stop-opacity="0"/></linearGradient><linearGradient id="paint1_linear" x1="39.194" y1="48.852" x2="39.194" y2="106.803" gradientUnits="userSpaceOnUse"><stop stop-color="#876AB7"/><stop offset="1" stop-color="#543784" stop-opacity="0"/></linearGradient><linearGradient id="paint2_linear" x1="79.283" y1="50.308" x2="79.283" y2="108.259" gradientUnits="userSpaceOnUse"><stop stop-color="#876AB7"/><stop offset="1" stop-color="#543784" stop-opacity="0"/></linearGradient><linearGradient id="paint3_linear" x1="76.811" y1="9.202" x2="76.811" y2="67.153" gradientUnits="userSpaceOnUse"><stop stop-color="#876AB7"/><stop offset="1" stop-color="#543784" stop-opacity="0"/></linearGradient></defs></svg>