<svg width="21" height="22" viewBox="0 0 21 22" fill="none" xmlns="http://www.w3.org/2000/svg">
<path d="M20.4795 0L14.7908 5.68875L10.2398 0L5.68875 5.68875L0 0V14.7908H20.4795V0ZM2.2755 21.6173H18.204C19.4601 21.6173 20.4795 20.5978 20.4795 19.3418V17.0663H0V19.3418C0 20.5978 1.01942 21.6173 2.2755 21.6173Z" fill="black"/>
<path d="M20.4795 0L14.7908 5.68875L10.2398 0L5.68875 5.68875L0 0V14.7908H20.4795V0ZM2.2755 21.6173H18.204C19.4601 21.6173 20.4795 20.5978 20.4795 19.3418V17.0663H0V19.3418C0 20.5978 1.01942 21.6173 2.2755 21.6173Z" fill="url(#paint0_linear)"/>
<path d="M20.4795 0L14.7908 5.68875L10.2398 0L5.68875 5.68875L0 0V14.7908H20.4795V0ZM2.2755 21.6173H18.204C19.4601 21.6173 20.4795 20.5978 20.4795 19.3418V17.0663H0V19.3418C0 20.5978 1.01942 21.6173 2.2755 21.6173Z" fill="url(#paint1_linear)"/>
<path d="M20.4795 0L14.7908 5.68875L10.2398 0L5.68875 5.68875L0 0V14.7908H20.4795V0ZM2.2755 21.6173H18.204C19.4601 21.6173 20.4795 20.5978 20.4795 19.3418V17.0663H0V19.3418C0 20.5978 1.01942 21.6173 2.2755 21.6173Z" fill="url(#paint2_linear)"/>
<defs>
<linearGradient id="paint0_linear" x1="10.2398" y1="0" x2="10.2398" y2="21.6173" gradientUnits="userSpaceOnUse">
<stop stop-color="#C9B2EF"/>
<stop offset="1" stop-color="#543784"/>
</linearGradient>
<linearGradient id="paint1_linear" x1="10.6835" y1="-3.02524" x2="10.8857" y2="26.9032" gradientUnits="userSpaceOnUse">
<stop stop-color="#D9C88B"/>
<stop offset="1" stop-color="#AA9036"/>
</linearGradient>
<linearGradient id="paint2_linear" x1="10.6835" y1="-3.02524" x2="10.8857" y2="26.9032" gradientUnits="userSpaceOnUse">
<stop offset="0.0904391" stop-color="#DDAE09"/>
<stop offset="0.127005" stop-color="#FFF5D0"/>
<stop offset="0.271574" stop-color="#D1BA6A"/>
<stop offset="0.510797" stop-color="#B9A049"/>
<stop offset="0.706074" stop-color="#AB9135"/>
<stop offset="0.823361" stop-color="#AD9D61"/>
</linearGradient>
</defs>
</svg>
