<svg width="76" height="76" viewBox="0 0 76 76" fill="none" xmlns="http://www.w3.org/2000/svg">
<g filter="url(#filter0_d)">
<path d="M38 20C28.0748 20 20 28.0748 20 38C20 47.9252 28.0748 56 38 56C47.9252 56 56 47.9252 56 38C56 28.0748 47.9252 20 38 20ZM48.35 39.8H36.2V27.2H39.8V36.2H48.35V39.8Z" fill="black"/>
<path d="M38 20C28.0748 20 20 28.0748 20 38C20 47.9252 28.0748 56 38 56C47.9252 56 56 47.9252 56 38C56 28.0748 47.9252 20 38 20ZM48.35 39.8H36.2V27.2H39.8V36.2H48.35V39.8Z" fill="url(#paint0_linear)"/>
</g>
<defs>
<filter id="filter0_d" x="0" y="0" width="76" height="76" filterUnits="userSpaceOnUse" color-interpolation-filters="sRGB">
<feFlood flood-opacity="0" result="BackgroundImageFix"/>
<feColorMatrix in="SourceAlpha" type="matrix" values="0 0 0 0 0 0 0 0 0 0 0 0 0 0 0 0 0 0 127 0"/>
<feOffset/>
<feGaussianBlur stdDeviation="10"/>
<feColorMatrix type="matrix" values="0 0 0 0 0 0 0 0 0 0 0 0 0 0 0 0 0 0 0.5 0"/>
<feBlend mode="normal" in2="BackgroundImageFix" result="effect1_dropShadow"/>
<feBlend mode="normal" in="SourceGraphic" in2="effect1_dropShadow" result="shape"/>
</filter>
<linearGradient id="paint0_linear" x1="38" y1="20" x2="38" y2="56" gradientUnits="userSpaceOnUse">
<stop stop-color="#B299DA"/>
<stop offset="1" stop-color="#543784"/>
</linearGradient>
</defs>
</svg>
