<svg width="119" height="69" viewBox="0 0 119 69" fill="none" xmlns="http://www.w3.org/2000/svg">
<path d="M28.8849 7.72017C31.6439 3.88991 37.3256 3.83263 40.1612 7.60648L57.1682 30.2409C59.0399 32.7318 59.0399 36.1599 57.1682 38.6508L40.1612 61.2853C37.3255 65.0591 31.6439 65.0018 28.8849 61.1716L12.5813 38.5371C10.8212 36.0936 10.8212 32.7982 12.5813 30.3546L28.8849 7.72017Z" fill="url(#paint0_linear)"/>
<path d="M28.8849 7.72017C31.6439 3.88991 37.3256 3.83263 40.1612 7.60648L57.1682 30.2409C59.0399 32.7318 59.0399 36.1599 57.1682 38.6508L40.1612 61.2853C37.3255 65.0591 31.6439 65.0018 28.8849 61.1716L12.5813 38.5371C10.8212 36.0936 10.8212 32.7982 12.5813 30.3546L28.8849 7.72017Z" fill="url(#paint1_linear)"/>
<path d="M54.7377 7.72017C57.4967 3.88991 63.1783 3.83263 66.0139 7.60648L83.021 30.2409C84.8926 32.7318 84.8926 36.1599 83.021 38.6508L66.0139 61.2853C63.1783 65.0591 57.4967 65.0018 54.7377 61.1716L38.4341 38.5371C36.674 36.0936 36.674 32.7982 38.4341 30.3546L54.7377 7.72017Z" fill="url(#paint2_linear)"/>
<path d="M54.7377 7.72017C57.4967 3.88991 63.1783 3.83263 66.0139 7.60648L83.021 30.2409C84.8926 32.7318 84.8926 36.1599 83.021 38.6508L66.0139 61.2853C63.1783 65.0591 57.4967 65.0018 54.7377 61.1716L38.4341 38.5371C36.674 36.0936 36.674 32.7982 38.4341 30.3546L54.7377 7.72017Z" fill="url(#paint3_linear)"/>
<path d="M78.4499 7.72017C81.2088 3.88991 86.8905 3.83263 89.7261 7.60648L106.733 30.2409C108.605 32.7318 108.605 36.1599 106.733 38.6508L89.7261 61.2853C86.8905 65.0591 81.2088 65.0018 78.4499 61.1716L62.1462 38.5371C60.3861 36.0936 60.3861 32.7982 62.1462 30.3546L78.4499 7.72017Z" fill="url(#paint4_linear)"/>
<path d="M78.4499 7.72017C81.2088 3.88991 86.8905 3.83263 89.7261 7.60648L106.733 30.2409C108.605 32.7318 108.605 36.1599 106.733 38.6508L89.7261 61.2853C86.8905 65.0591 81.2088 65.0018 78.4499 61.1716L62.1462 38.5371C60.3861 36.0936 60.3861 32.7982 62.1462 30.3546L78.4499 7.72017Z" fill="url(#paint5_linear)"/>
<defs>
<linearGradient id="paint0_linear" x1="57.2356" y1="13.1487" x2="9.85136" y2="61.1434" gradientUnits="userSpaceOnUse">
<stop stop-color="#D9C88B"/>
<stop offset="1" stop-color="#AE953D" stop-opacity="0.2"/>
</linearGradient>
<linearGradient id="paint1_linear" x1="57.2356" y1="13.1487" x2="9.85136" y2="61.1434" gradientUnits="userSpaceOnUse">
<stop offset="0.0904391" stop-color="#DDAE09"/>
<stop offset="0.127005" stop-color="#FFF5D0"/>
<stop offset="0.271574" stop-color="#D1BA6A"/>
<stop offset="0.510797" stop-color="#B9A049"/>
<stop offset="0.706074" stop-color="#AB9135"/>
<stop offset="0.823361" stop-color="#AD9D61"/>
</linearGradient>
<linearGradient id="paint2_linear" x1="83.0884" y1="13.1487" x2="35.7041" y2="61.1434" gradientUnits="userSpaceOnUse">
<stop stop-color="#D9C88B"/>
<stop offset="1" stop-color="#AE953D" stop-opacity="0.2"/>
</linearGradient>
<linearGradient id="paint3_linear" x1="83.0884" y1="13.1487" x2="35.7041" y2="61.1434" gradientUnits="userSpaceOnUse">
<stop offset="0.0904391" stop-color="#DDAE09"/>
<stop offset="0.127005" stop-color="#FFF5D0"/>
<stop offset="0.271574" stop-color="#D1BA6A"/>
<stop offset="0.510797" stop-color="#B9A049"/>
<stop offset="0.706074" stop-color="#AB9135"/>
<stop offset="0.823361" stop-color="#AD9D61"/>
</linearGradient>
<linearGradient id="paint4_linear" x1="106.801" y1="13.1487" x2="59.4163" y2="61.1434" gradientUnits="userSpaceOnUse">
<stop stop-color="#D9C88B"/>
<stop offset="1" stop-color="#AE953D" stop-opacity="0.2"/>
</linearGradient>
<linearGradient id="paint5_linear" x1="106.801" y1="13.1487" x2="59.4163" y2="61.1434" gradientUnits="userSpaceOnUse">
<stop offset="0.0904391" stop-color="#DDAE09"/>
<stop offset="0.127005" stop-color="#FFF5D0"/>
<stop offset="0.271574" stop-color="#D1BA6A"/>
<stop offset="0.510797" stop-color="#B9A049"/>
<stop offset="0.706074" stop-color="#AB9135"/>
<stop offset="0.823361" stop-color="#AD9D61"/>
</linearGradient>
</defs>
</svg>
