<svg width="26" height="21" fill="none" xmlns="http://www.w3.org/2000/svg"><path d="M22.88 5.162c.017.227.017.453.017.678 0 6.91-5.26 14.872-14.87 14.872-2.961 0-5.712-.858-8.027-2.348.42.048.825.065 1.263.065a10.47 10.47 0 006.489-2.233 5.237 5.237 0 01-4.888-3.624c.323.048.647.08.987.08.469 0 .94-.064 1.377-.177a5.225 5.225 0 01-4.191-5.13v-.064a5.28 5.28 0 002.361.663 5.219 5.219 0 01-2.33-4.352c0-.97.258-1.861.711-2.637a14.866 14.866 0 0010.777 5.47c-.08-.39-.13-.794-.13-1.198A5.226 5.226 0 0117.654 0c1.506 0 2.864.63 3.82 1.65A10.326 10.326 0 0024.788.389a5.217 5.217 0 01-2.298 2.88 10.475 10.475 0 003.009-.81 11.216 11.216 0 01-2.62 2.704z" fill="#000"/><path d="M22.88 5.162c.017.227.017.453.017.678 0 6.91-5.26 14.872-14.87 14.872-2.961 0-5.712-.858-8.027-2.348.42.048.825.065 1.263.065a10.47 10.47 0 006.489-2.233 5.237 5.237 0 01-4.888-3.624c.323.048.647.08.987.08.469 0 .94-.064 1.377-.177a5.225 5.225 0 01-4.191-5.13v-.064a5.28 5.28 0 002.361.663 5.219 5.219 0 01-2.33-4.352c0-.97.258-1.861.711-2.637a14.866 14.866 0 0010.777 5.47c-.08-.39-.13-.794-.13-1.198A5.226 5.226 0 0117.654 0c1.506 0 2.864.63 3.82 1.65A10.326 10.326 0 0024.788.389a5.217 5.217 0 01-2.298 2.88 10.475 10.475 0 003.009-.81 11.216 11.216 0 01-2.62 2.704z" fill="url(#paint0_linear)"/><defs><linearGradient id="paint0_linear" x1="12.75" y1="0" x2="12.75" y2="20.712" gradientUnits="userSpaceOnUse"><stop stop-color="#B299DA"/><stop offset="1" stop-color="#543784"/></linearGradient></defs></svg>