<svg width="135" height="91" viewBox="0 0 135 91" fill="none" xmlns="http://www.w3.org/2000/svg">
<circle cx="44.9648" cy="45.9648" r="43.4882" transform="rotate(-91.98 44.9648 45.9648)" fill="url(#paint0_angular)"/>
<circle cx="90.0972" cy="44.0972" r="43.4882" transform="rotate(90.8081 90.0972 44.0972)" fill="url(#paint1_angular)"/>
<path d="M15.2966 53C13.1985 53 11.4545 52.2788 10.0647 50.8365C8.68823 49.408 8 47.6291 8 45.5C8 43.3571 8.68823 41.5783 10.0647 40.1635C11.4545 38.7212 13.1985 38 15.2966 38C16.5661 38 17.7354 38.3091 18.8045 38.9272C19.887 39.5316 20.7289 40.3558 21.3303 41.3997L18.9449 42.8214C18.5974 42.1758 18.1029 41.6745 17.4615 41.3173C16.82 40.9464 16.0984 40.761 15.2966 40.761C13.9335 40.761 12.831 41.2005 11.9891 42.0797C11.1605 42.9725 10.7462 44.1126 10.7462 45.5C10.7462 46.8736 11.1605 48.0069 11.9891 48.8997C12.831 49.7788 13.9335 50.2184 15.2966 50.2184C16.0984 50.2184 16.82 50.0398 17.4615 49.6827C18.1163 49.3118 18.6108 48.8104 18.9449 48.1786L21.3303 49.6003C20.7289 50.6442 19.887 51.4753 18.8045 52.0934C17.7354 52.6978 16.5661 53 15.2966 53Z" fill="white"/>
<path d="M33.7139 52.7115H30.7271L27.9007 47.7047H25.7959V52.7115H23.0296V38.2885H28.6423C29.9386 38.2885 31.0411 38.7555 31.9499 39.6896C32.8586 40.6236 33.313 41.75 33.313 43.0687C33.313 43.9615 33.0657 44.7926 32.5713 45.5618C32.0768 46.3173 31.422 46.8874 30.6068 47.272L33.7139 52.7115ZM28.6423 40.9464H25.7959V45.2115H28.6423C29.1635 45.2115 29.6112 45.0055 29.9854 44.5934C30.3596 44.1676 30.5467 43.6593 30.5467 43.0687C30.5467 42.478 30.3596 41.9766 29.9854 41.5646C29.6112 41.1525 29.1635 40.9464 28.6423 40.9464Z" fill="white"/>
<path d="M42.9293 38.2885H46.0564L41.2455 47.0865V52.7115H38.4993V47.0865L33.7084 38.2885H36.8355L39.8824 44.3049L42.9293 38.2885Z" fill="white"/>
<path d="M47.4014 38.2885H52.6332C53.9696 38.2885 55.1055 38.7555 56.041 39.6896C56.9631 40.6236 57.4241 41.7706 57.4241 43.1305C57.4241 44.4904 56.9631 45.6374 56.041 46.5714C55.1055 47.5055 53.9696 47.9725 52.6332 47.9725H50.1676V52.7115H47.4014V38.2885ZM50.1676 45.3146H52.6332C53.2212 45.3146 53.709 45.1085 54.0966 44.6964C54.4841 44.2706 54.6779 43.7486 54.6779 43.1305C54.6779 42.4986 54.4841 41.9766 54.0966 41.5646C53.709 41.1525 53.2212 40.9464 52.6332 40.9464H50.1676V45.3146Z" fill="white"/>
<path d="M57.9282 38.2885H68.2517V41.0082H64.4631V52.7115H61.6968V41.0082H57.9282V38.2885Z" fill="white"/>
<path d="M80.8002 50.8365C79.3836 52.2788 77.6597 53 75.6284 53C73.5971 53 71.8732 52.2788 70.4567 50.8365C69.0535 49.3668 68.3519 47.5879 68.3519 45.5C68.3519 43.3984 69.0535 41.6264 70.4567 40.1841C71.8732 38.728 73.5971 38 75.6284 38C77.6597 38 79.3836 38.728 80.8002 40.1841C82.2167 41.6264 82.925 43.3984 82.925 45.5C82.925 47.6016 82.2167 49.3805 80.8002 50.8365ZM72.4011 48.8997C73.2564 49.7788 74.3321 50.2184 75.6284 50.2184C76.9247 50.2184 78.0005 49.7788 78.8558 48.8997C79.7244 48.0069 80.1587 46.8736 80.1587 45.5C80.1587 44.1264 79.7244 42.9931 78.8558 42.1003C77.9871 41.2074 76.9113 40.761 75.6284 40.761C74.3455 40.761 73.2697 41.2074 72.4011 42.1003C71.5325 42.9931 71.0981 44.1264 71.0981 45.5C71.0981 46.8736 71.5325 48.0069 72.4011 48.8997Z" fill="white"/>
<path d="M90.0033 53C88.4397 53 87.1568 52.5467 86.1545 51.6401C85.1522 50.7335 84.6511 49.5179 84.6511 47.9931V38.2885H87.3973V47.7665C87.3973 48.5357 87.6112 49.1401 88.0388 49.5797C88.4798 50.0055 89.1346 50.2184 90.0033 50.2184C90.8719 50.2184 91.52 50.0055 91.9477 49.5797C92.3887 49.1401 92.6092 48.5357 92.6092 47.7665V38.2885H95.3755V47.9931C95.3755 49.5179 94.8743 50.7335 93.872 51.6401C92.8698 52.5467 91.5802 53 90.0033 53Z" fill="white"/>
<path d="M105.986 47.0865V38.2885H108.752V52.7115H106.647L100.634 43.8929V52.7115H97.8675V38.2885H99.9723L105.986 47.0865Z" fill="white"/>
<path d="M111.355 52.7115V38.2885H114.121V52.7115H111.355Z" fill="white"/>
<path d="M115.677 38.2885H126V41.0082H122.211V52.7115H119.445V41.0082H115.677V38.2885Z" fill="white"/>
<defs>
<radialGradient id="paint0_angular" cx="0" cy="0" r="1" gradientUnits="userSpaceOnUse" gradientTransform="translate(44.9648 45.9648) rotate(90) scale(43.4882)">
<stop stop-color="#352057"/>
<stop offset="0.401694" stop-color="#3C265F"/>
<stop offset="1" stop-color="#876AB7" stop-opacity="0.4"/>
</radialGradient>
<radialGradient id="paint1_angular" cx="0" cy="0" r="1" gradientUnits="userSpaceOnUse" gradientTransform="translate(90.0972 44.0972) rotate(90) scale(43.4882)">
<stop stop-color="#352057" stop-opacity="0"/>
<stop offset="0.401694" stop-color="#3C265F"/>
<stop offset="1" stop-color="#876AB7"/>
</radialGradient>
</defs>
</svg>
