<svg width="67" height="74" fill="none" xmlns="http://www.w3.org/2000/svg"><g filter="url(#filter0_d)"><path d="M33.5 20C26.056 20 20 26.056 20 33.491c-.049 10.876 12.987 19.894 13.5 20.259 0 0 13.549-9.383 13.5-20.25C47 26.056 40.944 20 33.5 20zm0 20.25c-3.73 0-6.75-3.02-6.75-6.75s3.02-6.75 6.75-6.75 6.75 3.02 6.75 6.75-3.02 6.75-6.75 6.75z" fill="#000"/><path d="M33.5 20C26.056 20 20 26.056 20 33.491c-.049 10.876 12.987 19.894 13.5 20.259 0 0 13.549-9.383 13.5-20.25C47 26.056 40.944 20 33.5 20zm0 20.25c-3.73 0-6.75-3.02-6.75-6.75s3.02-6.75 6.75-6.75 6.75 3.02 6.75 6.75-3.02 6.75-6.75 6.75z" fill="url(#paint0_linear)"/></g><defs><linearGradient id="paint0_linear" x1="33.5" y1="20" x2="33.5" y2="53.75" gradientUnits="userSpaceOnUse"><stop stop-color="#B299DA"/><stop offset="1" stop-color="#543784"/></linearGradient><filter id="filter0_d" x="0" y="0" width="67" height="73.75" filterUnits="userSpaceOnUse" color-interpolation-filters="sRGB"><feFlood flood-opacity="0" result="BackgroundImageFix"/><feColorMatrix in="SourceAlpha" values="0 0 0 0 0 0 0 0 0 0 0 0 0 0 0 0 0 0 127 0"/><feOffset/><feGaussianBlur stdDeviation="10"/><feColorMatrix values="0 0 0 0 0 0 0 0 0 0 0 0 0 0 0 0 0 0 0.5 0"/><feBlend in2="BackgroundImageFix" result="effect1_dropShadow"/><feBlend in="SourceGraphic" in2="effect1_dropShadow" result="shape"/></filter></defs></svg>