<svg width="96" height="96" fill="none" xmlns="http://www.w3.org/2000/svg"><path d="M7.72 53.31c-3.83-2.758-3.887-8.44-.114-11.275l35.94-27.004a7 7 0 018.409 0l35.939 27.004c3.773 2.835 3.716 8.517-.114 11.276L51.84 79.198a7 7 0 01-8.182 0L7.72 53.31z" fill="url(#paint0_angular)"/><path d="M69 17.445H27.222A5.222 5.222 0 0022 22.667v26.11A5.222 5.222 0 0027.222 54H69a5.222 5.222 0 005.222-5.222V22.667A5.222 5.222 0 0069 17.444z" stroke="#fff" stroke-width="4" stroke-linecap="round" stroke-linejoin="round"/><path d="M58.556 54V12.222A5.222 5.222 0 0053.333 7H42.89a5.222 5.222 0 00-5.222 5.222V54" stroke="#fff" stroke-width="4" stroke-linecap="round" stroke-linejoin="round"/><defs><radialGradient id="paint0_angular" cx="0" cy="0" r="1" gradientUnits="userSpaceOnUse" gradientTransform="rotate(-47.708 77.87 -30.12) scale(52.3844)"><stop stop-color="#B299DA"/><stop offset=".538" stop-color="#705896" stop-opacity=".462"/><stop offset="1" stop-color="#371F5C" stop-opacity="0"/></radialGradient></defs></svg>