<svg width="116" height="121" fill="none" xmlns="http://www.w3.org/2000/svg"><circle cx="46.187" cy="74.452" r="36.322" transform="rotate(-70.955 46.187 74.452)" fill="url(#paint0_linear)"/><circle cx="68.709" cy="47.291" r="36.322" transform="rotate(112.018 68.71 47.29)" fill="url(#paint1_linear)"/><path d="M53.424 78H31.728v-3.648l11.856-12.096c3.168-3.168 4.752-5.888 4.752-8.16 0-1.856-.576-3.312-1.728-4.368-1.12-1.088-2.528-1.632-4.224-1.632-3.168 0-5.472 1.504-6.912 4.512L31.728 50.4c1.024-2.144 2.464-3.776 4.32-4.896 1.856-1.152 3.952-1.728 6.288-1.728 2.848 0 5.296.928 7.344 2.784 2.08 1.888 3.12 4.384 3.12 7.488 0 3.392-2 7.088-6 11.088l-8.592 8.544h15.216V78zm23.692-4.128c-2.24 3.168-5.424 4.752-9.552 4.752-4.128 0-7.312-1.584-9.552-4.752-2.272-3.2-3.408-7.424-3.408-12.672s1.136-9.472 3.408-12.672c2.24-3.168 5.424-4.752 9.552-4.752 4.128 0 7.312 1.584 9.552 4.752 2.272 3.2 3.408 7.424 3.408 12.672s-1.136 9.472-3.408 12.672zM59.068 61.2c0 4.16.736 7.376 2.208 9.648 1.472 2.272 3.568 3.408 6.288 3.408s4.816-1.136 6.288-3.408c1.504-2.272 2.256-5.488 2.256-9.648 0-4.16-.752-7.376-2.256-9.648-1.472-2.304-3.568-3.456-6.288-3.456s-4.816 1.136-6.288 3.408c-1.472 2.272-2.208 5.504-2.208 9.696z" fill="#fff"/><defs><linearGradient id="paint0_linear" x1="46.187" y1="38.13" x2="46.187" y2="110.775" gradientUnits="userSpaceOnUse"><stop stop-color="#876AB7"/><stop offset="1" stop-color="#543784" stop-opacity="0"/></linearGradient><linearGradient id="paint1_linear" x1="68.709" y1="10.968" x2="68.709" y2="83.613" gradientUnits="userSpaceOnUse"><stop stop-color="#876AB7"/><stop offset="1" stop-color="#543784" stop-opacity="0"/></linearGradient></defs></svg>