<svg width="66" height="66" fill="none" xmlns="http://www.w3.org/2000/svg"><g filter="url(#filter0_d)"><path d="M43.264 32.315H46C46 25.295 40.7 20 33.672 20v2.737c5.559 0 9.593 4.027 9.593 9.578z" fill="#000"/><path d="M43.264 32.315H46C46 25.295 40.7 20 33.672 20v2.737c5.559 0 9.593 4.027 9.593 9.578z" fill="url(#paint0_linear)"/><path d="M33.685 28.21c2.877 0 4.105 1.228 4.105 4.106h2.737c0-4.414-2.43-6.843-6.842-6.843v2.737zm4.682 7.449a1.37 1.37 0 00-1.903.059l-3.275 3.367c-.788-.15-2.372-.644-4.004-2.271-1.63-1.633-2.125-3.222-2.271-4.004l3.365-3.276a1.37 1.37 0 00.058-1.904l-5.056-5.56a1.368 1.368 0 00-1.903-.119l-2.97 2.547a1.368 1.368 0 00-.397.888c-.02.342-.412 8.446 5.872 14.732C31.365 45.6 38.232 46 40.123 46a9 9 0 00.491-.011c.336-.02.65-.16.887-.398l2.545-2.971a1.37 1.37 0 00-.117-1.904l-5.562-5.057z" fill="#000"/><path d="M33.685 28.21c2.877 0 4.105 1.228 4.105 4.106h2.737c0-4.414-2.43-6.843-6.842-6.843v2.737zm4.682 7.449a1.37 1.37 0 00-1.903.059l-3.275 3.367c-.788-.15-2.372-.644-4.004-2.271-1.63-1.633-2.125-3.222-2.271-4.004l3.365-3.276a1.37 1.37 0 00.058-1.904l-5.056-5.56a1.368 1.368 0 00-1.903-.119l-2.97 2.547a1.368 1.368 0 00-.397.888c-.02.342-.412 8.446 5.872 14.732C31.365 45.6 38.232 46 40.123 46a9 9 0 00.491-.011c.336-.02.65-.16.887-.398l2.545-2.971a1.37 1.37 0 00-.117-1.904l-5.562-5.057z" fill="url(#paint1_linear)"/></g><defs><linearGradient id="paint0_linear" x1="39.836" y1="20" x2="39.836" y2="32.315" gradientUnits="userSpaceOnUse"><stop stop-color="#B299DA"/><stop offset="1" stop-color="#543784"/></linearGradient><linearGradient id="paint1_linear" x1="32.188" y1="21.622" x2="32.188" y2="46" gradientUnits="userSpaceOnUse"><stop stop-color="#B299DA"/><stop offset="1" stop-color="#543784"/></linearGradient><filter id="filter0_d" x="0" y="0" width="66.001" height="66" filterUnits="userSpaceOnUse" color-interpolation-filters="sRGB"><feFlood flood-opacity="0" result="BackgroundImageFix"/><feColorMatrix in="SourceAlpha" values="0 0 0 0 0 0 0 0 0 0 0 0 0 0 0 0 0 0 127 0"/><feOffset/><feGaussianBlur stdDeviation="10"/><feColorMatrix values="0 0 0 0 0 0 0 0 0 0 0 0 0 0 0 0 0 0 0.5 0"/><feBlend in2="BackgroundImageFix" result="effect1_dropShadow"/><feBlend in="SourceGraphic" in2="effect1_dropShadow" result="shape"/></filter></defs></svg>