<svg width="80" height="80" viewBox="0 0 80 80" fill="none" xmlns="http://www.w3.org/2000/svg">
<g filter="url(#filter0_d)">
<path d="M29.0001 28.5399L36.3974 24.2709L29.0001 20L21.6027 24.2709L29.0001 28.5399Z" fill="url(#paint0_linear)"/>
<path d="M28.4709 29.4565L21.0735 25.1875V33.7291L28.4709 37.9999V29.4565Z" fill="url(#paint1_linear)"/>
<path d="M29.5293 29.4565V37.9999L36.9265 33.7291V25.1875L29.5293 29.4565Z" fill="url(#paint2_linear)"/>
<path d="M51.0001 28.5399L58.3974 24.2709L51.0001 20L43.6027 24.2709L51.0001 28.5399Z" fill="url(#paint3_linear)"/>
<path d="M50.4709 29.4565L43.0735 25.1875V33.7291L50.4709 37.9999V29.4565Z" fill="url(#paint4_linear)"/>
<path d="M51.5293 29.4565V37.9999L58.9265 33.7291V25.1875L51.5293 29.4565Z" fill="url(#paint5_linear)"/>
<path d="M51.0001 50.5399L58.3974 46.2709L51.0001 42L43.6027 46.2709L51.0001 50.5399Z" fill="url(#paint6_linear)"/>
<path d="M50.4709 51.4565L43.0735 47.1875V55.7291L50.4709 59.9999V51.4565Z" fill="url(#paint7_linear)"/>
<path d="M51.5293 51.4565V59.9999L58.9265 55.7291V47.1875L51.5293 51.4565Z" fill="url(#paint8_linear)"/>
<path d="M29.0001 50.5399L36.3974 46.2709L29.0001 42L21.6027 46.2709L29.0001 50.5399Z" fill="url(#paint9_linear)"/>
<path d="M28.4709 51.4565L21.0735 47.1875V55.7291L28.4709 59.9999V51.4565Z" fill="url(#paint10_linear)"/>
<path d="M29.5293 51.4565V59.9999L36.9265 55.7291V47.1875L29.5293 51.4565Z" fill="url(#paint11_linear)"/>
</g>
<defs>
<filter id="filter0_d" x="0" y="0" width="80" height="80" filterUnits="userSpaceOnUse" color-interpolation-filters="sRGB">
<feFlood flood-opacity="0" result="BackgroundImageFix"/>
<feColorMatrix in="SourceAlpha" type="matrix" values="0 0 0 0 0 0 0 0 0 0 0 0 0 0 0 0 0 0 127 0"/>
<feOffset/>
<feGaussianBlur stdDeviation="10"/>
<feColorMatrix type="matrix" values="0 0 0 0 0 0 0 0 0 0 0 0 0 0 0 0 0 0 0.5 0"/>
<feBlend mode="normal" in2="BackgroundImageFix" result="effect1_dropShadow"/>
<feBlend mode="normal" in="SourceGraphic" in2="effect1_dropShadow" result="shape"/>
</filter>
<linearGradient id="paint0_linear" x1="29" y1="20" x2="29" y2="28.5399" gradientUnits="userSpaceOnUse">
<stop stop-color="#B299DA"/>
<stop offset="1" stop-color="#543784"/>
</linearGradient>
<linearGradient id="paint1_linear" x1="24.7722" y1="25.1875" x2="24.7722" y2="37.9999" gradientUnits="userSpaceOnUse">
<stop stop-color="#B299DA"/>
<stop offset="1" stop-color="#543784"/>
</linearGradient>
<linearGradient id="paint2_linear" x1="33.2279" y1="25.1875" x2="33.2279" y2="37.9999" gradientUnits="userSpaceOnUse">
<stop stop-color="#B299DA"/>
<stop offset="1" stop-color="#543784"/>
</linearGradient>
<linearGradient id="paint3_linear" x1="51" y1="20" x2="51" y2="28.5399" gradientUnits="userSpaceOnUse">
<stop stop-color="#B299DA"/>
<stop offset="1" stop-color="#543784"/>
</linearGradient>
<linearGradient id="paint4_linear" x1="46.7722" y1="25.1875" x2="46.7722" y2="37.9999" gradientUnits="userSpaceOnUse">
<stop stop-color="#B299DA"/>
<stop offset="1" stop-color="#543784"/>
</linearGradient>
<linearGradient id="paint5_linear" x1="55.2279" y1="25.1875" x2="55.2279" y2="37.9999" gradientUnits="userSpaceOnUse">
<stop stop-color="#B299DA"/>
<stop offset="1" stop-color="#543784"/>
</linearGradient>
<linearGradient id="paint6_linear" x1="51" y1="42" x2="51" y2="50.5399" gradientUnits="userSpaceOnUse">
<stop stop-color="#B299DA"/>
<stop offset="1" stop-color="#543784"/>
</linearGradient>
<linearGradient id="paint7_linear" x1="46.7722" y1="47.1875" x2="46.7722" y2="59.9999" gradientUnits="userSpaceOnUse">
<stop stop-color="#B299DA"/>
<stop offset="1" stop-color="#543784"/>
</linearGradient>
<linearGradient id="paint8_linear" x1="55.2279" y1="47.1875" x2="55.2279" y2="59.9999" gradientUnits="userSpaceOnUse">
<stop stop-color="#B299DA"/>
<stop offset="1" stop-color="#543784"/>
</linearGradient>
<linearGradient id="paint9_linear" x1="29" y1="42" x2="29" y2="50.5399" gradientUnits="userSpaceOnUse">
<stop stop-color="#B299DA"/>
<stop offset="1" stop-color="#543784"/>
</linearGradient>
<linearGradient id="paint10_linear" x1="24.7722" y1="47.1875" x2="24.7722" y2="59.9999" gradientUnits="userSpaceOnUse">
<stop stop-color="#B299DA"/>
<stop offset="1" stop-color="#543784"/>
</linearGradient>
<linearGradient id="paint11_linear" x1="33.2279" y1="47.1875" x2="33.2279" y2="59.9999" gradientUnits="userSpaceOnUse">
<stop stop-color="#B299DA"/>
<stop offset="1" stop-color="#543784"/>
</linearGradient>
</defs>
</svg>
