<svg width="22" height="22" fill="none" xmlns="http://www.w3.org/2000/svg"><path d="M.414 17.356l-.402 2.816a1.139 1.139 0 001.286 1.287l2.816-.403c.427-.06 1.497-2.932 1.497-2.932s.537.461.756.53c.469.148.925-.311 1.079-.778l.44-2.016s.657.332.894.381c.303.063.596-.124.805-.333.121-.122.217-.272.274-.445l.303-1.878s.768.212 1.03.243c.3.034.59-.118.805-.333L13.29 12.2a6.26 6.26 0 006.35-1.522 6.265 6.265 0 000-8.85 6.266 6.266 0 00-8.85 0A6.257 6.257 0 009.27 8.18L.735 16.712a1.13 1.13 0 00-.32.644zM17.561 3.91a3.321 3.321 0 010 4.69l-4.69-4.69a3.321 3.321 0 014.69 0z" fill="#000"/><path d="M.414 17.356l-.402 2.816a1.139 1.139 0 001.286 1.287l2.816-.403c.427-.06 1.497-2.932 1.497-2.932s.537.461.756.53c.469.148.925-.311 1.079-.778l.44-2.016s.657.332.894.381c.303.063.596-.124.805-.333.121-.122.217-.272.274-.445l.303-1.878s.768.212 1.03.243c.3.034.59-.118.805-.333L13.29 12.2a6.26 6.26 0 006.35-1.522 6.265 6.265 0 000-8.85 6.266 6.266 0 00-8.85 0A6.257 6.257 0 009.27 8.18L.735 16.712a1.13 1.13 0 00-.32.644zM17.561 3.91a3.321 3.321 0 010 4.69l-4.69-4.69a3.321 3.321 0 014.69 0z" fill="url(#paint0_linear)"/><defs><linearGradient id="paint0_linear" x1="10.735" y1="0" x2="10.735" y2="21.471" gradientUnits="userSpaceOnUse"><stop stop-color="#C9B2EF"/><stop offset="1" stop-color="#543784"/></linearGradient></defs></svg>