<svg width="23" height="16" viewBox="0 0 23 16" fill="none" xmlns="http://www.w3.org/2000/svg">
<path d="M11.3775 0C5.72402 0 0 1.75896 0 5.11988C0 8.48079 5.72402 10.2398 11.3775 10.2398C17.0321 10.2398 22.755 8.48079 22.755 5.11988C22.755 1.75896 17.0321 0 11.3775 0ZM5.68875 11.307V14.7202C7.09615 15.0604 8.6526 15.2686 10.2398 15.3357V11.9225C8.6526 11.8542 7.09615 11.646 5.68875 11.307ZM12.5153 11.9214V15.3346C14.1024 15.2675 15.66 15.0593 17.0663 14.7191V11.3058C15.66 11.646 14.1024 11.8542 12.5153 11.9214ZM19.3418 10.5777V13.9909C21.3909 13.1319 22.755 11.8781 22.755 10.2398V6.82651C22.755 8.46487 21.3909 9.71867 19.3418 10.5777ZM3.41325 13.9909V10.5777C1.3653 9.71867 0 8.46373 0 6.82651V10.2398C0 11.877 1.3653 13.1319 3.41325 13.9909Z" fill="black"/>
<path d="M11.3775 0C5.72402 0 0 1.75896 0 5.11988C0 8.48079 5.72402 10.2398 11.3775 10.2398C17.0321 10.2398 22.755 8.48079 22.755 5.11988C22.755 1.75896 17.0321 0 11.3775 0ZM5.68875 11.307V14.7202C7.09615 15.0604 8.6526 15.2686 10.2398 15.3357V11.9225C8.6526 11.8542 7.09615 11.646 5.68875 11.307ZM12.5153 11.9214V15.3346C14.1024 15.2675 15.66 15.0593 17.0663 14.7191V11.3058C15.66 11.646 14.1024 11.8542 12.5153 11.9214ZM19.3418 10.5777V13.9909C21.3909 13.1319 22.755 11.8781 22.755 10.2398V6.82651C22.755 8.46487 21.3909 9.71867 19.3418 10.5777ZM3.41325 13.9909V10.5777C1.3653 9.71867 0 8.46373 0 6.82651V10.2398C0 11.877 1.3653 13.1319 3.41325 13.9909Z" fill="url(#paint0_linear)"/>
<path d="M11.3775 0C5.72402 0 0 1.75896 0 5.11988C0 8.48079 5.72402 10.2398 11.3775 10.2398C17.0321 10.2398 22.755 8.48079 22.755 5.11988C22.755 1.75896 17.0321 0 11.3775 0ZM5.68875 11.307V14.7202C7.09615 15.0604 8.6526 15.2686 10.2398 15.3357V11.9225C8.6526 11.8542 7.09615 11.646 5.68875 11.307ZM12.5153 11.9214V15.3346C14.1024 15.2675 15.66 15.0593 17.0663 14.7191V11.3058C15.66 11.646 14.1024 11.8542 12.5153 11.9214ZM19.3418 10.5777V13.9909C21.3909 13.1319 22.755 11.8781 22.755 10.2398V6.82651C22.755 8.46487 21.3909 9.71867 19.3418 10.5777ZM3.41325 13.9909V10.5777C1.3653 9.71867 0 8.46373 0 6.82651V10.2398C0 11.877 1.3653 13.1319 3.41325 13.9909Z" fill="url(#paint1_linear)"/>
<path d="M11.3775 0C5.72402 0 0 1.75896 0 5.11988C0 8.48079 5.72402 10.2398 11.3775 10.2398C17.0321 10.2398 22.755 8.48079 22.755 5.11988C22.755 1.75896 17.0321 0 11.3775 0ZM5.68875 11.307V14.7202C7.09615 15.0604 8.6526 15.2686 10.2398 15.3357V11.9225C8.6526 11.8542 7.09615 11.646 5.68875 11.307ZM12.5153 11.9214V15.3346C14.1024 15.2675 15.66 15.0593 17.0663 14.7191V11.3058C15.66 11.646 14.1024 11.8542 12.5153 11.9214ZM19.3418 10.5777V13.9909C21.3909 13.1319 22.755 11.8781 22.755 10.2398V6.82651C22.755 8.46487 21.3909 9.71867 19.3418 10.5777ZM3.41325 13.9909V10.5777C1.3653 9.71867 0 8.46373 0 6.82651V10.2398C0 11.877 1.3653 13.1319 3.41325 13.9909Z" fill="url(#paint2_linear)"/>
<defs>
<linearGradient id="paint0_linear" x1="11.3775" y1="0" x2="11.3775" y2="15.3357" gradientUnits="userSpaceOnUse">
<stop stop-color="#C9B2EF"/>
<stop offset="1" stop-color="#543784"/>
</linearGradient>
<linearGradient id="paint1_linear" x1="11.8705" y1="-2.14617" x2="11.9621" y2="19.0863" gradientUnits="userSpaceOnUse">
<stop stop-color="#D9C88B"/>
<stop offset="1" stop-color="#AA9036"/>
</linearGradient>
<linearGradient id="paint2_linear" x1="11.8705" y1="-2.14617" x2="11.9621" y2="19.0863" gradientUnits="userSpaceOnUse">
<stop offset="0.0904391" stop-color="#DDAE09"/>
<stop offset="0.127005" stop-color="#FFF5D0"/>
<stop offset="0.271574" stop-color="#D1BA6A"/>
<stop offset="0.510797" stop-color="#B9A049"/>
<stop offset="0.706074" stop-color="#AB9135"/>
<stop offset="0.823361" stop-color="#AD9D61"/>
</linearGradient>
</defs>
</svg>
