<svg width="23" height="22" viewBox="0 0 23 22" fill="none" xmlns="http://www.w3.org/2000/svg">
<path d="M16.4348 0H6.32021C5.92768 0 5.56246 0.20252 5.35426 0.534743L1.42219 6.82651H21.3328L17.4008 0.534743C17.1926 0.20252 16.8273 0 16.4348 0ZM10.5356 20.6911C10.9873 21.1883 11.7678 21.1883 12.2194 20.6911L22.755 9.10201H0L10.5356 20.6911Z" fill="black"/>
<path d="M16.4348 0H6.32021C5.92768 0 5.56246 0.20252 5.35426 0.534743L1.42219 6.82651H21.3328L17.4008 0.534743C17.1926 0.20252 16.8273 0 16.4348 0ZM10.5356 20.6911C10.9873 21.1883 11.7678 21.1883 12.2194 20.6911L22.755 9.10201H0L10.5356 20.6911Z" fill="url(#paint0_linear)"/>
<path d="M16.4348 0H6.32021C5.92768 0 5.56246 0.20252 5.35426 0.534743L1.42219 6.82651H21.3328L17.4008 0.534743C17.1926 0.20252 16.8273 0 16.4348 0ZM10.5356 20.6911C10.9873 21.1883 11.7678 21.1883 12.2194 20.6911L22.755 9.10201H0L10.5356 20.6911Z" fill="url(#paint1_linear)"/>
<path d="M16.4348 0H6.32021C5.92768 0 5.56246 0.20252 5.35426 0.534743L1.42219 6.82651H21.3328L17.4008 0.534743C17.1926 0.20252 16.8273 0 16.4348 0ZM10.5356 20.6911C10.9873 21.1883 11.7678 21.1883 12.2194 20.6911L22.755 9.10201H0L10.5356 20.6911Z" fill="url(#paint2_linear)"/>
<defs>
<linearGradient id="paint0_linear" x1="11.3775" y1="0" x2="11.3775" y2="21.064" gradientUnits="userSpaceOnUse">
<stop stop-color="#C9B2EF"/>
<stop offset="1" stop-color="#543784"/>
</linearGradient>
<linearGradient id="paint1_linear" x1="11.8705" y1="-2.94782" x2="12.0433" y2="26.215" gradientUnits="userSpaceOnUse">
<stop stop-color="#D9C88B"/>
<stop offset="1" stop-color="#AA9036"/>
</linearGradient>
<linearGradient id="paint2_linear" x1="11.8705" y1="-2.94782" x2="12.0433" y2="26.215" gradientUnits="userSpaceOnUse">
<stop offset="0.0904391" stop-color="#DDAE09"/>
<stop offset="0.127005" stop-color="#FFF5D0"/>
<stop offset="0.271574" stop-color="#D1BA6A"/>
<stop offset="0.510797" stop-color="#B9A049"/>
<stop offset="0.706074" stop-color="#AB9135"/>
<stop offset="0.823361" stop-color="#AD9D61"/>
</linearGradient>
</defs>
</svg>
