<svg width="31" height="31" viewBox="0 0 31 31" fill="none" xmlns="http://www.w3.org/2000/svg">
<path d="M26.4602 4.5398C23.5326 1.61224 19.6402 0 15.5 0C11.3598 0 7.46737 1.61224 4.5398 4.5398C1.61224 7.46737 0 11.3598 0 15.5C0 19.6402 1.6123 23.5326 4.5398 26.4602C7.46731 29.3878 11.3598 31 15.5 31C19.6402 31 23.5326 29.3878 26.4602 26.4602C29.3878 23.5326 31 19.6402 31 15.5C31 11.3598 29.3877 7.46743 26.4602 4.5398ZM15.5 14.5312C17.9038 14.5312 19.8594 16.4869 19.8594 18.8906C19.8594 20.8812 18.5178 22.5633 16.6917 23.0831C16.5605 23.1204 16.4688 23.2384 16.4688 23.3748V24.1914C16.4688 24.7131 16.0679 25.1619 15.5468 25.1864C14.9904 25.2126 14.5312 24.7693 14.5312 24.2188V23.3747C14.5312 23.2386 14.4401 23.1206 14.3092 23.0833C12.4909 22.5662 11.1528 20.8968 11.1407 18.9177C11.1375 18.3894 11.5528 17.9374 12.0809 17.9223C12.6289 17.9066 13.0781 18.3461 13.0781 18.8906C13.0781 20.2833 14.2598 21.4053 15.6731 21.3064C16.8661 21.2231 17.8325 20.2566 17.9158 19.0636C18.0145 17.6503 16.8926 16.4688 15.5 16.4688C13.0962 16.4688 11.1406 14.5131 11.1406 12.1094C11.1406 10.1188 12.4822 8.43666 14.3083 7.91693C14.4395 7.87957 14.5312 7.76156 14.5312 7.62515V6.80862C14.5312 6.28695 14.9321 5.83811 15.4532 5.81359C16.0096 5.78743 16.4688 6.2307 16.4688 6.78125V7.62533C16.4688 7.76138 16.5599 7.87945 16.6908 7.91669C18.5091 8.43376 19.8472 10.1032 19.8593 12.0823C19.8625 12.6106 19.4472 13.0626 18.9191 13.0777C18.3711 13.0934 17.9219 12.6539 17.9219 12.1094C17.9219 10.7167 16.7402 9.59474 15.3269 9.69355C14.1339 9.77693 13.1675 10.7434 13.0842 11.9364C12.9855 13.3497 14.1074 14.5312 15.5 14.5312Z" fill="url(#paint0_linear)"/>
<path d="M26.4602 4.5398C23.5326 1.61224 19.6402 0 15.5 0C11.3598 0 7.46737 1.61224 4.5398 4.5398C1.61224 7.46737 0 11.3598 0 15.5C0 19.6402 1.6123 23.5326 4.5398 26.4602C7.46731 29.3878 11.3598 31 15.5 31C19.6402 31 23.5326 29.3878 26.4602 26.4602C29.3878 23.5326 31 19.6402 31 15.5C31 11.3598 29.3877 7.46743 26.4602 4.5398ZM15.5 14.5312C17.9038 14.5312 19.8594 16.4869 19.8594 18.8906C19.8594 20.8812 18.5178 22.5633 16.6917 23.0831C16.5605 23.1204 16.4688 23.2384 16.4688 23.3748V24.1914C16.4688 24.7131 16.0679 25.1619 15.5468 25.1864C14.9904 25.2126 14.5312 24.7693 14.5312 24.2188V23.3747C14.5312 23.2386 14.4401 23.1206 14.3092 23.0833C12.4909 22.5662 11.1528 20.8968 11.1407 18.9177C11.1375 18.3894 11.5528 17.9374 12.0809 17.9223C12.6289 17.9066 13.0781 18.3461 13.0781 18.8906C13.0781 20.2833 14.2598 21.4053 15.6731 21.3064C16.8661 21.2231 17.8325 20.2566 17.9158 19.0636C18.0145 17.6503 16.8926 16.4688 15.5 16.4688C13.0962 16.4688 11.1406 14.5131 11.1406 12.1094C11.1406 10.1188 12.4822 8.43666 14.3083 7.91693C14.4395 7.87957 14.5312 7.76156 14.5312 7.62515V6.80862C14.5312 6.28695 14.9321 5.83811 15.4532 5.81359C16.0096 5.78743 16.4688 6.2307 16.4688 6.78125V7.62533C16.4688 7.76138 16.5599 7.87945 16.6908 7.91669C18.5091 8.43376 19.8472 10.1032 19.8593 12.0823C19.8625 12.6106 19.4472 13.0626 18.9191 13.0777C18.3711 13.0934 17.9219 12.6539 17.9219 12.1094C17.9219 10.7167 16.7402 9.59474 15.3269 9.69355C14.1339 9.77693 13.1675 10.7434 13.0842 11.9364C12.9855 13.3497 14.1074 14.5312 15.5 14.5312Z" fill="url(#paint1_linear)"/>
<defs>
<linearGradient id="paint0_linear" x1="16.1717" y1="-4.33832" x2="16.4464" y2="38.5804" gradientUnits="userSpaceOnUse">
<stop stop-color="#D9C88B"/>
<stop offset="1" stop-color="#AA9036"/>
</linearGradient>
<linearGradient id="paint1_linear" x1="16.1717" y1="-4.33832" x2="16.4464" y2="38.5804" gradientUnits="userSpaceOnUse">
<stop offset="0.0904391" stop-color="#DDAE09"/>
<stop offset="0.127005" stop-color="#FFF5D0"/>
<stop offset="0.271574" stop-color="#D1BA6A"/>
<stop offset="0.510797" stop-color="#B9A049"/>
<stop offset="0.706074" stop-color="#AB9135"/>
<stop offset="0.823361" stop-color="#AD9D61"/>
</linearGradient>
</defs>
</svg>
