<svg width="23" height="23" viewBox="0 0 23 23" fill="none" xmlns="http://www.w3.org/2000/svg">
<path d="M3.41325 11.3775H2.2755V20.4795C2.2755 21.7356 3.29493 22.755 4.551 22.755H10.2398V11.3775H4.551H3.41325ZM18.204 11.3775H12.5153V22.755H18.204C19.4601 22.755 20.4795 21.7356 20.4795 20.4795V11.3775H19.3418H18.204ZM19.104 5.68875C19.253 5.22114 19.3418 4.66023 19.3418 3.98213C19.3418 1.78627 17.5555 0 15.3596 0C13.5142 0 12.282 1.68615 11.4867 3.50996C10.7028 1.78627 9.40806 0 7.39538 0C5.19952 0 3.41325 1.78627 3.41325 3.98213C3.41325 4.66023 3.50313 5.22114 3.65104 5.68875H0V10.2398H10.2398V7.96426H11.3775H12.5153V8.06779V10.2398H22.755V5.68875H19.104ZM5.68875 3.98213C5.68875 3.04121 6.45446 2.2755 7.39538 2.2755C8.4057 2.2755 9.34549 4.01057 9.89616 5.68875H6.82651C6.40099 5.68875 5.68875 5.68875 5.68875 3.98213ZM15.3596 2.2755C16.3006 2.2755 17.0663 3.04121 17.0663 3.98213C17.0663 5.68875 16.354 5.68875 15.9285 5.68875H13.1103C13.6906 3.89566 14.5336 2.2755 15.3596 2.2755Z" fill="black"/>
<path d="M3.41325 11.3775H2.2755V20.4795C2.2755 21.7356 3.29493 22.755 4.551 22.755H10.2398V11.3775H4.551H3.41325ZM18.204 11.3775H12.5153V22.755H18.204C19.4601 22.755 20.4795 21.7356 20.4795 20.4795V11.3775H19.3418H18.204ZM19.104 5.68875C19.253 5.22114 19.3418 4.66023 19.3418 3.98213C19.3418 1.78627 17.5555 0 15.3596 0C13.5142 0 12.282 1.68615 11.4867 3.50996C10.7028 1.78627 9.40806 0 7.39538 0C5.19952 0 3.41325 1.78627 3.41325 3.98213C3.41325 4.66023 3.50313 5.22114 3.65104 5.68875H0V10.2398H10.2398V7.96426H11.3775H12.5153V8.06779V10.2398H22.755V5.68875H19.104ZM5.68875 3.98213C5.68875 3.04121 6.45446 2.2755 7.39538 2.2755C8.4057 2.2755 9.34549 4.01057 9.89616 5.68875H6.82651C6.40099 5.68875 5.68875 5.68875 5.68875 3.98213ZM15.3596 2.2755C16.3006 2.2755 17.0663 3.04121 17.0663 3.98213C17.0663 5.68875 16.354 5.68875 15.9285 5.68875H13.1103C13.6906 3.89566 14.5336 2.2755 15.3596 2.2755Z" fill="url(#paint0_linear)"/>
<path d="M3.41325 11.3775H2.2755V20.4795C2.2755 21.7356 3.29493 22.755 4.551 22.755H10.2398V11.3775H4.551H3.41325ZM18.204 11.3775H12.5153V22.755H18.204C19.4601 22.755 20.4795 21.7356 20.4795 20.4795V11.3775H19.3418H18.204ZM19.104 5.68875C19.253 5.22114 19.3418 4.66023 19.3418 3.98213C19.3418 1.78627 17.5555 0 15.3596 0C13.5142 0 12.282 1.68615 11.4867 3.50996C10.7028 1.78627 9.40806 0 7.39538 0C5.19952 0 3.41325 1.78627 3.41325 3.98213C3.41325 4.66023 3.50313 5.22114 3.65104 5.68875H0V10.2398H10.2398V7.96426H11.3775H12.5153V8.06779V10.2398H22.755V5.68875H19.104ZM5.68875 3.98213C5.68875 3.04121 6.45446 2.2755 7.39538 2.2755C8.4057 2.2755 9.34549 4.01057 9.89616 5.68875H6.82651C6.40099 5.68875 5.68875 5.68875 5.68875 3.98213ZM15.3596 2.2755C16.3006 2.2755 17.0663 3.04121 17.0663 3.98213C17.0663 5.68875 16.354 5.68875 15.9285 5.68875H13.1103C13.6906 3.89566 14.5336 2.2755 15.3596 2.2755Z" fill="url(#paint1_linear)"/>
<path d="M3.41325 11.3775H2.2755V20.4795C2.2755 21.7356 3.29493 22.755 4.551 22.755H10.2398V11.3775H4.551H3.41325ZM18.204 11.3775H12.5153V22.755H18.204C19.4601 22.755 20.4795 21.7356 20.4795 20.4795V11.3775H19.3418H18.204ZM19.104 5.68875C19.253 5.22114 19.3418 4.66023 19.3418 3.98213C19.3418 1.78627 17.5555 0 15.3596 0C13.5142 0 12.282 1.68615 11.4867 3.50996C10.7028 1.78627 9.40806 0 7.39538 0C5.19952 0 3.41325 1.78627 3.41325 3.98213C3.41325 4.66023 3.50313 5.22114 3.65104 5.68875H0V10.2398H10.2398V7.96426H11.3775H12.5153V8.06779V10.2398H22.755V5.68875H19.104ZM5.68875 3.98213C5.68875 3.04121 6.45446 2.2755 7.39538 2.2755C8.4057 2.2755 9.34549 4.01057 9.89616 5.68875H6.82651C6.40099 5.68875 5.68875 5.68875 5.68875 3.98213ZM15.3596 2.2755C16.3006 2.2755 17.0663 3.04121 17.0663 3.98213C17.0663 5.68875 16.354 5.68875 15.9285 5.68875H13.1103C13.6906 3.89566 14.5336 2.2755 15.3596 2.2755Z" fill="url(#paint2_linear)"/>
<defs>
<linearGradient id="paint0_linear" x1="11.3775" y1="0" x2="11.3775" y2="22.755" gradientUnits="userSpaceOnUse">
<stop stop-color="#C9B2EF"/>
<stop offset="1" stop-color="#543784"/>
</linearGradient>
<linearGradient id="paint1_linear" x1="11.8705" y1="-3.18447" x2="12.0722" y2="28.3193" gradientUnits="userSpaceOnUse">
<stop stop-color="#D9C88B"/>
<stop offset="1" stop-color="#AA9036"/>
</linearGradient>
<linearGradient id="paint2_linear" x1="11.8705" y1="-3.18447" x2="12.0722" y2="28.3193" gradientUnits="userSpaceOnUse">
<stop offset="0.0904391" stop-color="#DDAE09"/>
<stop offset="0.127005" stop-color="#FFF5D0"/>
<stop offset="0.271574" stop-color="#D1BA6A"/>
<stop offset="0.510797" stop-color="#B9A049"/>
<stop offset="0.706074" stop-color="#AB9135"/>
<stop offset="0.823361" stop-color="#AD9D61"/>
</linearGradient>
</defs>
</svg>
