<svg width="30" height="32" viewBox="0 0 30 32" fill="none" xmlns="http://www.w3.org/2000/svg">
<path d="M15.0002 15.1821L28.1509 7.59269L15.0002 0L1.84918 7.59269L15.0002 15.1821Z" fill="url(#paint0_linear)"/>
<path d="M15.0002 15.1821L28.1509 7.59269L15.0002 0L1.84918 7.59269L15.0002 15.1821Z" fill="url(#paint1_linear)"/>
<path d="M14.0594 16.8117L0.908447 9.22234V24.4073L14.0594 32V16.8117Z" fill="url(#paint2_linear)"/>
<path d="M14.0594 16.8117L0.908447 9.22234V24.4073L14.0594 32V16.8117Z" fill="url(#paint3_linear)"/>
<path d="M15.941 16.8117V32L29.0917 24.4073V9.22234L15.941 16.8117Z" fill="url(#paint4_linear)"/>
<path d="M15.941 16.8117V32L29.0917 24.4073V9.22234L15.941 16.8117Z" fill="url(#paint5_linear)"/>
<defs>
<linearGradient id="paint0_linear" x1="15.6107" y1="-4.47826" x2="15.9326" y2="39.8245" gradientUnits="userSpaceOnUse">
<stop stop-color="#D9C88B"/>
<stop offset="1" stop-color="#AA9036"/>
</linearGradient>
<linearGradient id="paint1_linear" x1="15.6107" y1="-4.47826" x2="15.9326" y2="39.8245" gradientUnits="userSpaceOnUse">
<stop offset="0.0904391" stop-color="#DDAE09"/>
<stop offset="0.127005" stop-color="#FFF5D0"/>
<stop offset="0.271574" stop-color="#D1BA6A"/>
<stop offset="0.510797" stop-color="#B9A049"/>
<stop offset="0.706074" stop-color="#AB9135"/>
<stop offset="0.823361" stop-color="#AD9D61"/>
</linearGradient>
<linearGradient id="paint2_linear" x1="15.6107" y1="-4.47826" x2="15.9326" y2="39.8245" gradientUnits="userSpaceOnUse">
<stop stop-color="#D9C88B"/>
<stop offset="1" stop-color="#AA9036"/>
</linearGradient>
<linearGradient id="paint3_linear" x1="15.6107" y1="-4.47826" x2="15.9326" y2="39.8245" gradientUnits="userSpaceOnUse">
<stop offset="0.0904391" stop-color="#DDAE09"/>
<stop offset="0.127005" stop-color="#FFF5D0"/>
<stop offset="0.271574" stop-color="#D1BA6A"/>
<stop offset="0.510797" stop-color="#B9A049"/>
<stop offset="0.706074" stop-color="#AB9135"/>
<stop offset="0.823361" stop-color="#AD9D61"/>
</linearGradient>
<linearGradient id="paint4_linear" x1="15.6107" y1="-4.47826" x2="15.9326" y2="39.8245" gradientUnits="userSpaceOnUse">
<stop stop-color="#D9C88B"/>
<stop offset="1" stop-color="#AA9036"/>
</linearGradient>
<linearGradient id="paint5_linear" x1="15.6107" y1="-4.47826" x2="15.9326" y2="39.8245" gradientUnits="userSpaceOnUse">
<stop offset="0.0904391" stop-color="#DDAE09"/>
<stop offset="0.127005" stop-color="#FFF5D0"/>
<stop offset="0.271574" stop-color="#D1BA6A"/>
<stop offset="0.510797" stop-color="#B9A049"/>
<stop offset="0.706074" stop-color="#AB9135"/>
<stop offset="0.823361" stop-color="#AD9D61"/>
</linearGradient>
</defs>
</svg>
