<svg width="121" height="121" fill="none" xmlns="http://www.w3.org/2000/svg"><circle cx="39.194" cy="39.194" r="28.976" transform="rotate(28.033 39.194 39.194)" fill="url(#paint0_linear)"/><circle cx="39.194" cy="77.828" r="28.976" transform="rotate(-70.955 39.194 77.828)" fill="url(#paint1_linear)"/><circle cx="79.284" cy="79.284" r="28.976" transform="rotate(-140.807 79.284 79.284)" fill="url(#paint2_linear)"/><circle cx="76.811" cy="38.177" r="28.976" transform="rotate(112.018 76.811 38.177)" fill="url(#paint3_linear)"/><path d="M68.72 66.024c0 2.624-.864 4.784-2.592 6.48-1.728 1.696-3.968 2.704-6.72 3.024V79.8h-3.024v-4.224c-2.624-.192-4.864-.912-6.72-2.16-1.824-1.248-3.152-2.928-3.984-5.04l3.84-2.208c1.088 2.976 3.376 4.656 6.864 5.04V59.592c-1.44-.512-2.608-.976-3.504-1.392-.864-.448-1.776-1.04-2.736-1.776a7.005 7.005 0 01-2.16-2.688c-.448-1.088-.672-2.336-.672-3.744 0-2.592.864-4.704 2.592-6.336 1.728-1.632 3.888-2.576 6.48-2.832V36.6h3.024v4.272c1.92.256 3.632.928 5.136 2.016s2.672 2.56 3.504 4.416l-3.744 2.112c-.928-2.336-2.56-3.728-4.896-4.176v11.04c1.472.544 2.64 1.024 3.504 1.44.864.416 1.808 1.008 2.832 1.776 1.024.736 1.776 1.648 2.256 2.736.48 1.088.72 2.352.72 3.792zM51.728 49.992c0 1.216.368 2.208 1.104 2.976.736.768 1.92 1.488 3.552 2.16v-9.936c-1.408.192-2.544.72-3.408 1.584-.832.832-1.248 1.904-1.248 3.216zm7.68 21.12c1.536-.224 2.72-.784 3.552-1.68.864-.928 1.296-2.048 1.296-3.36 0-1.312-.4-2.352-1.2-3.12-.768-.8-1.984-1.552-3.648-2.256v10.416z" fill="#fff"/><defs><linearGradient id="paint0_linear" x1="39.194" y1="10.218" x2="39.194" y2="68.169" gradientUnits="userSpaceOnUse"><stop stop-color="#876AB7"/><stop offset="1" stop-color="#543784" stop-opacity="0"/></linearGradient><linearGradient id="paint1_linear" x1="39.194" y1="48.852" x2="39.194" y2="106.803" gradientUnits="userSpaceOnUse"><stop stop-color="#876AB7"/><stop offset="1" stop-color="#543784" stop-opacity="0"/></linearGradient><linearGradient id="paint2_linear" x1="79.284" y1="50.308" x2="79.284" y2="108.259" gradientUnits="userSpaceOnUse"><stop stop-color="#876AB7"/><stop offset="1" stop-color="#543784" stop-opacity="0"/></linearGradient><linearGradient id="paint3_linear" x1="76.811" y1="9.202" x2="76.811" y2="67.153" gradientUnits="userSpaceOnUse"><stop stop-color="#876AB7"/><stop offset="1" stop-color="#543784" stop-opacity="0"/></linearGradient></defs></svg>