<svg width="63" height="62" fill="none" xmlns="http://www.w3.org/2000/svg"><g filter="url(#filter0_d)"><path d="M36.435 20H26.32a1.14 1.14 0 00-.966.535l-3.932 6.291h19.91l-3.931-6.291a1.14 1.14 0 00-.966-.535zm-5.9 20.691a1.137 1.137 0 001.684 0l10.536-11.589H20l10.536 11.59z" fill="#000"/><path d="M36.435 20H26.32a1.14 1.14 0 00-.966.535l-3.932 6.291h19.91l-3.931-6.291a1.14 1.14 0 00-.966-.535zm-5.9 20.691a1.137 1.137 0 001.684 0l10.536-11.589H20l10.536 11.59z" fill="url(#paint0_linear)"/></g><defs><linearGradient id="paint0_linear" x1="31.378" y1="20" x2="31.378" y2="41.064" gradientUnits="userSpaceOnUse"><stop stop-color="#C9B2EF"/><stop offset="1" stop-color="#543784"/></linearGradient><filter id="filter0_d" x="0" y="0" width="62.755" height="61.064" filterUnits="userSpaceOnUse" color-interpolation-filters="sRGB"><feFlood flood-opacity="0" result="BackgroundImageFix"/><feColorMatrix in="SourceAlpha" values="0 0 0 0 0 0 0 0 0 0 0 0 0 0 0 0 0 0 127 0"/><feOffset/><feGaussianBlur stdDeviation="10"/><feColorMatrix values="0 0 0 0 0 0 0 0 0 0 0 0 0 0 0 0 0 0 0.5 0"/><feBlend in2="BackgroundImageFix" result="effect1_dropShadow"/><feBlend in="SourceGraphic" in2="effect1_dropShadow" result="shape"/></filter></defs></svg>