<svg width="143" height="19" fill="none" xmlns="http://www.w3.org/2000/svg"><path d="M9.528 18.336c-2.512 0-4.6-.84-6.264-2.52C1.616 14.152.792 12.08.792 9.6c0-2.496.824-4.568 2.472-6.216C4.928 1.704 7.016.864 9.528.864c1.52 0 2.92.36 4.2 1.08 1.296.704 2.304 1.664 3.024 2.88L13.896 6.48a4.356 4.356 0 00-1.776-1.752c-.768-.432-1.632-.648-2.592-.648-1.632 0-2.952.512-3.96 1.536C4.576 6.656 4.08 7.984 4.08 9.6c0 1.6.496 2.92 1.488 3.96 1.008 1.024 2.328 1.536 3.96 1.536.96 0 1.824-.208 2.592-.624.784-.432 1.376-1.016 1.776-1.752l2.856 1.656c-.72 1.216-1.728 2.184-3.024 2.904-1.28.704-2.68 1.056-4.2 1.056zM31.579 18h-3.576l-3.384-5.832h-2.52V18h-3.312V1.2h6.72c1.552 0 2.872.544 3.96 1.632 1.088 1.088 1.632 2.4 1.632 3.936 0 1.04-.296 2.008-.888 2.904a5.588 5.588 0 01-2.352 1.992L31.579 18zM25.507 4.296h-3.408v4.968h3.408c.624 0 1.16-.24 1.608-.72a2.56 2.56 0 00.672-1.776c0-.688-.224-1.272-.672-1.752-.448-.48-.984-.72-1.608-.72zM42.612 1.2h3.744l-5.76 10.248V18h-3.288v-6.552L31.572 1.2h3.744l3.648 7.008L42.612 1.2zm5.354 0h6.264c1.6 0 2.96.544 4.08 1.632 1.104 1.088 1.656 2.424 1.656 4.008s-.552 2.92-1.656 4.008c-1.12 1.088-2.48 1.632-4.08 1.632h-2.952V18h-3.312V1.2zm3.312 8.184h2.952c.704 0 1.288-.24 1.752-.72.464-.496.696-1.104.696-1.824 0-.736-.232-1.344-.696-1.824-.464-.48-1.048-.72-1.752-.72h-2.952v5.088zM60.57 1.2h12.36v3.168h-4.536V18h-3.312V4.368H60.57V1.2zm27.384 14.616c-1.696 1.68-3.76 2.52-6.192 2.52-2.432 0-4.496-.84-6.192-2.52-1.68-1.712-2.52-3.784-2.52-6.216 0-2.448.84-4.512 2.52-6.192C77.266 1.712 79.33.864 81.762.864c2.432 0 4.496.848 6.192 2.544 1.696 1.68 2.544 3.744 2.544 6.192s-.848 4.52-2.544 6.216zM77.898 13.56c1.024 1.024 2.312 1.536 3.864 1.536s2.84-.512 3.864-1.536c1.04-1.04 1.56-2.36 1.56-3.96s-.52-2.92-1.56-3.96-2.328-1.56-3.864-1.56-2.824.52-3.864 1.56-1.56 2.36-1.56 3.96.52 2.92 1.56 3.96zm21.074 4.776c-1.872 0-3.408-.528-4.608-1.584-1.2-1.056-1.8-2.472-1.8-4.248V1.2h3.288v11.04c0 .896.256 1.6.768 2.112.528.496 1.312.744 2.352.744 1.04 0 1.816-.248 2.328-.744.528-.512.792-1.216.792-2.112V1.2h3.312v11.304c0 1.776-.6 3.192-1.8 4.248-1.2 1.056-2.744 1.584-4.632 1.584zm19.136-6.888V1.2h3.312V18h-2.52l-7.2-10.272V18h-3.312V1.2h2.52l7.2 10.248zM124.537 18V1.2h3.312V18h-3.312zm5.173-16.8h12.36v3.168h-4.536V18h-3.312V4.368h-4.512V1.2z" fill="#fff"/></svg>